Password.ufo
<glyph name="exclam" format="2">
  <advance width="221"/>
  <unicode hex="0021"/>
  <outline>
    <contour>
      <point x="183" y="149" type="line"/>
      <point x="183" y="0" type="line"/>
      <point x="34" y="0" type="line"/>
      <point x="34" y="149" type="line"/>
    </contour>
    <contour>
      <point x="64" y="417" type="qcurve" smooth="yes"/>
      <point x="94" y="417"/>
      <point x="94" y="447" type="qcurve" smooth="yes"/>
      <point x="94" y="506" type="line" smooth="yes"/>
      <point x="94" y="536"/>
      <point x="64" y="536" type="qcurve" smooth="yes"/>
      <point x="34" y="536"/>
      <point x="34" y="565" type="qcurve" smooth="yes"/>
      <point x="34" y="684" type="line"/>
      <point x="183" y="684" type="line"/>
      <point x="183" y="417" type="line"/>
      <point x="183" y="268" type="line"/>
      <point x="183" y="209" type="line"/>
      <point x="34" y="209" type="line"/>
      <point x="34" y="387" type="line" smooth="yes"/>
      <point x="34" y="417"/>
    </contour>
  </outline>
</glyph>
<glyph name="quotedbl" format="2">
  <advance width="355"/>
  <unicode hex="0022"/>
  <outline>
    <contour>
      <point x="15" y="684" type="line"/>
      <point x="164" y="684" type="line"/>
      <point x="132" y="444" type="line"/>
      <point x="44" y="444" type="line"/>
    </contour>
    <contour>
      <point x="183" y="684" type="line"/>
      <point x="332" y="684" type="line"/>
      <point x="300" y="444" type="line"/>
      <point x="212" y="444" type="line"/>
    </contour>
  </outline>
</glyph>
<glyph name="numbersign" format="2">
  <advance width="720"/>
  <unicode hex="0023"/>
  <outline>
    <contour>
      <point x="646" y="258" type="line"/>
      <point x="624" y="153" type="line"/>
      <point x="25" y="153" type="line"/>
      <point x="47" y="258" type="line"/>
    </contour>
    <contour>
      <point x="703" y="523" type="line"/>
      <point x="680" y="416" type="line"/>
      <point x="81" y="416" type="line"/>
      <point x="104" y="523" type="line"/>
    </contour>
    <contour>
      <point x="238" y="0" type="line"/>
      <point x="132" y="0" type="line"/>
      <point x="271" y="656" type="line"/>
      <point x="377" y="656" type="line"/>
    </contour>
    <contour>
      <point x="463" y="0" type="line"/>
      <point x="356" y="0" type="line"/>
      <point x="495" y="656" type="line"/>
      <point x="602" y="656" type="line"/>
    </contour>
  </outline>
</glyph>
<glyph name="ampersand" format="2">
  <advance width="475"/>
  <unicode hex="0026"/>
  <outline>
    <contour>
      <point x="307" y="466" type="line"/>
      <point x="455" y="466" type="line"/>
      <point x="455" y="0" type="line"/>
      <point x="225" y="0" type="line" smooth="yes"/>
      <point x="159" y="0"/>
      <point x="61" y="69"/>
      <point x="13" y="172"/>
      <point x="23" y="291"/>
      <point x="66" y="342" type="qcurve"/>
      <point x="55" y="355"/>
      <point x="39" y="381"/>
      <point x="33" y="396" type="qcurve" smooth="yes"/>
      <point x="25" y="416"/>
      <point x="47" y="416" type="qcurve" smooth="yes"/>
      <point x="77" y="416"/>
      <point x="77" y="446" type="qcurve" smooth="yes"/>
      <point x="77" y="506" type="line" smooth="yes"/>
      <point x="77" y="535"/>
      <point x="47" y="535" type="qcurve" smooth="yes"/>
      <point x="25" y="535"/>
      <point x="33" y="556" type="qcurve"/>
      <point x="55" y="608"/>
      <point x="132" y="669"/>
      <point x="177" y="679" type="qcurve" smooth="yes"/>
      <point x="201" y="684"/>
      <point x="226" y="684" type="qcurve"/>
      <point x="226" y="683" type="line"/>
      <point x="455" y="683" type="line"/>
      <point x="455" y="535" type="line"/>
      <point x="224" y="535" type="line"/>
      <point x="200" y="534"/>
      <point x="183" y="518" type="qcurve" smooth="yes"/>
      <point x="166" y="501"/>
      <point x="166" y="476" type="qcurve" smooth="yes"/>
      <point x="166" y="451"/>
      <point x="201" y="416"/>
      <point x="225" y="416" type="qcurve" smooth="yes"/>
      <point x="307" y="416" type="line"/>
    </contour>
    <contour>
      <point x="307" y="267" type="line"/>
      <point x="224" y="267" type="line"/>
      <point x="224" y="268" type="line"/>
      <point x="200" y="267"/>
      <point x="183" y="250" type="qcurve" smooth="yes"/>
      <point x="166" y="233"/>
      <point x="166" y="208" type="qcurve" smooth="yes"/>
      <point x="166" y="183"/>
      <point x="201" y="149"/>
      <point x="225" y="149" type="qcurve"/>
      <point x="226" y="149" type="line"/>
      <point x="226" y="148" type="line"/>
      <point x="307" y="148" type="line"/>
    </contour>
  </outline>
</glyph>
<glyph name="quotesingle" format="2">
  <advance width="183"/>
  <unicode hex="0027"/>
  <outline>
    <contour>
      <point x="15" y="684" type="line"/>
      <point x="164" y="684" type="line"/>
      <point x="132" y="444" type="line"/>
      <point x="44" y="444" type="line"/>
    </contour>
  </outline>
</glyph>
<glyph name="parenleft" format="2">
  <advance width="205"/>
  <unicode hex="0028"/>
  <outline>
    <contour>
      <point x="88" y="468" type="qcurve" smooth="yes"/>
      <point x="91" y="486"/>
      <point x="99" y="522"/>
      <point x="104" y="540" type="qcurve" smooth="yes"/>
      <point x="114" y="576"/>
      <point x="87" y="586" type="qcurve"/>
      <point x="73" y="590"/>
      <point x="65" y="614"/>
      <point x="73" y="633" type="qcurve" smooth="yes"/>
      <point x="102" y="705"/>
      <point x="187" y="837"/>
      <point x="246" y="896" type="qcurve"/>
      <point x="272" y="870"/>
      <point x="324" y="817"/>
      <point x="350" y="791" type="qcurve"/>
      <point x="272" y="713"/>
      <point x="183" y="523"/>
      <point x="172" y="421" type="qcurve"/>
      <point x="162" y="342"/>
      <point x="174" y="260" type="qcurve" smooth="yes"/>
      <point x="188" y="163"/>
      <point x="275" y="-17"/>
      <point x="350" y="-91" type="qcurve"/>
      <point x="324" y="-117"/>
      <point x="272" y="-170"/>
      <point x="246" y="-196" type="qcurve"/>
      <point x="184" y="-135"/>
      <point x="95" y="6"/>
      <point x="39" y="159"/>
      <point x="16" y="319"/>
      <point x="21" y="399" type="qcurve" smooth="yes"/>
      <point x="24" y="438"/>
      <point x="53" y="435" type="qcurve" smooth="yes"/>
      <point x="82" y="432"/>
    </contour>
  </outline>
</glyph>
<glyph name="parenright" format="2">
  <advance width="379"/>
  <unicode hex="0029"/>
  <outline>
    <contour>
      <point x="257" y="463" type="qcurve" smooth="yes"/>
      <point x="251" y="499"/>
      <point x="242" y="532" type="qcurve"/>
      <point x="231" y="567"/>
      <point x="203" y="557" type="qcurve" smooth="yes"/>
      <point x="176" y="548"/>
      <point x="164" y="579" type="qcurve" smooth="yes"/>
      <point x="141" y="637"/>
      <point x="72" y="744"/>
      <point x="25" y="791" type="qcurve"/>
      <point x="51" y="817"/>
      <point x="103" y="870"/>
      <point x="129" y="896" type="qcurve"/>
      <point x="226" y="799"/>
      <point x="336" y="564"/>
      <point x="350" y="438" type="qcurve" smooth="yes"/>
      <point x="362" y="338"/>
      <point x="347" y="239" type="qcurve" smooth="yes"/>
      <point x="330" y="119"/>
      <point x="222" y="-104"/>
      <point x="129" y="-196" type="qcurve"/>
      <point x="103" y="-170"/>
      <point x="51" y="-117"/>
      <point x="25" y="-91" type="qcurve"/>
      <point x="125" y="9"/>
      <point x="214" y="259"/>
      <point x="206" y="390" type="qcurve" smooth="yes"/>
      <point x="204" y="421"/>
      <point x="232" y="425" type="qcurve"/>
      <point x="263" y="428"/>
    </contour>
  </outline>
</glyph>
<glyph name="asterisk" format="2">
  <advance width="476"/>
  <unicode hex="002A"/>
  <outline>
    <contour>
      <point x="451" y="545" type="line"/>
      <point x="318" y="472" type="line"/>
      <point x="445" y="387" type="line"/>
      <point x="360" y="288" type="line"/>
      <point x="291" y="365" type="line"/>
      <point x="304" y="258" type="line"/>
      <point x="174" y="258" type="line"/>
      <point x="191" y="383" type="line"/>
      <point x="95" y="292" type="line"/>
      <point x="17" y="397" type="line"/>
      <point x="149" y="471" type="line"/>
      <point x="23" y="555" type="line"/>
      <point x="108" y="654" type="line"/>
      <point x="176" y="578" type="line"/>
      <point x="163" y="684" type="line"/>
      <point x="294" y="684" type="line"/>
      <point x="277" y="560" type="line"/>
      <point x="373" y="650" type="line"/>
    </contour>
  </outline>
</glyph>
<glyph name="plus" format="2">
  <advance width="543"/>
  <unicode hex="002B"/>
  <outline>
    <contour>
      <point x="511" y="432" type="line"/>
      <point x="511" y="284" type="line"/>
      <point x="44" y="284" type="line"/>
      <point x="44" y="432" type="line"/>
    </contour>
    <contour>
      <point x="201" y="593" type="line"/>
      <point x="349" y="593" type="line"/>
      <point x="349" y="126" type="line"/>
      <point x="201" y="126" type="line"/>
    </contour>
  </outline>
</glyph>
<glyph name="hyphen" format="2">
  <advance width="299"/>
  <unicode hex="002D"/>
  <outline>
    <contour>
      <point x="267" y="432" type="line"/>
      <point x="267" y="284" type="line"/>
      <point x="34" y="284" type="line"/>
      <point x="34" y="432" type="line"/>
    </contour>
  </outline>
</glyph>
<glyph name="slash" format="2">
  <advance width="537"/>
  <unicode hex="002F"/>
  <outline>
    <contour>
      <point x="368" y="731" type="line"/>
      <point x="518" y="731" type="line"/>
      <point x="260" y="-53" type="line"/>
      <point x="112" y="-53" type="line"/>
    </contour>
  </outline>
</glyph>
<glyph name="zero" format="2">
  <advance width="475"/>
  <unicode hex="0030"/>
  <outline>
    <contour>
      <point x="356" y="646" type="qcurve" smooth="yes"/>
      <point x="400" y="615"/>
      <point x="440" y="530"/>
      <point x="452" y="436"/>
      <point x="447" y="342"/>
      <point x="447" y="302" type="qcurve" smooth="yes"/>
      <point x="447" y="254"/>
      <point x="445" y="164"/>
      <point x="423" y="118" type="qcurve" smooth="yes"/>
      <point x="399" y="70"/>
      <point x="334" y="18"/>
      <point x="281" y="6" type="qcurve" smooth="yes"/>
      <point x="232" y="-5"/>
      <point x="141" y="18"/>
      <point x="70" y="74"/>
      <point x="27" y="159"/>
      <point x="27" y="209" type="qcurve" smooth="yes"/>
      <point x="27" y="387" type="line" smooth="yes"/>
      <point x="27" y="417"/>
      <point x="57" y="417" type="qcurve" smooth="yes"/>
      <point x="87" y="417"/>
      <point x="87" y="447" type="qcurve" smooth="yes"/>
      <point x="87" y="506" type="line" smooth="yes"/>
      <point x="87" y="536"/>
      <point x="57" y="536" type="qcurve" smooth="yes"/>
      <point x="35" y="536"/>
      <point x="43" y="556" type="qcurve" smooth="yes"/>
      <point x="62" y="602"/>
      <point x="135" y="664"/>
      <point x="222" y="689"/>
      <point x="315" y="675"/>
    </contour>
    <contour>
      <point x="255" y="153" type="qcurve" smooth="yes"/>
      <point x="274" y="160"/>
      <point x="291" y="180"/>
      <point x="297" y="205"/>
      <point x="295" y="234"/>
      <point x="295" y="249" type="qcurve" smooth="yes"/>
      <point x="295" y="476" type="line" smooth="yes"/>
      <point x="295" y="491"/>
      <point x="281" y="517"/>
      <point x="258" y="533"/>
      <point x="230" y="538"/>
      <point x="216" y="533" type="qcurve" smooth="yes"/>
      <point x="197" y="526"/>
      <point x="180" y="505"/>
      <point x="174" y="480"/>
      <point x="176" y="451"/>
      <point x="176" y="436" type="qcurve" smooth="yes"/>
      <point x="176" y="209" type="line" smooth="yes"/>
      <point x="176" y="194"/>
      <point x="190" y="168"/>
      <point x="212" y="152"/>
      <point x="240" y="148"/>
    </contour>
  </outline>
</glyph>
<glyph name="one" format="2">
  <advance width="271"/>
  <unicode hex="0031"/>
  <outline>
    <contour>
      <point x="149" y="446" type="qcurve" smooth="yes"/>
      <point x="149" y="505" type="line" smooth="yes"/>
      <point x="149" y="535"/>
      <point x="119" y="535" type="qcurve" smooth="yes"/>
      <point x="20" y="535" type="line"/>
      <point x="20" y="683" type="line"/>
      <point x="89" y="683" type="line"/>
      <point x="238" y="683" type="line"/>
      <point x="238" y="416" type="line"/>
      <point x="238" y="267" type="line"/>
      <point x="238" y="0" type="line"/>
      <point x="89" y="0" type="line"/>
      <point x="89" y="386" type="line" smooth="yes"/>
      <point x="89" y="416"/>
      <point x="119" y="416" type="qcurve" smooth="yes"/>
      <point x="149" y="416"/>
    </contour>
  </outline>
</glyph>
<glyph name="two" format="2">
  <advance width="479"/>
  <unicode hex="0032"/>
  <outline>
    <contour>
      <point x="180" y="476" type="qcurve"/>
      <point x="180" y="446" type="line"/>
      <point x="91" y="446" type="line"/>
      <point x="91" y="505" type="line" smooth="yes"/>
      <point x="91" y="535"/>
      <point x="62" y="535" type="qcurve" smooth="yes"/>
      <point x="53" y="535"/>
      <point x="48" y="539" type="qcurve" smooth="yes"/>
      <point x="43" y="542"/>
      <point x="44" y="547" type="qcurve"/>
      <point x="58" y="586"/>
      <point x="111" y="644"/>
      <point x="176" y="677"/>
      <point x="249" y="687"/>
      <point x="321" y="671"/>
      <point x="386" y="629"/>
      <point x="410" y="595" type="qcurve" smooth="yes"/>
      <point x="446" y="543"/>
      <point x="450" y="428"/>
      <point x="399" y="331"/>
      <point x="303" y="267"/>
      <point x="240" y="267" type="qcurve" smooth="yes"/>
      <point x="215" y="267"/>
      <point x="180" y="233"/>
      <point x="180" y="208" type="qcurve" smooth="yes"/>
      <point x="180" y="148" type="line"/>
      <point x="440" y="148" type="line"/>
      <point x="448" y="148" type="line"/>
      <point x="448" y="0" type="line"/>
      <point x="240" y="0" type="line"/>
      <point x="32" y="0" type="line"/>
      <point x="32" y="208" type="line" smooth="yes"/>
      <point x="32" y="251"/>
      <point x="65" y="327"/>
      <point x="121" y="383"/>
      <point x="197" y="416"/>
      <point x="240" y="416" type="qcurve" smooth="yes"/>
      <point x="257" y="416"/>
      <point x="283" y="432"/>
      <point x="298" y="456"/>
      <point x="301" y="485"/>
      <point x="295" y="499" type="qcurve" smooth="yes"/>
      <point x="294" y="501"/>
      <point x="293" y="502"/>
      <point x="292" y="504" type="qcurve" smooth="yes"/>
      <point x="289" y="510"/>
      <point x="284" y="515" type="qcurve"/>
      <point x="284" y="516"/>
      <point x="282" y="518" type="qcurve" smooth="yes"/>
      <point x="280" y="520"/>
      <point x="275" y="523"/>
      <point x="273" y="525" type="qcurve" smooth="yes"/>
      <point x="268" y="528"/>
      <point x="263" y="530" type="qcurve" smooth="yes"/>
      <point x="260" y="532"/>
      <point x="254" y="533"/>
      <point x="252" y="534" type="qcurve"/>
      <point x="242" y="535"/>
      <point x="233" y="534" type="qcurve"/>
      <point x="228" y="534"/>
      <point x="225" y="533" type="qcurve" smooth="yes"/>
      <point x="223" y="532"/>
      <point x="220" y="532"/>
      <point x="218" y="531" type="qcurve" smooth="yes"/>
      <point x="198" y="524"/>
      <point x="183" y="500"/>
      <point x="181" y="485" type="qcurve"/>
      <point x="181" y="483"/>
      <point x="180" y="478"/>
    </contour>
  </outline>
</glyph>
<glyph name="three" format="2">
  <advance width="467"/>
  <unicode hex="0033"/>
  <outline>
    <contour>
      <point x="174" y="208" type="line" smooth="yes"/>
      <point x="174" y="184"/>
      <point x="208" y="149"/>
      <point x="233" y="149" type="qcurve" smooth="yes"/>
      <point x="258" y="149"/>
      <point x="293" y="184"/>
      <point x="293" y="208" type="qcurve" smooth="yes"/>
      <point x="293" y="233"/>
      <point x="258" y="268"/>
      <point x="233" y="268" type="qcurve" smooth="yes"/>
      <point x="204" y="268" type="line"/>
      <point x="204" y="417" type="line"/>
      <point x="233" y="417" type="line" smooth="yes"/>
      <point x="258" y="417"/>
      <point x="293" y="451"/>
      <point x="293" y="476" type="qcurve"/>
      <point x="293" y="478"/>
      <point x="292" y="481"/>
      <point x="292" y="483" type="qcurve"/>
      <point x="292" y="485"/>
      <point x="291" y="490"/>
      <point x="291" y="492" type="qcurve"/>
      <point x="290" y="492"/>
      <point x="290" y="494" type="qcurve"/>
      <point x="288" y="499"/>
      <point x="285" y="504" type="qcurve" smooth="yes"/>
      <point x="283" y="508"/>
      <point x="279" y="513"/>
      <point x="277" y="516" type="qcurve" smooth="yes"/>
      <point x="275" y="518"/>
      <point x="275" y="518" type="qcurve"/>
      <point x="257" y="536"/>
      <point x="233" y="535" type="qcurve"/>
      <point x="226" y="535" type="line"/>
      <point x="224" y="535"/>
      <point x="221" y="534"/>
      <point x="219" y="534" type="qcurve"/>
      <point x="215" y="532"/>
      <point x="215" y="532" type="qcurve"/>
      <point x="194" y="526"/>
      <point x="177" y="503"/>
      <point x="175" y="488" type="qcurve"/>
      <point x="175" y="486"/>
      <point x="174" y="486" type="qcurve"/>
      <point x="174" y="477" type="line"/>
      <point x="174" y="476" type="line"/>
      <point x="173" y="469"/>
      <point x="174" y="454"/>
      <point x="174" y="446" type="qcurve"/>
      <point x="85" y="446" type="line"/>
      <point x="85" y="506" type="line" smooth="yes"/>
      <point x="85" y="535"/>
      <point x="55" y="535" type="qcurve" smooth="yes"/>
      <point x="49" y="535"/>
      <point x="41" y="539" type="qcurve" smooth="yes"/>
      <point x="35" y="542"/>
      <point x="38" y="547" type="qcurve"/>
      <point x="58" y="602"/>
      <point x="133" y="666"/>
      <point x="223" y="689"/>
      <point x="316" y="673"/>
      <point x="392" y="620"/>
      <point x="441" y="534"/>
      <point x="441" y="476" type="qcurve" smooth="yes"/>
      <point x="441" y="436"/>
      <point x="419" y="373"/>
      <point x="393" y="342" type="qcurve"/>
      <point x="419" y="312"/>
      <point x="441" y="249"/>
      <point x="441" y="208" type="qcurve" smooth="yes"/>
      <point x="441" y="165"/>
      <point x="408" y="89"/>
      <point x="352" y="33"/>
      <point x="276" y="0"/>
      <point x="233" y="0" type="qcurve" smooth="yes"/>
      <point x="190" y="0"/>
      <point x="114" y="33"/>
      <point x="58" y="89"/>
      <point x="25" y="165"/>
      <point x="25" y="208" type="qcurve" smooth="yes"/>
      <point x="25" y="238" type="line"/>
      <point x="174" y="238" type="line"/>
    </contour>
  </outline>
</glyph>
<glyph name="four" format="2">
  <advance width="477"/>
  <unicode hex="0034"/>
  <outline>
    <contour>
      <point x="444" y="208" type="line"/>
      <point x="444" y="0" type="line"/>
      <point x="295" y="0" type="line"/>
      <point x="295" y="149" type="line"/>
      <point x="295" y="208" type="line"/>
      <point x="295" y="268" type="line"/>
      <point x="236" y="268" type="line" smooth="yes"/>
      <point x="173" y="268"/>
      <point x="68" y="337"/>
      <point x="44" y="396" type="qcurve"/>
      <point x="35" y="416"/>
      <point x="58" y="416" type="qcurve" smooth="yes"/>
      <point x="87" y="416"/>
      <point x="87" y="446" type="qcurve" smooth="yes"/>
      <point x="87" y="506" type="line" smooth="yes"/>
      <point x="87" y="535"/>
      <point x="58" y="535" type="qcurve" smooth="yes"/>
      <point x="28" y="535"/>
      <point x="28" y="565" type="qcurve" smooth="yes"/>
      <point x="28" y="684" type="line"/>
      <point x="177" y="684" type="line"/>
      <point x="177" y="675" type="line"/>
      <point x="177" y="476" type="line" smooth="yes"/>
      <point x="177" y="451"/>
      <point x="211" y="416"/>
      <point x="236" y="416" type="qcurve" smooth="yes"/>
      <point x="295" y="416" type="line"/>
      <point x="295" y="476" type="line"/>
      <point x="295" y="535" type="line"/>
      <point x="295" y="684" type="line"/>
      <point x="444" y="684" type="line"/>
      <point x="444" y="476" type="line"/>
    </contour>
  </outline>
</glyph>
<glyph name="five" format="2">
  <advance width="481"/>
  <unicode hex="0035"/>
  <outline>
    <contour>
      <point x="31" y="238" type="line"/>
      <point x="180" y="238" type="line"/>
      <point x="180" y="208" type="line" smooth="yes"/>
      <point x="180" y="183"/>
      <point x="215" y="149"/>
      <point x="239" y="149" type="qcurve" smooth="yes"/>
      <point x="264" y="149"/>
      <point x="299" y="183"/>
      <point x="299" y="208" type="qcurve" smooth="yes"/>
      <point x="299" y="268" type="line" smooth="yes"/>
      <point x="299" y="293"/>
      <point x="264" y="327"/>
      <point x="239" y="327" type="qcurve" smooth="yes"/>
      <point x="31" y="327" type="line"/>
      <point x="31" y="387" type="line" smooth="yes"/>
      <point x="31" y="416"/>
      <point x="61" y="416" type="qcurve" smooth="yes"/>
      <point x="91" y="416"/>
      <point x="91" y="446" type="qcurve" smooth="yes"/>
      <point x="91" y="506" type="line" smooth="yes"/>
      <point x="91" y="535"/>
      <point x="61" y="535" type="qcurve" smooth="yes"/>
      <point x="31" y="535"/>
      <point x="31" y="565" type="qcurve" smooth="yes"/>
      <point x="31" y="684" type="line"/>
      <point x="269" y="684" type="line"/>
      <point x="447" y="684" type="line"/>
      <point x="447" y="535" type="line"/>
      <point x="239" y="535" type="line"/>
      <point x="180" y="535" type="line"/>
      <point x="180" y="476" type="line"/>
      <point x="239" y="476" type="line" smooth="yes"/>
      <point x="282" y="476"/>
      <point x="358" y="443"/>
      <point x="414" y="387"/>
      <point x="447" y="311"/>
      <point x="447" y="268" type="qcurve" smooth="yes"/>
      <point x="447" y="208" type="line" smooth="yes"/>
      <point x="447" y="165"/>
      <point x="414" y="89"/>
      <point x="358" y="33"/>
      <point x="282" y="0"/>
      <point x="239" y="0" type="qcurve" smooth="yes"/>
      <point x="196" y="0"/>
      <point x="120" y="33"/>
      <point x="64" y="89"/>
      <point x="31" y="165"/>
      <point x="31" y="208" type="qcurve" smooth="yes"/>
    </contour>
  </outline>
</glyph>
<glyph name="six" format="2">
  <advance width="474"/>
  <unicode hex="0036"/>
  <outline>
    <contour>
      <point x="178" y="416" type="line"/>
      <point x="178" y="408" type="line"/>
      <point x="193" y="413"/>
      <point x="222" y="416"/>
      <point x="237" y="416" type="qcurve" smooth="yes"/>
      <point x="280" y="416"/>
      <point x="356" y="383"/>
      <point x="413" y="327"/>
      <point x="446" y="251"/>
      <point x="446" y="208" type="qcurve" smooth="yes"/>
      <point x="446" y="165"/>
      <point x="413" y="89"/>
      <point x="356" y="33"/>
      <point x="280" y="0"/>
      <point x="237" y="0" type="qcurve" smooth="yes"/>
      <point x="194" y="0"/>
      <point x="118" y="33"/>
      <point x="62" y="89"/>
      <point x="29" y="165"/>
      <point x="29" y="208" type="qcurve"/>
      <point x="29" y="209" type="line"/>
      <point x="30" y="390" type="line"/>
      <point x="30" y="391" type="line"/>
      <point x="30" y="416"/>
      <point x="59" y="416" type="qcurve" smooth="yes"/>
      <point x="89" y="416"/>
      <point x="89" y="446" type="qcurve" smooth="yes"/>
      <point x="89" y="506" type="line" smooth="yes"/>
      <point x="89" y="535"/>
      <point x="59" y="535" type="qcurve" smooth="yes"/>
      <point x="37" y="535"/>
      <point x="45" y="556" type="qcurve" smooth="yes"/>
      <point x="60" y="592"/>
      <point x="113" y="647"/>
      <point x="180" y="679"/>
      <point x="255" y="686"/>
      <point x="293" y="676" type="qcurve" smooth="yes"/>
      <point x="335" y="664"/>
      <point x="394" y="620"/>
      <point x="430" y="559"/>
      <point x="446" y="486"/>
      <point x="446" y="446" type="qcurve"/>
      <point x="297" y="446" type="line"/>
      <point x="297" y="476" type="line"/>
      <point x="297" y="477" type="line"/>
      <point x="297" y="482"/>
      <point x="296" y="485" type="qcurve"/>
      <point x="294" y="502"/>
      <point x="278" y="526"/>
      <point x="255" y="532" type="qcurve"/>
      <point x="254" y="533"/>
      <point x="252" y="533" type="qcurve"/>
      <point x="251" y="534"/>
      <point x="251" y="534" type="qcurve"/>
      <point x="249" y="534"/>
      <point x="247" y="535"/>
      <point x="245" y="535" type="qcurve"/>
      <point x="237" y="535" type="line" smooth="yes"/>
      <point x="211" y="535"/>
      <point x="196" y="518" type="qcurve"/>
      <point x="194" y="516" type="line" smooth="yes"/>
      <point x="188" y="510"/>
      <point x="185" y="504" type="qcurve" smooth="yes"/>
      <point x="183" y="501"/>
      <point x="181" y="493" type="qcurve"/>
      <point x="180" y="493"/>
      <point x="180" y="491" type="qcurve"/>
      <point x="179" y="489"/>
      <point x="179" y="485"/>
      <point x="178" y="483" type="qcurve"/>
      <point x="178" y="476" type="line"/>
    </contour>
    <contour>
      <point x="178" y="208" type="qcurve" smooth="yes"/>
      <point x="178" y="183"/>
      <point x="213" y="149"/>
      <point x="237" y="149" type="qcurve" smooth="yes"/>
      <point x="262" y="149"/>
      <point x="297" y="183"/>
      <point x="297" y="208" type="qcurve" smooth="yes"/>
      <point x="297" y="233"/>
      <point x="262" y="268"/>
      <point x="237" y="268" type="qcurve" smooth="yes"/>
      <point x="213" y="268"/>
      <point x="178" y="233"/>
    </contour>
  </outline>
</glyph>
<glyph name="seven" format="2">
  <advance width="436"/>
  <unicode hex="0037"/>
  <outline>
    <contour>
      <point x="229" y="415" type="qcurve"/>
      <point x="257" y="405"/>
      <point x="267" y="433" type="qcurve" smooth="yes"/>
      <point x="272" y="447"/>
      <point x="283" y="475"/>
      <point x="288" y="489" type="qcurve" smooth="yes"/>
      <point x="296" y="509"/>
      <point x="273" y="525"/>
      <point x="258" y="532" type="qcurve"/>
      <point x="257" y="532" type="line"/>
      <point x="251" y="535"/>
      <point x="245" y="535" type="qcurve" smooth="yes"/>
      <point x="27" y="535" type="line"/>
      <point x="27" y="684" type="line"/>
      <point x="416" y="684" type="line"/>
      <point x="416" y="535" type="line"/>
      <point x="215" y="0" type="line"/>
      <point x="57" y="0" type="line"/>
      <point x="209" y="407" type="line"/>
      <point x="215" y="420"/>
      <point x="228" y="416" type="qcurve"/>
      <point x="229" y="415"/>
    </contour>
  </outline>
</glyph>
<glyph name="eight" format="2">
  <advance width="467"/>
  <unicode hex="0038"/>
  <outline>
    <contour>
      <point x="83" y="446" type="qcurve" smooth="yes"/>
      <point x="83" y="506" type="line" smooth="yes"/>
      <point x="83" y="535"/>
      <point x="53" y="535" type="qcurve" smooth="yes"/>
      <point x="31" y="535"/>
      <point x="39" y="556" type="qcurve"/>
      <point x="61" y="608"/>
      <point x="138" y="669"/>
      <point x="227" y="689"/>
      <point x="318" y="671"/>
      <point x="393" y="618"/>
      <point x="440" y="533"/>
      <point x="440" y="476" type="qcurve" smooth="yes"/>
      <point x="440" y="436"/>
      <point x="417" y="373"/>
      <point x="391" y="342" type="qcurve"/>
      <point x="417" y="311"/>
      <point x="440" y="248"/>
      <point x="440" y="208" type="qcurve" smooth="yes"/>
      <point x="440" y="165"/>
      <point x="407" y="89"/>
      <point x="350" y="33"/>
      <point x="274" y="0"/>
      <point x="231" y="0" type="qcurve" smooth="yes"/>
      <point x="165" y="0"/>
      <point x="67" y="69"/>
      <point x="19" y="172"/>
      <point x="29" y="291"/>
      <point x="72" y="342" type="qcurve"/>
      <point x="61" y="355"/>
      <point x="45" y="381"/>
      <point x="39" y="396" type="qcurve" smooth="yes"/>
      <point x="31" y="416"/>
      <point x="53" y="416" type="qcurve" smooth="yes"/>
      <point x="83" y="416"/>
    </contour>
    <contour>
      <point x="291" y="476" type="qcurve" smooth="yes"/>
      <point x="291" y="501"/>
      <point x="256" y="535"/>
      <point x="231" y="535" type="qcurve" smooth="yes"/>
      <point x="207" y="535"/>
      <point x="172" y="501"/>
      <point x="172" y="476" type="qcurve" smooth="yes"/>
      <point x="172" y="451"/>
      <point x="207" y="416"/>
      <point x="231" y="416" type="qcurve" smooth="yes"/>
      <point x="256" y="416"/>
      <point x="291" y="451"/>
    </contour>
    <contour>
      <point x="291" y="208" type="qcurve" smooth="yes"/>
      <point x="291" y="233"/>
      <point x="256" y="268"/>
      <point x="231" y="268" type="qcurve" smooth="yes"/>
      <point x="207" y="268"/>
      <point x="172" y="233"/>
      <point x="172" y="208" type="qcurve" smooth="yes"/>
      <point x="172" y="183"/>
      <point x="207" y="149"/>
      <point x="231" y="149" type="qcurve" smooth="yes"/>
      <point x="256" y="149"/>
      <point x="291" y="183"/>
    </contour>
  </outline>
</glyph>
<glyph name="nine" format="2">
  <advance width="472"/>
  <unicode hex="0039"/>
  <outline>
    <contour>
      <point x="175" y="238" type="line"/>
      <point x="175" y="209" type="line"/>
      <point x="175" y="208" type="line"/>
      <point x="175" y="202"/>
      <point x="176" y="199" type="qcurve"/>
      <point x="176" y="197" type="line"/>
      <point x="178" y="183"/>
      <point x="193" y="160"/>
      <point x="211" y="154" type="qcurve" smooth="yes"/>
      <point x="213" y="153"/>
      <point x="213" y="153" type="qcurve"/>
      <point x="222" y="149"/>
      <point x="235" y="149" type="qcurve" smooth="yes"/>
      <point x="246" y="149"/>
      <point x="258" y="154" type="qcurve"/>
      <point x="259" y="154"/>
      <point x="263" y="156" type="qcurve" smooth="yes"/>
      <point x="269" y="160"/>
      <point x="272" y="163" type="qcurve" smooth="yes"/>
      <point x="277" y="166"/>
      <point x="280" y="171" type="qcurve" smooth="yes"/>
      <point x="284" y="176"/>
      <point x="290" y="186"/>
      <point x="292" y="192" type="qcurve" smooth="yes"/>
      <point x="293" y="194"/>
      <point x="293" y="199"/>
      <point x="294" y="201" type="qcurve"/>
      <point x="294" y="209" type="line"/>
      <point x="294" y="268" type="line"/>
      <point x="294" y="277" type="line"/>
      <point x="265" y="268"/>
      <point x="235" y="268" type="qcurve" smooth="yes"/>
      <point x="203" y="268"/>
      <point x="145" y="286"/>
      <point x="94" y="320"/>
      <point x="54" y="367"/>
      <point x="42" y="396" type="qcurve" smooth="yes"/>
      <point x="34" y="417"/>
      <point x="56" y="417" type="qcurve" smooth="yes"/>
      <point x="86" y="417"/>
      <point x="86" y="446" type="qcurve" smooth="yes"/>
      <point x="86" y="506" type="line" smooth="yes"/>
      <point x="86" y="536"/>
      <point x="56" y="536" type="qcurve" smooth="yes"/>
      <point x="34" y="536"/>
      <point x="42" y="556" type="qcurve" smooth="yes"/>
      <point x="44" y="561"/>
      <point x="48" y="568"/>
      <point x="50" y="572" type="qcurve" smooth="yes"/>
      <point x="77" y="624"/>
      <point x="175" y="684"/>
      <point x="235" y="684" type="qcurve" smooth="yes"/>
      <point x="245" y="684" type="line"/>
      <point x="271" y="682"/>
      <point x="291" y="677" type="qcurve"/>
      <point x="300" y="674" type="line"/>
      <point x="304" y="672"/>
      <point x="312" y="670"/>
      <point x="316" y="668" type="qcurve" smooth="yes"/>
      <point x="370" y="645"/>
      <point x="439" y="549"/>
      <point x="443" y="487" type="qcurve"/>
      <point x="443" y="476" type="line"/>
      <point x="442" y="195" type="line"/>
      <point x="442" y="190"/>
      <point x="441" y="180"/>
      <point x="440" y="175" type="qcurve" smooth="yes"/>
      <point x="434" y="139"/>
      <point x="399" y="77"/>
      <point x="347" y="30"/>
      <point x="282" y="3"/>
      <point x="245" y="1" type="qcurve"/>
      <point x="235" y="-1"/>
      <point x="226" y="1" type="qcurve"/>
      <point x="217" y="1" type="line"/>
      <point x="216" y="1"/>
      <point x="214" y="2"/>
      <point x="213" y="2" type="qcurve"/>
      <point x="205" y="2"/>
      <point x="201" y="3" type="qcurve" smooth="yes"/>
      <point x="198" y="4"/>
      <point x="192" y="4"/>
      <point x="190" y="5" type="qcurve" smooth="yes"/>
      <point x="182" y="7"/>
      <point x="179" y="8" type="qcurve"/>
      <point x="177" y="8" type="line"/>
      <point x="138" y="18"/>
      <point x="81" y="62"/>
      <point x="44" y="123"/>
      <point x="26" y="197"/>
      <point x="26" y="238" type="qcurve"/>
    </contour>
    <contour>
      <point x="175" y="476" type="qcurve" smooth="yes"/>
      <point x="175" y="451"/>
      <point x="210" y="417"/>
      <point x="235" y="417" type="qcurve" smooth="yes"/>
      <point x="259" y="417"/>
      <point x="294" y="451"/>
      <point x="294" y="476" type="qcurve" smooth="yes"/>
      <point x="294" y="501"/>
      <point x="259" y="536"/>
      <point x="235" y="536" type="qcurve" smooth="yes"/>
      <point x="210" y="536"/>
      <point x="175" y="501"/>
    </contour>
  </outline>
</glyph>
<glyph name="colon" format="2">
  <advance width="229"/>
  <unicode hex="003A"/>
  <outline>
    <contour>
      <point x="32" y="159" type="qcurve" smooth="yes"/>
      <point x="32" y="194"/>
      <point x="81" y="244"/>
      <point x="116" y="244" type="qcurve" smooth="yes"/>
      <point x="151" y="244"/>
      <point x="201" y="194"/>
      <point x="201" y="159" type="qcurve" smooth="yes"/>
      <point x="201" y="124"/>
      <point x="151" y="74"/>
      <point x="116" y="74" type="qcurve" smooth="yes"/>
      <point x="81" y="74"/>
      <point x="32" y="124"/>
    </contour>
    <contour>
      <point x="32" y="561" type="qcurve" smooth="yes"/>
      <point x="32" y="596"/>
      <point x="81" y="646"/>
      <point x="116" y="646" type="qcurve" smooth="yes"/>
      <point x="151" y="646"/>
      <point x="201" y="596"/>
      <point x="201" y="561" type="qcurve" smooth="yes"/>
      <point x="201" y="526"/>
      <point x="151" y="476"/>
      <point x="116" y="476" type="qcurve" smooth="yes"/>
      <point x="81" y="476"/>
      <point x="32" y="526"/>
    </contour>
  </outline>
</glyph>
<glyph name="semicolon" format="2">
  <advance width="219"/>
  <unicode hex="003B"/>
  <outline>
    <contour>
      <point x="193" y="240" type="line"/>
      <point x="193" y="21" type="line"/>
      <point x="44" y="21" type="line"/>
      <point x="44" y="240" type="line"/>
    </contour>
    <contour>
      <point x="32" y="561" type="qcurve" smooth="yes"/>
      <point x="32" y="596"/>
      <point x="81" y="646"/>
      <point x="116" y="646" type="qcurve" smooth="yes"/>
      <point x="151" y="646"/>
      <point x="201" y="596"/>
      <point x="201" y="561" type="qcurve" smooth="yes"/>
      <point x="201" y="526"/>
      <point x="151" y="476"/>
      <point x="116" y="476" type="qcurve" smooth="yes"/>
      <point x="81" y="476"/>
      <point x="32" y="526"/>
    </contour>
  </outline>
</glyph>
<glyph name="less" format="2">
  <advance width="513"/>
  <unicode hex="003C"/>
  <outline>
    <contour>
      <point x="32" y="471" type="line"/>
      <point x="268" y="684" type="line"/>
      <point x="475" y="684" type="line"/>
      <point x="136" y="378" type="line"/>
      <point x="472" y="76" type="line"/>
      <point x="264" y="76" type="line"/>
      <point x="32" y="285" type="line"/>
    </contour>
  </outline>
</glyph>
<glyph name="equal" format="2">
  <advance width="478"/>
  <unicode hex="003D"/>
  <outline>
    <contour>
      <point x="439" y="542" type="line"/>
      <point x="439" y="394" type="line"/>
      <point x="37" y="394" type="line"/>
      <point x="37" y="542" type="line"/>
    </contour>
    <contour>
      <point x="439" y="338" type="line"/>
      <point x="439" y="190" type="line"/>
      <point x="37" y="190" type="line"/>
      <point x="37" y="338" type="line"/>
    </contour>
  </outline>
</glyph>
<glyph name="greater" format="2">
  <advance width="513"/>
  <unicode hex="003E"/>
  <outline>
    <contour>
      <point x="475" y="289" type="line"/>
      <point x="239" y="76" type="line"/>
      <point x="32" y="76" type="line"/>
      <point x="371" y="382" type="line"/>
      <point x="35" y="684" type="line"/>
      <point x="243" y="684" type="line"/>
      <point x="475" y="475" type="line"/>
    </contour>
  </outline>
</glyph>
<glyph name="question" format="2">
  <advance width="456"/>
  <unicode hex="003F"/>
  <outline>
    <contour>
      <point x="281" y="148" type="line"/>
      <point x="281" y="0" type="line"/>
      <point x="132" y="0" type="line"/>
      <point x="132" y="148" type="line"/>
    </contour>
    <contour>
      <point x="73" y="505" type="line" smooth="yes"/>
      <point x="73" y="535"/>
      <point x="43" y="535" type="qcurve" smooth="yes"/>
      <point x="36" y="535"/>
      <point x="29" y="538" type="qcurve" smooth="yes"/>
      <point x="23" y="541"/>
      <point x="26" y="547" type="qcurve"/>
      <point x="46" y="601"/>
      <point x="129" y="669"/>
      <point x="230" y="690"/>
      <point x="333" y="660"/>
      <point x="373" y="618" type="qcurve" smooth="yes"/>
      <point x="413" y="576"/>
      <point x="436" y="471"/>
      <point x="409" y="372"/>
      <point x="336" y="292"/>
      <point x="281" y="276" type="qcurve"/>
      <point x="281" y="208" type="line"/>
      <point x="132" y="208" type="line"/>
      <point x="132" y="327" type="line" smooth="yes"/>
      <point x="132" y="364"/>
      <point x="184" y="416"/>
      <point x="221" y="416" type="qcurve" smooth="yes"/>
      <point x="248" y="416"/>
      <point x="281" y="452"/>
      <point x="281" y="475" type="qcurve" smooth="yes"/>
      <point x="281" y="480"/>
      <point x="279" y="488" type="qcurve"/>
      <point x="279" y="491"/>
      <point x="278" y="493" type="qcurve"/>
      <point x="278" y="495"/>
      <point x="277" y="496"/>
      <point x="277" y="498" type="qcurve"/>
      <point x="276" y="499"/>
      <point x="274" y="503" type="qcurve" smooth="yes"/>
      <point x="273" y="505"/>
      <point x="272" y="506"/>
      <point x="271" y="508" type="qcurve" smooth="yes"/>
      <point x="267" y="515"/>
      <point x="263" y="517" type="qcurve"/>
      <point x="252" y="528"/>
      <point x="244" y="530" type="qcurve"/>
      <point x="241" y="532"/>
      <point x="233" y="534" type="qcurve" smooth="yes"/>
      <point x="221" y="537"/>
      <point x="207" y="533" type="qcurve"/>
      <point x="205" y="533"/>
      <point x="201" y="531" type="qcurve"/>
      <point x="199" y="531" type="line"/>
      <point x="179" y="524"/>
      <point x="164" y="500"/>
      <point x="162" y="485" type="qcurve"/>
      <point x="162" y="476" type="line"/>
      <point x="162" y="475" type="line"/>
      <point x="161" y="468"/>
      <point x="162" y="454"/>
      <point x="162" y="446" type="qcurve"/>
      <point x="73" y="446" type="line"/>
    </contour>
  </outline>
</glyph>
<glyph name="at" format="2">
  <advance width="807"/>
  <unicode hex="0040"/>
  <outline>
    <contour>
      <point x="719" y="44" type="line"/>
      <point x="697" y="10"/>
      <point x="670" y="-16" type="qcurve" smooth="yes"/>
      <point x="618" y="-68"/>
      <point x="549" y="-97" type="qcurve" smooth="yes"/>
      <point x="514" y="-112"/>
      <point x="440" y="-128"/>
      <point x="401" y="-128" type="qcurve" smooth="yes"/>
      <point x="326" y="-128"/>
      <point x="253" y="-97" type="qcurve" smooth="yes"/>
      <point x="185" y="-69"/>
      <point x="133" y="-16" type="qcurve" smooth="yes"/>
      <point x="78" y="39"/>
      <point x="50" y="104" type="qcurve"/>
      <point x="21" y="177"/>
      <point x="21" y="253" type="qcurve" smooth="yes"/>
      <point x="21" y="331"/>
      <point x="50" y="401" type="qcurve" smooth="yes"/>
      <point x="78" y="468"/>
      <point x="133" y="522" type="qcurve" smooth="yes"/>
      <point x="159" y="548"/>
      <point x="219" y="590"/>
      <point x="253" y="604" type="qcurve" smooth="yes"/>
      <point x="288" y="619"/>
      <point x="363" y="633"/>
      <point x="401" y="633" type="qcurve" smooth="yes"/>
      <point x="481" y="633"/>
      <point x="549" y="604" type="qcurve" smooth="yes"/>
      <point x="583" y="590"/>
      <point x="644" y="548"/>
      <point x="670" y="522" type="qcurve" smooth="yes"/>
      <point x="723" y="469"/>
      <point x="751" y="401" type="qcurve"/>
      <point x="782" y="330"/>
      <point x="782" y="253" type="qcurve" smooth="yes"/>
      <point x="782" y="214"/>
      <point x="766" y="140"/>
      <point x="751" y="104" type="qcurve" smooth="yes"/>
      <point x="749" y="100"/>
      <point x="745" y="89"/>
      <point x="743" y="84" type="qcurve"/>
      <point x="670" y="84" type="line"/>
      <point x="567" y="84" type="line"/>
      <point x="521" y="84" type="line"/>
      <point x="479" y="84" type="line"/>
      <point x="468" y="84" type="line"/>
      <point x="468" y="100" type="line"/>
      <point x="434" y="84"/>
      <point x="397" y="84" type="qcurve" smooth="yes"/>
      <point x="362" y="84"/>
      <point x="301" y="111"/>
      <point x="255" y="157"/>
      <point x="228" y="218"/>
      <point x="228" y="253" type="qcurve" smooth="yes"/>
      <point x="228" y="288"/>
      <point x="255" y="349"/>
      <point x="301" y="395"/>
      <point x="362" y="422"/>
      <point x="397" y="422" type="qcurve" smooth="yes"/>
      <point x="416" y="422"/>
      <point x="452" y="414"/>
      <point x="468" y="407" type="qcurve"/>
      <point x="468" y="422" type="line"/>
      <point x="567" y="422" type="line"/>
      <point x="567" y="146" type="line"/>
      <point x="700" y="146" type="line"/>
      <point x="719" y="198"/>
      <point x="719" y="253" type="qcurve" smooth="yes"/>
      <point x="719" y="319"/>
      <point x="669" y="434"/>
      <point x="583" y="521"/>
      <point x="467" y="571"/>
      <point x="401" y="571" type="qcurve" smooth="yes"/>
      <point x="335" y="571"/>
      <point x="220" y="521"/>
      <point x="133" y="434"/>
      <point x="83" y="319"/>
      <point x="83" y="253" type="qcurve" smooth="yes"/>
      <point x="83" y="187"/>
      <point x="133" y="71"/>
      <point x="220" y="-15"/>
      <point x="335" y="-65"/>
      <point x="401" y="-65" type="qcurve" smooth="yes"/>
      <point x="473" y="-65"/>
      <point x="595" y="-7"/>
      <point x="640" y="44" type="qcurve"/>
    </contour>
    <contour>
      <point x="468" y="281" type="line"/>
      <point x="459" y="303"/>
      <point x="421" y="329"/>
      <point x="397" y="329" type="qcurve" smooth="yes"/>
      <point x="366" y="329"/>
      <point x="322" y="284"/>
      <point x="322" y="253" type="qcurve" smooth="yes"/>
      <point x="322" y="222"/>
      <point x="366" y="176"/>
      <point x="397" y="176" type="qcurve" smooth="yes"/>
      <point x="421" y="176"/>
      <point x="459" y="204"/>
      <point x="468" y="225" type="qcurve"/>
    </contour>
  </outline>
</glyph>
<glyph name="B" format="2">
  <advance width="474"/>
  <unicode hex="0042"/>
  <outline>
    <contour>
      <point x="91" y="445" type="qcurve" smooth="yes"/>
      <point x="91" y="505" type="line" smooth="yes"/>
      <point x="91" y="535"/>
      <point x="61" y="535" type="qcurve" smooth="yes"/>
      <point x="32" y="535"/>
      <point x="32" y="564" type="qcurve" smooth="yes"/>
      <point x="32" y="683" type="line"/>
      <point x="240" y="683" type="line" smooth="yes"/>
      <point x="283" y="683"/>
      <point x="359" y="650"/>
      <point x="415" y="594"/>
      <point x="448" y="518"/>
      <point x="448" y="475" type="qcurve" smooth="yes"/>
      <point x="448" y="435"/>
      <point x="425" y="372"/>
      <point x="399" y="341" type="qcurve"/>
      <point x="425" y="311"/>
      <point x="448" y="248"/>
      <point x="448" y="208" type="qcurve" smooth="yes"/>
      <point x="448" y="165"/>
      <point x="415" y="89"/>
      <point x="359" y="33"/>
      <point x="283" y="0"/>
      <point x="240" y="0" type="qcurve" smooth="yes"/>
      <point x="32" y="0" type="line"/>
      <point x="32" y="208" type="line"/>
      <point x="32" y="386" type="line" smooth="yes"/>
      <point x="32" y="416"/>
      <point x="61" y="416" type="qcurve" smooth="yes"/>
      <point x="91" y="416"/>
    </contour>
    <contour>
      <point x="180" y="208" type="line"/>
      <point x="180" y="148" type="line"/>
      <point x="240" y="148" type="line" smooth="yes"/>
      <point x="265" y="148"/>
      <point x="299" y="183"/>
      <point x="299" y="208" type="qcurve" smooth="yes"/>
      <point x="299" y="233"/>
      <point x="265" y="267"/>
      <point x="240" y="267" type="qcurve" smooth="yes"/>
      <point x="180" y="267" type="line"/>
    </contour>
    <contour>
      <point x="240" y="416" type="line" smooth="yes"/>
      <point x="265" y="416"/>
      <point x="299" y="451"/>
      <point x="299" y="475" type="qcurve" smooth="yes"/>
      <point x="299" y="500"/>
      <point x="265" y="535"/>
      <point x="240" y="535" type="qcurve" smooth="yes"/>
      <point x="180" y="535" type="line"/>
      <point x="180" y="475" type="line"/>
      <point x="180" y="416" type="line"/>
    </contour>
  </outline>
</glyph>
<glyph name="C" format="2">
  <advance width="469"/>
  <unicode hex="0043"/>
  <outline>
    <contour>
      <point x="88" y="447" type="qcurve" smooth="yes"/>
      <point x="88" y="506" type="line" smooth="yes"/>
      <point x="88" y="536"/>
      <point x="58" y="536" type="qcurve" smooth="yes"/>
      <point x="35" y="536"/>
      <point x="45" y="557" type="qcurve"/>
      <point x="60" y="593"/>
      <point x="113" y="648"/>
      <point x="179" y="680"/>
      <point x="254" y="687"/>
      <point x="292" y="677" type="qcurve" smooth="yes"/>
      <point x="334" y="665"/>
      <point x="393" y="621"/>
      <point x="429" y="560"/>
      <point x="445" y="487"/>
      <point x="445" y="447" type="qcurve"/>
      <point x="296" y="447" type="line"/>
      <point x="296" y="470"/>
      <point x="293" y="509"/>
      <point x="270" y="526" type="qcurve" smooth="yes"/>
      <point x="251" y="539"/>
      <point x="206" y="532"/>
      <point x="191" y="515" type="qcurve" smooth="yes"/>
      <point x="184" y="507"/>
      <point x="178" y="457"/>
      <point x="176" y="401"/>
      <point x="177" y="351"/>
      <point x="177" y="343" type="qcurve" smooth="yes"/>
      <point x="177" y="255" type="line" smooth="yes"/>
      <point x="177" y="233"/>
      <point x="174" y="191"/>
      <point x="191" y="171" type="qcurve" smooth="yes"/>
      <point x="206" y="153"/>
      <point x="251" y="147"/>
      <point x="270" y="160" type="qcurve" smooth="yes"/>
      <point x="293" y="176"/>
      <point x="296" y="216"/>
      <point x="296" y="239" type="qcurve"/>
      <point x="445" y="239" type="line"/>
      <point x="445" y="209"/>
      <point x="439" y="157"/>
      <point x="423" y="110"/>
      <point x="392" y="67"/>
      <point x="367" y="47" type="qcurve" smooth="yes"/>
      <point x="324" y="12"/>
      <point x="216" y="-6"/>
      <point x="164" y="14" type="qcurve" smooth="yes"/>
      <point x="112" y="34"/>
      <point x="42" y="118"/>
      <point x="32" y="172" type="qcurve" smooth="yes"/>
      <point x="27" y="199"/>
      <point x="28" y="253"/>
      <point x="28" y="280" type="qcurve" smooth="yes"/>
      <point x="28" y="387" type="line" smooth="yes"/>
      <point x="28" y="417"/>
      <point x="58" y="417" type="qcurve" smooth="yes"/>
      <point x="88" y="417"/>
    </contour>
  </outline>
</glyph>
<glyph name="D" format="2">
  <advance width="486"/>
  <unicode hex="0044"/>
  <outline>
    <contour>
      <point x="246" y="149" type="line" smooth="yes"/>
      <point x="277" y="149"/>
      <point x="295" y="174" type="qcurve" smooth="yes"/>
      <point x="305" y="187"/>
      <point x="306" y="214"/>
      <point x="306" y="228" type="qcurve" smooth="yes"/>
      <point x="306" y="342" type="line"/>
      <point x="306" y="455" type="line" smooth="yes"/>
      <point x="306" y="470"/>
      <point x="305" y="496"/>
      <point x="295" y="510" type="qcurve" smooth="yes"/>
      <point x="277" y="535"/>
      <point x="246" y="535" type="qcurve" smooth="yes"/>
      <point x="187" y="535" type="line"/>
      <point x="187" y="476" type="line"/>
      <point x="187" y="446" type="line"/>
      <point x="187" y="238" type="line"/>
      <point x="187" y="208" type="line"/>
      <point x="187" y="149" type="line"/>
    </contour>
    <contour>
      <point x="246" y="684" type="line" smooth="yes"/>
      <point x="306" y="684"/>
      <point x="406" y="622"/>
      <point x="433" y="569" type="qcurve" smooth="yes"/>
      <point x="447" y="540"/>
      <point x="460" y="484"/>
      <point x="464" y="427"/>
      <point x="463" y="371"/>
      <point x="463" y="342" type="qcurve" smooth="yes"/>
      <point x="463" y="313"/>
      <point x="464" y="257"/>
      <point x="460" y="200"/>
      <point x="447" y="144"/>
      <point x="433" y="115" type="qcurve" smooth="yes"/>
      <point x="406" y="61"/>
      <point x="306" y="0"/>
      <point x="246" y="0" type="qcurve" smooth="yes"/>
      <point x="187" y="0" type="line"/>
      <point x="38" y="0" type="line"/>
      <point x="38" y="208" type="line"/>
      <point x="38" y="238" type="line"/>
      <point x="38" y="449" type="line" smooth="yes"/>
      <point x="38" y="478"/>
      <point x="68" y="478" type="qcurve" smooth="yes"/>
      <point x="98" y="478"/>
      <point x="98" y="508" type="qcurve" smooth="yes"/>
      <point x="98" y="567" type="line" smooth="yes"/>
      <point x="98" y="597"/>
      <point x="68" y="597" type="qcurve" smooth="yes"/>
      <point x="38" y="597"/>
      <point x="38" y="627" type="qcurve" smooth="yes"/>
      <point x="38" y="684" type="line"/>
      <point x="187" y="684" type="line"/>
    </contour>
  </outline>
</glyph>
<glyph name="F" format="2">
  <advance width="423"/>
  <unicode hex="0046"/>
  <outline>
    <contour>
      <point x="406" y="684" type="line"/>
      <point x="406" y="535" type="line"/>
      <point x="245" y="535" type="line" smooth="yes"/>
      <point x="220" y="535"/>
      <point x="194" y="515"/>
      <point x="187" y="492" type="qcurve" smooth="yes"/>
      <point x="182" y="473"/>
      <point x="185" y="436"/>
      <point x="185" y="416" type="qcurve"/>
      <point x="374" y="416" type="line"/>
      <point x="374" y="387" type="line"/>
      <point x="374" y="268" type="line"/>
      <point x="185" y="268" type="line"/>
      <point x="185" y="208" type="line"/>
      <point x="185" y="0" type="line"/>
      <point x="36" y="0" type="line"/>
      <point x="36" y="208" type="line"/>
      <point x="36" y="387" type="line" smooth="yes"/>
      <point x="36" y="416"/>
      <point x="66" y="416" type="qcurve" smooth="yes"/>
      <point x="96" y="416"/>
      <point x="96" y="446" type="qcurve" smooth="yes"/>
      <point x="96" y="505" type="line" smooth="yes"/>
      <point x="96" y="535"/>
      <point x="66" y="535" type="qcurve" smooth="yes"/>
      <point x="44" y="535"/>
      <point x="52" y="556" type="qcurve"/>
      <point x="77" y="614"/>
      <point x="181" y="684"/>
      <point x="245" y="684" type="qcurve" smooth="yes"/>
    </contour>
  </outline>
</glyph>
<glyph name="J" format="2">
  <advance width="470"/>
  <unicode hex="004A"/>
  <outline>
    <contour>
      <point x="347" y="446" type="qcurve" smooth="yes"/>
      <point x="347" y="506" type="line" smooth="yes"/>
      <point x="347" y="535"/>
      <point x="318" y="535" type="qcurve" smooth="yes"/>
      <point x="288" y="535"/>
      <point x="288" y="565" type="qcurve" smooth="yes"/>
      <point x="288" y="684" type="line"/>
      <point x="436" y="684" type="line"/>
      <point x="436" y="476" type="line"/>
      <point x="436" y="387" type="line"/>
      <point x="436" y="238" type="line" smooth="yes"/>
      <point x="436" y="205"/>
      <point x="429" y="147"/>
      <point x="409" y="96"/>
      <point x="371" y="52"/>
      <point x="341" y="33" type="qcurve" smooth="yes"/>
      <point x="289" y="0"/>
      <point x="167" y="0"/>
      <point x="116" y="33" type="qcurve" smooth="yes"/>
      <point x="85" y="52"/>
      <point x="48" y="96"/>
      <point x="27" y="147"/>
      <point x="20" y="205"/>
      <point x="20" y="238" type="qcurve"/>
      <point x="169" y="238" type="line"/>
      <point x="169" y="225"/>
      <point x="168" y="200"/>
      <point x="174" y="179"/>
      <point x="189" y="161"/>
      <point x="205" y="154" type="qcurve" smooth="yes"/>
      <point x="229" y="143"/>
      <point x="277" y="164"/>
      <point x="285" y="189" type="qcurve" smooth="yes"/>
      <point x="293" y="215"/>
      <point x="288" y="263"/>
      <point x="288" y="288" type="qcurve" smooth="yes"/>
      <point x="288" y="387" type="line" smooth="yes"/>
      <point x="288" y="416"/>
      <point x="318" y="416" type="qcurve" smooth="yes"/>
      <point x="347" y="416"/>
    </contour>
  </outline>
</glyph>
<glyph name="P" format="2">
  <advance width="464"/>
  <unicode hex="0050"/>
  <outline>
    <contour>
      <point x="243" y="684" type="line" smooth="yes"/>
      <point x="286" y="684"/>
      <point x="362" y="651"/>
      <point x="418" y="595"/>
      <point x="451" y="519"/>
      <point x="451" y="476" type="qcurve" smooth="yes"/>
      <point x="451" y="433"/>
      <point x="418" y="357"/>
      <point x="362" y="301"/>
      <point x="286" y="268"/>
      <point x="243" y="268" type="qcurve" smooth="yes"/>
      <point x="184" y="268" type="line"/>
      <point x="184" y="208" type="line"/>
      <point x="184" y="149" type="line"/>
      <point x="184" y="0" type="line"/>
      <point x="35" y="0" type="line"/>
      <point x="35" y="208" type="line"/>
      <point x="35" y="387" type="line" smooth="yes"/>
      <point x="35" y="417"/>
      <point x="65" y="417" type="qcurve" smooth="yes"/>
      <point x="94" y="417"/>
      <point x="94" y="446" type="qcurve" smooth="yes"/>
      <point x="94" y="506" type="line" smooth="yes"/>
      <point x="94" y="535"/>
      <point x="65" y="535" type="qcurve" smooth="yes"/>
      <point x="35" y="535"/>
      <point x="35" y="565" type="qcurve" smooth="yes"/>
      <point x="35" y="684" type="line"/>
    </contour>
    <contour>
      <point x="303" y="476" type="qcurve" smooth="yes"/>
      <point x="303" y="501"/>
      <point x="268" y="535"/>
      <point x="243" y="535" type="qcurve" smooth="yes"/>
      <point x="184" y="535" type="line"/>
      <point x="184" y="476" type="line"/>
      <point x="184" y="417" type="line"/>
      <point x="243" y="417" type="line" smooth="yes"/>
      <point x="268" y="417"/>
      <point x="303" y="451"/>
    </contour>
  </outline>
</glyph>
<glyph name="Q" format="2">
  <advance width="471"/>
  <unicode hex="0051"/>
  <outline>
    <contour>
      <point x="442" y="506" type="qcurve" smooth="yes"/>
      <point x="447" y="472"/>
      <point x="443" y="405"/>
      <point x="443" y="370" type="qcurve" smooth="yes"/>
      <point x="443" y="234" type="line" smooth="yes"/>
      <point x="443" y="161"/>
      <point x="382" y="46"/>
      <point x="310" y="18" type="qcurve"/>
      <point x="310" y="-55" type="line"/>
      <point x="161" y="-55" type="line"/>
      <point x="161" y="18" type="line"/>
      <point x="131" y="30"/>
      <point x="81" y="69"/>
      <point x="46" y="120"/>
      <point x="27" y="180"/>
      <point x="27" y="212" type="qcurve" smooth="yes"/>
      <point x="27" y="391" type="line" smooth="yes"/>
      <point x="27" y="420"/>
      <point x="57" y="420" type="qcurve" smooth="yes"/>
      <point x="87" y="420"/>
      <point x="87" y="450" type="qcurve" smooth="yes"/>
      <point x="87" y="510" type="line" smooth="yes"/>
      <point x="87" y="539"/>
      <point x="57" y="539" type="qcurve" smooth="yes"/>
      <point x="35" y="539"/>
      <point x="43" y="560" type="qcurve" smooth="yes"/>
      <point x="63" y="609"/>
      <point x="135" y="669"/>
      <point x="219" y="692"/>
      <point x="307" y="680"/>
      <point x="382" y="636"/>
      <point x="435" y="559"/>
    </contour>
    <contour>
      <point x="255" y="156" type="qcurve" smooth="yes"/>
      <point x="274" y="163"/>
      <point x="291" y="183"/>
      <point x="297" y="209"/>
      <point x="295" y="238"/>
      <point x="295" y="253" type="qcurve" smooth="yes"/>
      <point x="295" y="480" type="line" smooth="yes"/>
      <point x="295" y="495"/>
      <point x="281" y="521"/>
      <point x="258" y="537"/>
      <point x="230" y="541"/>
      <point x="215" y="536" type="qcurve" smooth="yes"/>
      <point x="196" y="529"/>
      <point x="179" y="509"/>
      <point x="174" y="483"/>
      <point x="176" y="455"/>
      <point x="176" y="440" type="qcurve" smooth="yes"/>
      <point x="176" y="212" type="line" smooth="yes"/>
      <point x="176" y="197"/>
      <point x="190" y="172"/>
      <point x="212" y="156"/>
      <point x="240" y="151"/>
    </contour>
  </outline>
</glyph>
<glyph name="U" format="2">
  <advance width="475"/>
  <unicode hex="0055"/>
  <outline>
    <contour>
      <point x="88" y="447" type="qcurve" smooth="yes"/>
      <point x="88" y="506" type="line" smooth="yes"/>
      <point x="88" y="536"/>
      <point x="59" y="536" type="qcurve" smooth="yes"/>
      <point x="29" y="536"/>
      <point x="29" y="566" type="qcurve" smooth="yes"/>
      <point x="29" y="685" type="line"/>
      <point x="178" y="685" type="line"/>
      <point x="178" y="400" type="line"/>
      <point x="178" y="258" type="line" smooth="yes"/>
      <point x="178" y="240"/>
      <point x="174" y="206"/>
      <point x="181" y="188" type="qcurve" smooth="yes"/>
      <point x="189" y="167"/>
      <point x="214" y="149"/>
      <point x="237" y="149" type="qcurve" smooth="yes"/>
      <point x="260" y="149"/>
      <point x="285" y="167"/>
      <point x="293" y="188" type="qcurve" smooth="yes"/>
      <point x="300" y="206"/>
      <point x="296" y="240"/>
      <point x="296" y="258" type="qcurve" smooth="yes"/>
      <point x="296" y="400" type="line"/>
      <point x="296" y="685" type="line"/>
      <point x="445" y="685" type="line"/>
      <point x="445" y="358" type="line" smooth="yes"/>
      <point x="445" y="320"/>
      <point x="449" y="239"/>
      <point x="440" y="158"/>
      <point x="409" y="83"/>
      <point x="373" y="52" type="qcurve" smooth="yes"/>
      <point x="341" y="23"/>
      <point x="262" y="-2"/>
      <point x="183" y="4"/>
      <point x="108" y="40"/>
      <point x="80" y="73" type="qcurve" smooth="yes"/>
      <point x="54" y="103"/>
      <point x="32" y="185"/>
      <point x="26" y="272"/>
      <point x="29" y="355"/>
      <point x="29" y="387" type="qcurve" smooth="yes"/>
      <point x="29" y="417"/>
      <point x="59" y="417" type="qcurve" smooth="yes"/>
      <point x="88" y="417"/>
    </contour>
  </outline>
</glyph>
<glyph name="X" format="2">
  <advance width="473"/>
  <unicode hex="0058"/>
  <outline>
    <contour>
      <point x="89" y="446" type="qcurve" smooth="yes"/>
      <point x="89" y="506" type="line" smooth="yes"/>
      <point x="89" y="535"/>
      <point x="59" y="535" type="qcurve" smooth="yes"/>
      <point x="29" y="535"/>
      <point x="29" y="565" type="qcurve" smooth="yes"/>
      <point x="29" y="684" type="line"/>
      <point x="178" y="684" type="line"/>
      <point x="178" y="518" type="line" smooth="yes"/>
      <point x="178" y="499"/>
      <point x="174" y="454"/>
      <point x="182" y="414"/>
      <point x="208" y="387"/>
      <point x="237" y="387" type="qcurve" smooth="yes"/>
      <point x="267" y="387"/>
      <point x="293" y="414"/>
      <point x="300" y="454"/>
      <point x="297" y="499"/>
      <point x="297" y="518" type="qcurve" smooth="yes"/>
      <point x="297" y="684" type="line"/>
      <point x="446" y="684" type="line"/>
      <point x="446" y="492" type="line" smooth="yes"/>
      <point x="446" y="467"/>
      <point x="444" y="421"/>
      <point x="434" y="376"/>
      <point x="415" y="333"/>
      <point x="397" y="312" type="qcurve"/>
      <point x="422" y="283"/>
      <point x="443" y="201"/>
      <point x="449" y="114"/>
      <point x="446" y="31"/>
      <point x="446" y="0" type="qcurve"/>
      <point x="312" y="0" type="line"/>
      <point x="297" y="0" type="line"/>
      <point x="297" y="136" type="line" smooth="yes"/>
      <point x="297" y="153"/>
      <point x="299" y="186"/>
      <point x="291" y="203" type="qcurve" smooth="yes"/>
      <point x="283" y="222"/>
      <point x="258" y="238"/>
      <point x="237" y="238" type="qcurve" smooth="yes"/>
      <point x="217" y="238"/>
      <point x="192" y="222"/>
      <point x="183" y="203" type="qcurve" smooth="yes"/>
      <point x="175" y="186"/>
      <point x="178" y="153"/>
      <point x="178" y="136" type="qcurve" smooth="yes"/>
      <point x="178" y="0" type="line"/>
      <point x="163" y="0" type="line"/>
      <point x="29" y="0" type="line"/>
      <point x="29" y="31"/>
      <point x="26" y="114"/>
      <point x="32" y="201"/>
      <point x="53" y="283"/>
      <point x="78" y="312" type="qcurve"/>
      <point x="62" y="331"/>
      <point x="42" y="372"/>
      <point x="36" y="395" type="qcurve" smooth="yes"/>
      <point x="33" y="405"/>
      <point x="41" y="410" type="qcurve"/>
      <point x="48" y="416"/>
      <point x="59" y="416" type="qcurve" smooth="yes"/>
      <point x="89" y="416"/>
    </contour>
  </outline>
</glyph>
<glyph name="bracketleft" format="2">
  <advance width="351"/>
  <unicode hex="005B"/>
  <outline>
    <contour>
      <point x="38" y="766" type="line"/>
      <point x="186" y="766" type="line"/>
      <point x="186" y="-81" type="line"/>
      <point x="38" y="-81" type="line"/>
    </contour>
    <contour>
      <point x="38" y="670" type="line"/>
      <point x="38" y="818" type="line"/>
      <point x="327" y="818" type="line"/>
      <point x="327" y="670" type="line"/>
    </contour>
    <contour>
      <point x="38" y="-113" type="line"/>
      <point x="38" y="35" type="line"/>
      <point x="327" y="35" type="line"/>
      <point x="327" y="-113" type="line"/>
    </contour>
  </outline>
</glyph>
<glyph name="backslash" format="2">
  <advance width="537"/>
  <unicode hex="005C"/>
  <outline>
    <contour>
      <point x="518" y="-53" type="line"/>
      <point x="370" y="-53" type="line"/>
      <point x="112" y="731" type="line"/>
      <point x="262" y="731" type="line"/>
    </contour>
  </outline>
</glyph>
<glyph name="bracketright" format="2">
  <advance width="351"/>
  <unicode hex="005D"/>
  <outline>
    <contour>
      <point x="327" y="-61" type="line"/>
      <point x="179" y="-61" type="line"/>
      <point x="179" y="786" type="line"/>
      <point x="327" y="786" type="line"/>
    </contour>
    <contour>
      <point x="327" y="35" type="line"/>
      <point x="327" y="-113" type="line"/>
      <point x="38" y="-113" type="line"/>
      <point x="38" y="35" type="line"/>
    </contour>
    <contour>
      <point x="327" y="818" type="line"/>
      <point x="327" y="670" type="line"/>
      <point x="38" y="670" type="line"/>
      <point x="38" y="818" type="line"/>
    </contour>
  </outline>
</glyph>
<glyph name="asciicircum" format="2">
  <advance width="653"/>
  <unicode hex="005E"/>
  <outline>
    <contour>
      <point x="416" y="684" type="line"/>
      <point x="629" y="448" type="line"/>
      <point x="629" y="241" type="line"/>
      <point x="323" y="580" type="line"/>
      <point x="21" y="244" type="line"/>
      <point x="21" y="452" type="line"/>
      <point x="230" y="684" type="line"/>
    </contour>
  </outline>
</glyph>
<glyph name="underscore" format="2">
  <advance width="662"/>
  <unicode hex="005F"/>
  <outline>
    <contour>
      <point x="640" y="-25" type="line"/>
      <point x="640" y="-173" type="line"/>
      <point x="41" y="-173" type="line"/>
      <point x="41" y="-25" type="line"/>
    </contour>
  </outline>
</glyph>
<glyph name="grave" format="2">
  <advance width="453"/>
  <unicode hex="0060"/>
  <outline>
    <contour>
      <point x="258" y="854" type="line"/>
      <point x="317" y="724" type="line"/>
      <point x="216" y="724" type="line"/>
      <point x="147" y="854" type="line"/>
    </contour>
  </outline>
</glyph>
<glyph name="a" format="2">
  <advance width="481"/>
  <unicode hex="0061"/>
  <outline>
    <contour>
      <point x="447" y="208" type="line"/>
      <point x="447" y="0" type="line"/>
      <point x="298" y="0" type="line"/>
      <point x="298" y="149" type="line"/>
      <point x="180" y="149" type="line"/>
      <point x="180" y="0" type="line"/>
      <point x="31" y="0" type="line"/>
      <point x="31" y="208" type="line"/>
      <point x="31" y="387" type="line" smooth="yes"/>
      <point x="31" y="416"/>
      <point x="61" y="416" type="qcurve" smooth="yes"/>
      <point x="91" y="416"/>
      <point x="91" y="446" type="qcurve" smooth="yes"/>
      <point x="91" y="506" type="line" smooth="yes"/>
      <point x="91" y="536"/>
      <point x="61" y="536" type="qcurve" smooth="yes"/>
      <point x="38" y="536"/>
      <point x="47" y="556" type="qcurve" smooth="yes"/>
      <point x="69" y="609"/>
      <point x="154" y="673"/>
      <point x="254" y="690"/>
      <point x="356" y="658"/>
      <point x="394" y="615" type="qcurve" smooth="yes"/>
      <point x="414" y="592"/>
      <point x="436" y="545"/>
      <point x="446" y="497"/>
      <point x="447" y="445"/>
      <point x="447" y="418" type="qcurve" smooth="yes"/>
      <point x="447" y="238" type="line"/>
    </contour>
    <contour>
      <point x="298" y="433" type="line" smooth="yes"/>
      <point x="298" y="450"/>
      <point x="301" y="484"/>
      <point x="293" y="501" type="qcurve" smooth="yes"/>
      <point x="284" y="520"/>
      <point x="260" y="536"/>
      <point x="239" y="536" type="qcurve" smooth="yes"/>
      <point x="218" y="536"/>
      <point x="194" y="520"/>
      <point x="185" y="501" type="qcurve" smooth="yes"/>
      <point x="177" y="484"/>
      <point x="180" y="450"/>
      <point x="180" y="433" type="qcurve" smooth="yes"/>
      <point x="180" y="297" type="line"/>
      <point x="298" y="297" type="line"/>
    </contour>
  </outline>
</glyph>
<glyph name="e" format="2">
  <advance width="457"/>
  <unicode hex="0065"/>
  <outline>
    <contour>
      <point x="423" y="149" type="line"/>
      <point x="423" y="0" type="line"/>
      <point x="238" y="0" type="line" smooth="yes"/>
      <point x="172" y="0"/>
      <point x="66" y="74"/>
      <point x="43" y="136" type="qcurve" smooth="yes"/>
      <point x="37" y="153"/>
      <point x="31" y="216"/>
      <point x="30" y="252" type="qcurve"/>
      <point x="30" y="387" type="line" smooth="yes"/>
      <point x="30" y="417"/>
      <point x="60" y="417" type="qcurve" smooth="yes"/>
      <point x="89" y="417"/>
      <point x="89" y="446" type="qcurve" smooth="yes"/>
      <point x="89" y="506" type="line" smooth="yes"/>
      <point x="89" y="536"/>
      <point x="60" y="536" type="qcurve" smooth="yes"/>
      <point x="38" y="536"/>
      <point x="46" y="556" type="qcurve" smooth="yes"/>
      <point x="70" y="615"/>
      <point x="175" y="684"/>
      <point x="238" y="684" type="qcurve" smooth="yes"/>
      <point x="423" y="684" type="line"/>
      <point x="423" y="565" type="line"/>
      <point x="423" y="536" type="line"/>
      <point x="238" y="536" type="line" smooth="yes"/>
      <point x="214" y="536"/>
      <point x="188" y="516"/>
      <point x="181" y="493" type="qcurve" smooth="yes"/>
      <point x="175" y="473"/>
      <point x="179" y="436"/>
      <point x="179" y="417" type="qcurve"/>
      <point x="387" y="417" type="line"/>
      <point x="387" y="387" type="line"/>
      <point x="387" y="268" type="line"/>
      <point x="179" y="268" type="line"/>
      <point x="179" y="249"/>
      <point x="175" y="212"/>
      <point x="181" y="192" type="qcurve" smooth="yes"/>
      <point x="188" y="169"/>
      <point x="214" y="149"/>
      <point x="238" y="149" type="qcurve" smooth="yes"/>
    </contour>
  </outline>
</glyph>
<glyph name="g" format="2">
  <advance width="477"/>
  <unicode hex="0067"/>
  <outline>
    <contour>
      <point x="448" y="386" type="line"/>
      <point x="448" y="237" type="line" smooth="yes"/>
      <point x="448" y="191"/>
      <point x="425" y="108"/>
      <point x="377" y="44"/>
      <point x="304" y="3"/>
      <point x="254" y="0" type="qcurve" smooth="yes"/>
      <point x="209" y="-3"/>
      <point x="128" y="26"/>
      <point x="67" y="83"/>
      <point x="31" y="162"/>
      <point x="31" y="207" type="qcurve" smooth="yes"/>
      <point x="31" y="386" type="line" smooth="yes"/>
      <point x="31" y="415"/>
      <point x="61" y="415" type="qcurve" smooth="yes"/>
      <point x="91" y="415"/>
      <point x="91" y="445" type="qcurve" smooth="yes"/>
      <point x="91" y="505" type="line" smooth="yes"/>
      <point x="91" y="534"/>
      <point x="61" y="534" type="qcurve" smooth="yes"/>
      <point x="39" y="534"/>
      <point x="47" y="555" type="qcurve" smooth="yes"/>
      <point x="62" y="591"/>
      <point x="115" y="646"/>
      <point x="182" y="678"/>
      <point x="257" y="685"/>
      <point x="295" y="675" type="qcurve" smooth="yes"/>
      <point x="337" y="663"/>
      <point x="396" y="619"/>
      <point x="432" y="558"/>
      <point x="448" y="485"/>
      <point x="448" y="445" type="qcurve"/>
      <point x="299" y="445" type="line"/>
      <point x="299" y="462"/>
      <point x="298" y="494"/>
      <point x="287" y="518"/>
      <point x="264" y="533"/>
      <point x="242" y="534" type="qcurve" smooth="yes"/>
      <point x="224" y="535"/>
      <point x="200" y="523"/>
      <point x="190" y="508" type="qcurve" smooth="yes"/>
      <point x="180" y="494"/>
      <point x="180" y="465"/>
      <point x="180" y="449" type="qcurve" smooth="yes"/>
      <point x="180" y="207" type="line" smooth="yes"/>
      <point x="180" y="192"/>
      <point x="193" y="168"/>
      <point x="214" y="152"/>
      <point x="240" y="146"/>
      <point x="254" y="150" type="qcurve"/>
      <point x="273" y="154"/>
      <point x="291" y="172"/>
      <point x="299" y="195"/>
      <point x="299" y="222"/>
      <point x="299" y="237" type="qcurve"/>
      <point x="239" y="237" type="line"/>
      <point x="239" y="386" type="line"/>
    </contour>
  </outline>
</glyph>
<glyph name="h" format="2">
  <advance width="485"/>
  <unicode hex="0068"/>
  <outline>
    <contour>
      <point x="93" y="238" type="line" smooth="yes"/>
      <point x="93" y="268"/>
      <point x="64" y="268" type="qcurve" smooth="yes"/>
      <point x="34" y="268"/>
      <point x="34" y="297" type="qcurve" smooth="yes"/>
      <point x="34" y="684" type="line"/>
      <point x="182" y="684" type="line"/>
      <point x="182" y="326" type="line"/>
      <point x="301" y="326" type="line"/>
      <point x="301" y="684" type="line"/>
      <point x="450" y="684" type="line"/>
      <point x="450" y="0" type="line"/>
      <point x="301" y="0" type="line"/>
      <point x="301" y="177" type="line"/>
      <point x="182" y="177" type="line"/>
      <point x="182" y="0" type="line"/>
      <point x="34" y="0" type="line"/>
      <point x="34" y="119" type="line" smooth="yes"/>
      <point x="34" y="149"/>
      <point x="64" y="149" type="qcurve" smooth="yes"/>
      <point x="80" y="149"/>
      <point x="93" y="162"/>
      <point x="93" y="179" type="qcurve" smooth="yes"/>
    </contour>
  </outline>
</glyph>
<glyph name="i" format="2">
  <advance width="224"/>
  <unicode hex="0069"/>
  <outline>
    <contour>
      <point x="96" y="446" type="qcurve" smooth="yes"/>
      <point x="96" y="505" type="line" smooth="yes"/>
      <point x="96" y="535"/>
      <point x="66" y="535" type="qcurve" smooth="yes"/>
      <point x="37" y="535"/>
      <point x="37" y="565" type="qcurve" smooth="yes"/>
      <point x="37" y="684" type="line"/>
      <point x="185" y="684" type="line"/>
      <point x="185" y="416" type="line"/>
      <point x="185" y="267" type="line"/>
      <point x="185" y="0" type="line"/>
      <point x="37" y="0" type="line"/>
      <point x="37" y="387" type="line" smooth="yes"/>
      <point x="37" y="416"/>
      <point x="66" y="416" type="qcurve" smooth="yes"/>
      <point x="96" y="416"/>
    </contour>
  </outline>
</glyph>
<glyph name="k" format="2">
  <advance width="490"/>
  <unicode hex="006B"/>
  <outline>
    <contour>
      <point x="184" y="416" type="line"/>
      <point x="243" y="416" type="line" smooth="yes"/>
      <point x="268" y="416"/>
      <point x="302" y="451"/>
      <point x="302" y="476" type="qcurve" smooth="yes"/>
      <point x="302" y="684" type="line"/>
      <point x="451" y="684" type="line"/>
      <point x="451" y="476" type="line" smooth="yes"/>
      <point x="451" y="436"/>
      <point x="428" y="373"/>
      <point x="402" y="342" type="qcurve"/>
      <point x="428" y="311"/>
      <point x="451" y="248"/>
      <point x="451" y="208" type="qcurve" smooth="yes"/>
      <point x="451" y="0" type="line"/>
      <point x="421" y="0" type="line"/>
      <point x="302" y="0" type="line"/>
      <point x="302" y="208" type="line" smooth="yes"/>
      <point x="302" y="233"/>
      <point x="268" y="267"/>
      <point x="243" y="267" type="qcurve" smooth="yes"/>
      <point x="184" y="267" type="line"/>
      <point x="184" y="208" type="line"/>
      <point x="184" y="149" type="line"/>
      <point x="184" y="0" type="line"/>
      <point x="35" y="0" type="line"/>
      <point x="35" y="208" type="line"/>
      <point x="35" y="387" type="line" smooth="yes"/>
      <point x="35" y="416"/>
      <point x="65" y="416" type="qcurve" smooth="yes"/>
      <point x="94" y="416"/>
      <point x="94" y="446" type="qcurve" smooth="yes"/>
      <point x="94" y="506" type="line" smooth="yes"/>
      <point x="94" y="535"/>
      <point x="65" y="535" type="qcurve" smooth="yes"/>
      <point x="35" y="535"/>
      <point x="35" y="565" type="qcurve" smooth="yes"/>
      <point x="35" y="684" type="line"/>
      <point x="184" y="684" type="line"/>
      <point x="184" y="535" type="line"/>
      <point x="184" y="476" type="line"/>
    </contour>
  </outline>
</glyph>
<glyph name="m" format="2">
  <advance width="752"/>
  <unicode hex="006D"/>
  <outline>
    <contour>
      <point x="450" y="208" type="line"/>
      <point x="450" y="0" type="line"/>
      <point x="301" y="0" type="line"/>
      <point x="301" y="285" type="line"/>
      <point x="301" y="427" type="line" smooth="yes"/>
      <point x="301" y="444"/>
      <point x="304" y="479"/>
      <point x="297" y="497" type="qcurve" smooth="yes"/>
      <point x="289" y="518"/>
      <point x="265" y="535"/>
      <point x="242" y="535" type="qcurve" smooth="yes"/>
      <point x="219" y="535"/>
      <point x="194" y="518"/>
      <point x="186" y="497" type="qcurve" smooth="yes"/>
      <point x="179" y="479"/>
      <point x="182" y="444"/>
      <point x="182" y="427" type="qcurve" smooth="yes"/>
      <point x="182" y="285" type="line"/>
      <point x="182" y="0" type="line"/>
      <point x="34" y="0" type="line"/>
      <point x="34" y="387" type="line" smooth="yes"/>
      <point x="34" y="416"/>
      <point x="63" y="416" type="qcurve" smooth="yes"/>
      <point x="93" y="416"/>
      <point x="93" y="446" type="qcurve" smooth="yes"/>
      <point x="93" y="505" type="line" smooth="yes"/>
      <point x="93" y="535"/>
      <point x="63" y="535" type="qcurve" smooth="yes"/>
      <point x="40" y="535"/>
      <point x="50" y="556" type="qcurve"/>
      <point x="70" y="604"/>
      <point x="146" y="666"/>
      <point x="238" y="689"/>
      <point x="335" y="669"/>
      <point x="375" y="635" type="qcurve"/>
      <point x="413" y="667"/>
      <point x="504" y="688"/>
      <point x="593" y="671"/>
      <point x="669" y="617"/>
      <point x="693" y="574" type="qcurve" smooth="yes"/>
      <point x="705" y="551"/>
      <point x="715" y="507"/>
      <point x="718" y="462"/>
      <point x="717" y="416"/>
      <point x="717" y="393" type="qcurve" smooth="yes"/>
      <point x="717" y="238" type="line"/>
      <point x="717" y="208" type="line"/>
      <point x="717" y="0" type="line"/>
      <point x="569" y="0" type="line"/>
      <point x="569" y="285" type="line"/>
      <point x="569" y="427" type="line" smooth="yes"/>
      <point x="569" y="444"/>
      <point x="572" y="479"/>
      <point x="565" y="497" type="qcurve" smooth="yes"/>
      <point x="557" y="518"/>
      <point x="532" y="535"/>
      <point x="509" y="535" type="qcurve" smooth="yes"/>
      <point x="486" y="535"/>
      <point x="461" y="518"/>
      <point x="453" y="497" type="qcurve" smooth="yes"/>
      <point x="447" y="479"/>
      <point x="450" y="444"/>
      <point x="450" y="427" type="qcurve" smooth="yes"/>
      <point x="450" y="238" type="line"/>
    </contour>
  </outline>
</glyph>
<glyph name="n" format="2">
  <advance width="485"/>
  <unicode hex="006E"/>
  <outline>
    <contour>
      <point x="451" y="208" type="line"/>
      <point x="451" y="0" type="line"/>
      <point x="302" y="0" type="line"/>
      <point x="302" y="284" type="line"/>
      <point x="302" y="427" type="line" smooth="yes"/>
      <point x="302" y="444"/>
      <point x="306" y="479"/>
      <point x="299" y="496" type="qcurve" smooth="yes"/>
      <point x="291" y="518"/>
      <point x="266" y="535"/>
      <point x="243" y="535" type="qcurve" smooth="yes"/>
      <point x="220" y="535"/>
      <point x="195" y="518"/>
      <point x="187" y="496" type="qcurve" smooth="yes"/>
      <point x="180" y="479"/>
      <point x="184" y="444"/>
      <point x="184" y="427" type="qcurve" smooth="yes"/>
      <point x="184" y="284" type="line"/>
      <point x="184" y="0" type="line"/>
      <point x="35" y="0" type="line"/>
      <point x="35" y="386" type="line" smooth="yes"/>
      <point x="35" y="416"/>
      <point x="65" y="416" type="qcurve" smooth="yes"/>
      <point x="95" y="416"/>
      <point x="95" y="446" type="qcurve" smooth="yes"/>
      <point x="95" y="505" type="line" smooth="yes"/>
      <point x="95" y="535"/>
      <point x="65" y="535" type="qcurve" smooth="yes"/>
      <point x="54" y="535"/>
      <point x="46" y="546"/>
      <point x="51" y="556" type="qcurve"/>
      <point x="73" y="609"/>
      <point x="158" y="672"/>
      <point x="258" y="689"/>
      <point x="360" y="657"/>
      <point x="398" y="614" type="qcurve" smooth="yes"/>
      <point x="418" y="591"/>
      <point x="440" y="545"/>
      <point x="450" y="496"/>
      <point x="451" y="445"/>
      <point x="451" y="418" type="qcurve" smooth="yes"/>
      <point x="451" y="238" type="line"/>
    </contour>
  </outline>
</glyph>
<glyph name="r" format="2">
  <advance width="482"/>
  <unicode hex="0072"/>
  <outline>
    <contour>
      <point x="185" y="208" type="line"/>
      <point x="185" y="149" type="line"/>
      <point x="185" y="0" type="line"/>
      <point x="36" y="0" type="line"/>
      <point x="36" y="208" type="line"/>
      <point x="36" y="387" type="line" smooth="yes"/>
      <point x="36" y="416"/>
      <point x="66" y="416" type="qcurve" smooth="yes"/>
      <point x="96" y="416"/>
      <point x="96" y="446" type="qcurve" smooth="yes"/>
      <point x="96" y="505" type="line" smooth="yes"/>
      <point x="96" y="535"/>
      <point x="66" y="535" type="qcurve" smooth="yes"/>
      <point x="36" y="535"/>
      <point x="36" y="565" type="qcurve" smooth="yes"/>
      <point x="36" y="684" type="line"/>
      <point x="245" y="684" type="line" smooth="yes"/>
      <point x="288" y="684"/>
      <point x="363" y="651"/>
      <point x="419" y="595"/>
      <point x="452" y="519"/>
      <point x="452" y="476" type="qcurve" smooth="yes"/>
      <point x="452" y="436"/>
      <point x="430" y="373"/>
      <point x="404" y="342" type="qcurve"/>
      <point x="430" y="311"/>
      <point x="452" y="248"/>
      <point x="452" y="208" type="qcurve" smooth="yes"/>
      <point x="452" y="0" type="line"/>
      <point x="423" y="0" type="line"/>
      <point x="304" y="0" type="line"/>
      <point x="304" y="208" type="line" smooth="yes"/>
      <point x="304" y="233"/>
      <point x="269" y="268"/>
      <point x="245" y="268" type="qcurve" smooth="yes"/>
      <point x="185" y="268" type="line"/>
    </contour>
    <contour>
      <point x="245" y="416" type="line" smooth="yes"/>
      <point x="269" y="416"/>
      <point x="304" y="451"/>
      <point x="304" y="476" type="qcurve" smooth="yes"/>
      <point x="304" y="501"/>
      <point x="269" y="535"/>
      <point x="245" y="535" type="qcurve" smooth="yes"/>
      <point x="185" y="535" type="line"/>
      <point x="185" y="476" type="line"/>
      <point x="185" y="416" type="line"/>
    </contour>
  </outline>
</glyph>
<glyph name="s" format="2">
  <advance width="480"/>
  <unicode hex="0073"/>
  <outline>
    <contour>
      <point x="237" y="0" type="qcurve" smooth="yes"/>
      <point x="194" y="0"/>
      <point x="118" y="33"/>
      <point x="62" y="90"/>
      <point x="29" y="166"/>
      <point x="29" y="209" type="qcurve" smooth="yes"/>
      <point x="29" y="238" type="line"/>
      <point x="178" y="238" type="line"/>
      <point x="178" y="209" type="line" smooth="yes"/>
      <point x="178" y="184"/>
      <point x="213" y="149"/>
      <point x="237" y="149" type="qcurve" smooth="yes"/>
      <point x="262" y="149"/>
      <point x="297" y="184"/>
      <point x="297" y="209" type="qcurve" smooth="yes"/>
      <point x="297" y="233"/>
      <point x="262" y="268"/>
      <point x="237" y="268" type="qcurve" smooth="yes"/>
      <point x="206" y="268"/>
      <point x="147" y="286"/>
      <point x="97" y="319"/>
      <point x="58" y="366"/>
      <point x="46" y="395" type="qcurve" smooth="yes"/>
      <point x="40" y="408"/>
      <point x="53" y="414" type="qcurve" smooth="yes"/>
      <point x="59" y="417"/>
      <point x="66" y="417" type="qcurve" smooth="yes"/>
      <point x="95" y="417"/>
      <point x="95" y="446" type="qcurve" smooth="yes"/>
      <point x="95" y="506" type="line" smooth="yes"/>
      <point x="95" y="536"/>
      <point x="66" y="536" type="qcurve" smooth="yes"/>
      <point x="57" y="536"/>
      <point x="53" y="538" type="qcurve" smooth="yes"/>
      <point x="41" y="545"/>
      <point x="46" y="558" type="qcurve" smooth="yes"/>
      <point x="61" y="594"/>
      <point x="114" y="648"/>
      <point x="180" y="680"/>
      <point x="255" y="687"/>
      <point x="293" y="677" type="qcurve" smooth="yes"/>
      <point x="335" y="665"/>
      <point x="394" y="620"/>
      <point x="430" y="559"/>
      <point x="446" y="486"/>
      <point x="446" y="446" type="qcurve"/>
      <point x="297" y="446" type="line"/>
      <point x="297" y="476" type="line"/>
      <point x="297" y="477" type="line"/>
      <point x="297" y="483"/>
      <point x="296" y="486" type="qcurve" smooth="yes"/>
      <point x="294" y="501"/>
      <point x="279" y="525"/>
      <point x="259" y="531" type="qcurve"/>
      <point x="258" y="532"/>
      <point x="258" y="532" type="qcurve"/>
      <point x="256" y="533"/>
      <point x="254" y="533"/>
      <point x="252" y="534" type="qcurve" smooth="yes"/>
      <point x="238" y="537"/>
      <point x="226" y="534" type="qcurve"/>
      <point x="219" y="534"/>
      <point x="215" y="531" type="qcurve"/>
      <point x="202" y="526"/>
      <point x="196" y="518" type="qcurve"/>
      <point x="195" y="518" type="line"/>
      <point x="193" y="516" type="line" smooth="yes"/>
      <point x="188" y="511"/>
      <point x="185" y="505" type="qcurve" smooth="yes"/>
      <point x="183" y="501"/>
      <point x="183" y="500" type="qcurve"/>
      <point x="181" y="495"/>
      <point x="179" y="487"/>
      <point x="178" y="483" type="qcurve"/>
      <point x="176" y="458"/>
      <point x="208" y="417"/>
      <point x="237" y="417" type="qcurve" smooth="yes"/>
      <point x="280" y="417"/>
      <point x="356" y="384"/>
      <point x="413" y="327"/>
      <point x="446" y="252"/>
      <point x="446" y="209" type="qcurve" smooth="yes"/>
      <point x="446" y="166"/>
      <point x="413" y="90"/>
      <point x="356" y="33"/>
      <point x="280" y="0"/>
    </contour>
  </outline>
</glyph>
<glyph name="v" format="2">
  <advance width="475"/>
  <unicode hex="0076"/>
  <outline>
    <contour>
      <point x="89" y="446" type="qcurve" smooth="yes"/>
      <point x="89" y="505" type="line" smooth="yes"/>
      <point x="89" y="535"/>
      <point x="60" y="535" type="qcurve" smooth="yes"/>
      <point x="30" y="535"/>
      <point x="30" y="565" type="qcurve" smooth="yes"/>
      <point x="30" y="684" type="line"/>
      <point x="179" y="684" type="line"/>
      <point x="179" y="476" type="line"/>
      <point x="179" y="327" type="line"/>
      <point x="179" y="307" type="line"/>
      <point x="179" y="279" type="line"/>
      <point x="181" y="267"/>
      <point x="184" y="243"/>
      <point x="188" y="231" type="qcurve" smooth="yes"/>
      <point x="190" y="224"/>
      <point x="196" y="211"/>
      <point x="199" y="204" type="qcurve" smooth="yes"/>
      <point x="205" y="191"/>
      <point x="213" y="179" type="qcurve" smooth="yes"/>
      <point x="219" y="169"/>
      <point x="231" y="151"/>
      <point x="238" y="143" type="qcurve"/>
      <point x="245" y="151"/>
      <point x="257" y="169"/>
      <point x="263" y="179" type="qcurve" smooth="yes"/>
      <point x="270" y="191"/>
      <point x="277" y="204" type="qcurve" smooth="yes"/>
      <point x="280" y="211"/>
      <point x="286" y="224"/>
      <point x="288" y="231" type="qcurve" smooth="yes"/>
      <point x="292" y="243"/>
      <point x="295" y="267"/>
      <point x="297" y="279" type="qcurve"/>
      <point x="297" y="307" type="line"/>
      <point x="297" y="327" type="line"/>
      <point x="297" y="476" type="line"/>
      <point x="297" y="684" type="line"/>
      <point x="446" y="684" type="line"/>
      <point x="446" y="476" type="line"/>
      <point x="446" y="327" type="line" smooth="yes"/>
      <point x="446" y="294"/>
      <point x="442" y="225"/>
      <point x="417" y="147"/>
      <point x="362" y="55"/>
      <point x="312" y="0" type="qcurve"/>
      <point x="164" y="0" type="line"/>
      <point x="114" y="55"/>
      <point x="59" y="147"/>
      <point x="34" y="225"/>
      <point x="30" y="294"/>
      <point x="30" y="327" type="qcurve" smooth="yes"/>
      <point x="30" y="386" type="line" smooth="yes"/>
      <point x="30" y="416"/>
      <point x="60" y="416" type="qcurve" smooth="yes"/>
      <point x="89" y="416"/>
    </contour>
  </outline>
</glyph>
<glyph name="w" format="2">
  <advance width="745"/>
  <unicode hex="0077"/>
  <outline>
    <contour>
      <point x="91" y="446" type="qcurve" smooth="yes"/>
      <point x="91" y="506" type="line" smooth="yes"/>
      <point x="91" y="535"/>
      <point x="61" y="535" type="qcurve" smooth="yes"/>
      <point x="31" y="535"/>
      <point x="31" y="565" type="qcurve" smooth="yes"/>
      <point x="31" y="684" type="line"/>
      <point x="180" y="684" type="line"/>
      <point x="180" y="476" type="line"/>
      <point x="180" y="327" type="line"/>
      <point x="180" y="307" type="line" smooth="yes"/>
      <point x="180" y="300"/>
      <point x="180" y="286"/>
      <point x="181" y="279" type="qcurve"/>
      <point x="182" y="255"/>
      <point x="190" y="231" type="qcurve" smooth="yes"/>
      <point x="192" y="224"/>
      <point x="197" y="211"/>
      <point x="200" y="204" type="qcurve"/>
      <point x="204" y="198"/>
      <point x="210" y="185"/>
      <point x="214" y="179" type="qcurve" smooth="yes"/>
      <point x="227" y="159"/>
      <point x="239" y="143" type="qcurve"/>
      <point x="253" y="160"/>
      <point x="264" y="179" type="qcurve" smooth="yes"/>
      <point x="271" y="191"/>
      <point x="278" y="204" type="qcurve" smooth="yes"/>
      <point x="282" y="211"/>
      <point x="287" y="224"/>
      <point x="289" y="231" type="qcurve" smooth="yes"/>
      <point x="296" y="255"/>
      <point x="298" y="279" type="qcurve"/>
      <point x="298" y="286"/>
      <point x="299" y="300"/>
      <point x="299" y="307" type="qcurve" smooth="yes"/>
      <point x="299" y="314" type="line"/>
      <point x="299" y="327" type="line"/>
      <point x="299" y="387" type="line"/>
      <point x="299" y="565" type="line"/>
      <point x="299" y="684" type="line"/>
      <point x="447" y="684" type="line"/>
      <point x="447" y="476" type="line"/>
      <point x="447" y="327" type="line"/>
      <point x="447" y="314" type="line"/>
      <point x="447" y="307" type="line"/>
      <point x="448" y="300"/>
      <point x="448" y="286"/>
      <point x="449" y="279" type="qcurve" smooth="yes"/>
      <point x="450" y="267"/>
      <point x="453" y="243"/>
      <point x="457" y="231" type="qcurve" smooth="yes"/>
      <point x="459" y="224"/>
      <point x="465" y="211"/>
      <point x="468" y="204" type="qcurve" smooth="yes"/>
      <point x="474" y="191"/>
      <point x="482" y="179" type="qcurve" smooth="yes"/>
      <point x="488" y="170"/>
      <point x="500" y="151"/>
      <point x="507" y="143" type="qcurve"/>
      <point x="514" y="151"/>
      <point x="526" y="170"/>
      <point x="532" y="179" type="qcurve" smooth="yes"/>
      <point x="539" y="191"/>
      <point x="546" y="204" type="qcurve" smooth="yes"/>
      <point x="549" y="211"/>
      <point x="555" y="224"/>
      <point x="557" y="231" type="qcurve" smooth="yes"/>
      <point x="561" y="243"/>
      <point x="564" y="267"/>
      <point x="565" y="279" type="qcurve" smooth="yes"/>
      <point x="566" y="286"/>
      <point x="566" y="300"/>
      <point x="566" y="307" type="qcurve" smooth="yes"/>
      <point x="566" y="327" type="line"/>
      <point x="566" y="476" type="line"/>
      <point x="566" y="684" type="line"/>
      <point x="715" y="684" type="line"/>
      <point x="715" y="476" type="line"/>
      <point x="715" y="327" type="line" smooth="yes"/>
      <point x="715" y="294"/>
      <point x="711" y="225"/>
      <point x="686" y="147"/>
      <point x="631" y="56"/>
      <point x="581" y="0" type="qcurve"/>
      <point x="433" y="0" type="line"/>
      <point x="415" y="20"/>
      <point x="385" y="57"/>
      <point x="373" y="74" type="qcurve"/>
      <point x="349" y="39"/>
      <point x="314" y="0" type="qcurve"/>
      <point x="165" y="0" type="line"/>
      <point x="115" y="56"/>
      <point x="60" y="147"/>
      <point x="35" y="225"/>
      <point x="31" y="294"/>
      <point x="31" y="327" type="qcurve" smooth="yes"/>
      <point x="31" y="387" type="line" smooth="yes"/>
      <point x="31" y="416"/>
      <point x="61" y="416" type="qcurve" smooth="yes"/>
      <point x="91" y="416"/>
    </contour>
  </outline>
</glyph>
<glyph name="y" format="2">
  <advance width="469"/>
  <unicode hex="0079"/>
  <outline>
    <contour>
      <point x="441" y="684" type="line"/>
      <point x="441" y="622"/>
      <point x="443" y="501"/>
      <point x="441" y="439" type="qcurve" smooth="yes"/>
      <point x="440" y="407"/>
      <point x="420" y="349"/>
      <point x="385" y="300"/>
      <point x="337" y="262"/>
      <point x="307" y="251" type="qcurve"/>
      <point x="307" y="0" type="line"/>
      <point x="159" y="0" type="line"/>
      <point x="159" y="251" type="line"/>
      <point x="132" y="262"/>
      <point x="89" y="290"/>
      <point x="71" y="313" type="qcurve" smooth="yes"/>
      <point x="53" y="335"/>
      <point x="43" y="360" type="qcurve"/>
      <point x="41" y="363"/>
      <point x="35" y="377"/>
      <point x="31" y="392"/>
      <point x="32" y="406"/>
      <point x="37" y="410" type="qcurve" smooth="yes"/>
      <point x="44" y="416"/>
      <point x="55" y="416" type="qcurve" smooth="yes"/>
      <point x="84" y="416"/>
      <point x="84" y="446" type="qcurve" smooth="yes"/>
      <point x="84" y="505" type="line" smooth="yes"/>
      <point x="84" y="535"/>
      <point x="55" y="535" type="qcurve" smooth="yes"/>
      <point x="25" y="535"/>
      <point x="25" y="565" type="qcurve" smooth="yes"/>
      <point x="25" y="684" type="line"/>
      <point x="174" y="684" type="line"/>
      <point x="174" y="518" type="line" smooth="yes"/>
      <point x="174" y="499"/>
      <point x="170" y="453"/>
      <point x="178" y="413"/>
      <point x="203" y="386"/>
      <point x="233" y="386" type="qcurve" smooth="yes"/>
      <point x="263" y="386"/>
      <point x="288" y="413"/>
      <point x="296" y="453"/>
      <point x="292" y="499"/>
      <point x="292" y="518" type="qcurve" smooth="yes"/>
      <point x="292" y="684" type="line"/>
    </contour>
  </outline>
</glyph>
<glyph name="z" format="2">
  <advance width="449"/>
  <unicode hex="007A"/>
  <outline>
    <contour>
      <point x="199" y="426" type="qcurve" smooth="yes"/>
      <point x="213" y="419"/>
      <point x="232" y="425"/>
      <point x="239" y="439" type="qcurve" smooth="yes"/>
      <point x="266" y="492" type="line"/>
      <point x="274" y="506"/>
      <point x="259" y="533"/>
      <point x="242" y="535" type="qcurve"/>
      <point x="31" y="535" type="line"/>
      <point x="31" y="684" type="line"/>
      <point x="418" y="684" type="line"/>
      <point x="418" y="535" type="line"/>
      <point x="202" y="149" type="line"/>
      <point x="418" y="149" type="line"/>
      <point x="418" y="0" type="line"/>
      <point x="31" y="0" type="line"/>
      <point x="31" y="149" type="line"/>
      <point x="186" y="425" type="line" smooth="yes"/>
      <point x="188" y="429"/>
      <point x="194" y="428" type="qcurve"/>
      <point x="195" y="428"/>
    </contour>
  </outline>
</glyph>
<glyph name="braceleft" format="2">
  <advance width="370"/>
  <unicode hex="007B"/>
  <outline>
    <contour>
      <point x="143" y="723" type="qcurve"/>
      <point x="158" y="759"/>
      <point x="211" y="814"/>
      <point x="277" y="846"/>
      <point x="314" y="849" type="qcurve" smooth="yes"/>
      <point x="327" y="850"/>
      <point x="341" y="850" type="qcurve"/>
      <point x="341" y="702" type="line"/>
      <point x="334" y="702"/>
      <point x="326" y="701" type="qcurve" smooth="yes"/>
      <point x="304" y="698"/>
      <point x="289" y="681" type="qcurve" smooth="yes"/>
      <point x="282" y="673"/>
      <point x="276" y="623"/>
      <point x="274" y="567"/>
      <point x="275" y="170"/>
      <point x="275" y="162" type="qcurve" smooth="yes"/>
      <point x="275" y="74" type="line" smooth="yes"/>
      <point x="275" y="52"/>
      <point x="272" y="10"/>
      <point x="289" y="-10" type="qcurve" smooth="yes"/>
      <point x="304" y="-28"/>
      <point x="326" y="-31" type="qcurve" smooth="yes"/>
      <point x="334" y="-32"/>
      <point x="341" y="-32" type="qcurve"/>
      <point x="341" y="-181" type="line"/>
      <point x="301" y="-182"/>
      <point x="262" y="-167" type="qcurve" smooth="yes"/>
      <point x="210" y="-147"/>
      <point x="140" y="-63"/>
      <point x="130" y="-9" type="qcurve" smooth="yes"/>
      <point x="125" y="18"/>
      <point x="126" y="72"/>
      <point x="126" y="99" type="qcurve" smooth="yes"/>
      <point x="126" y="226" type="line"/>
      <point x="14" y="331" type="line"/>
      <point x="126" y="433" type="line"/>
      <point x="126" y="545" type="line"/>
      <point x="121" y="663"/>
    </contour>
  </outline>
</glyph>
<glyph name="bar" format="2">
  <advance width="430"/>
  <unicode hex="007C"/>
  <outline>
    <contour>
      <point x="147" y="766" type="line"/>
      <point x="295" y="766" type="line"/>
      <point x="295" y="-81" type="line"/>
      <point x="147" y="-81" type="line"/>
    </contour>
  </outline>
</glyph>
<glyph name="braceright" format="2">
  <advance width="370"/>
  <unicode hex="007D"/>
  <outline>
    <contour>
      <point x="212" y="-55" type="qcurve"/>
      <point x="197" y="-91"/>
      <point x="144" y="-146"/>
      <point x="78" y="-178"/>
      <point x="41" y="-181" type="qcurve" smooth="yes"/>
      <point x="28" y="-182"/>
      <point x="14" y="-182" type="qcurve"/>
      <point x="14" y="-34" type="line"/>
      <point x="21" y="-34"/>
      <point x="29" y="-33" type="qcurve" smooth="yes"/>
      <point x="51" y="-30"/>
      <point x="66" y="-13" type="qcurve" smooth="yes"/>
      <point x="73" y="-5"/>
      <point x="79" y="45"/>
      <point x="81" y="101"/>
      <point x="80" y="498"/>
      <point x="80" y="506" type="qcurve" smooth="yes"/>
      <point x="80" y="594" type="line" smooth="yes"/>
      <point x="80" y="616"/>
      <point x="83" y="658"/>
      <point x="66" y="678" type="qcurve" smooth="yes"/>
      <point x="51" y="696"/>
      <point x="29" y="699" type="qcurve" smooth="yes"/>
      <point x="21" y="700"/>
      <point x="14" y="700" type="qcurve"/>
      <point x="14" y="849" type="line"/>
      <point x="54" y="850"/>
      <point x="93" y="835" type="qcurve" smooth="yes"/>
      <point x="145" y="815"/>
      <point x="215" y="731"/>
      <point x="225" y="677" type="qcurve" smooth="yes"/>
      <point x="230" y="650"/>
      <point x="229" y="596"/>
      <point x="229" y="569" type="qcurve" smooth="yes"/>
      <point x="229" y="442" type="line"/>
      <point x="341" y="337" type="line"/>
      <point x="229" y="235" type="line"/>
      <point x="229" y="123" type="line"/>
      <point x="234" y="5"/>
    </contour>
  </outline>
</glyph>
<glyph name="asciitilde" format="2">
  <advance width="640"/>
  <unicode hex="007E"/>
  <outline>
    <contour>
      <point x="622" y="430" type="line"/>
      <point x="606" y="387" type="line" smooth="yes"/>
      <point x="604" y="383"/>
      <point x="588" y="349"/>
      <point x="558" y="306"/>
      <point x="514" y="265"/>
      <point x="484" y="253" type="qcurve" smooth="yes"/>
      <point x="480" y="251"/>
      <point x="473" y="250"/>
      <point x="470" y="248" type="qcurve"/>
      <point x="461" y="246"/>
      <point x="444" y="244"/>
      <point x="435" y="244" type="qcurve" smooth="yes"/>
      <point x="413" y="244"/>
      <point x="369" y="255"/>
      <point x="344" y="266" type="qcurve" smooth="yes"/>
      <point x="321" y="277"/>
      <point x="287" y="299"/>
      <point x="285" y="301" type="qcurve"/>
      <point x="284" y="302"/>
      <point x="263" y="316"/>
      <point x="247" y="323" type="qcurve" smooth="yes"/>
      <point x="232" y="330"/>
      <point x="214" y="333"/>
      <point x="211" y="333" type="qcurve" smooth="yes"/>
      <point x="208" y="333" type="line"/>
      <point x="193" y="327"/>
      <point x="176" y="302" type="qcurve" smooth="yes"/>
      <point x="168" y="291"/>
      <point x="160" y="273"/>
      <point x="159" y="272" type="qcurve"/>
      <point x="143" y="229" type="line"/>
      <point x="23" y="277" type="line"/>
      <point x="40" y="319" type="line"/>
      <point x="41" y="323"/>
      <point x="58" y="357"/>
      <point x="88" y="400"/>
      <point x="132" y="441"/>
      <point x="162" y="453" type="qcurve" smooth="yes"/>
      <point x="184" y="462"/>
      <point x="211" y="462" type="qcurve" smooth="yes"/>
      <point x="232" y="462"/>
      <point x="277" y="451"/>
      <point x="302" y="440" type="qcurve" smooth="yes"/>
      <point x="326" y="429"/>
      <point x="359" y="407"/>
      <point x="361" y="405" type="qcurve"/>
      <point x="362" y="404"/>
      <point x="383" y="391"/>
      <point x="399" y="384" type="qcurve"/>
      <point x="414" y="376"/>
      <point x="431" y="374"/>
      <point x="435" y="374" type="qcurve" smooth="yes"/>
      <point x="438" y="374" type="line"/>
      <point x="453" y="380"/>
      <point x="471" y="405" type="qcurve" smooth="yes"/>
      <point x="479" y="416"/>
      <point x="486" y="433"/>
      <point x="487" y="434" type="qcurve"/>
      <point x="503" y="477" type="line"/>
    </contour>
  </outline>
</glyph>
<glyph name="exclamdown" format="2">
  <advance width="221"/>
  <unicode hex="00A1"/>
  <outline>
    <contour>
      <point x="34" y="535" type="line"/>
      <point x="34" y="684" type="line"/>
      <point x="183" y="684" type="line"/>
      <point x="183" y="535" type="line"/>
    </contour>
    <contour>
      <point x="64" y="404" type="qcurve" smooth="yes"/>
      <point x="34" y="404"/>
      <point x="34" y="434" type="qcurve" smooth="yes"/>
      <point x="34" y="475" type="line"/>
      <point x="183" y="475" type="line"/>
      <point x="183" y="416" type="line"/>
      <point x="183" y="267" type="line"/>
      <point x="183" y="0" type="line"/>
      <point x="34" y="0" type="line"/>
      <point x="34" y="256" type="line" smooth="yes"/>
      <point x="34" y="285"/>
      <point x="64" y="285" type="qcurve" smooth="yes"/>
      <point x="94" y="285"/>
      <point x="94" y="315" type="qcurve" smooth="yes"/>
      <point x="94" y="374" type="line" smooth="yes"/>
      <point x="94" y="404"/>
    </contour>
  </outline>
</glyph>
<glyph name="cent" format="2">
  <advance width="476"/>
  <unicode hex="00A2"/>
  <outline>
    <contour>
      <point x="95" y="447" type="qcurve" smooth="yes"/>
      <point x="95" y="506" type="line" smooth="yes"/>
      <point x="95" y="536"/>
      <point x="65" y="536" type="qcurve" smooth="yes"/>
      <point x="42" y="536"/>
      <point x="52" y="557" type="qcurve"/>
      <point x="67" y="593"/>
      <point x="120" y="648"/>
      <point x="186" y="680"/>
      <point x="261" y="687"/>
      <point x="299" y="677" type="qcurve" smooth="yes"/>
      <point x="341" y="665"/>
      <point x="400" y="621"/>
      <point x="436" y="560"/>
      <point x="452" y="487"/>
      <point x="452" y="447" type="qcurve"/>
      <point x="303" y="447" type="line"/>
      <point x="303" y="470"/>
      <point x="300" y="509"/>
      <point x="277" y="526" type="qcurve" smooth="yes"/>
      <point x="258" y="539"/>
      <point x="213" y="532"/>
      <point x="198" y="515" type="qcurve" smooth="yes"/>
      <point x="191" y="507"/>
      <point x="185" y="457"/>
      <point x="183" y="401"/>
      <point x="184" y="351"/>
      <point x="184" y="343" type="qcurve" smooth="yes"/>
      <point x="184" y="255" type="line" smooth="yes"/>
      <point x="184" y="233"/>
      <point x="181" y="191"/>
      <point x="198" y="171" type="qcurve" smooth="yes"/>
      <point x="213" y="153"/>
      <point x="258" y="147"/>
      <point x="277" y="160" type="qcurve" smooth="yes"/>
      <point x="300" y="176"/>
      <point x="303" y="216"/>
      <point x="303" y="239" type="qcurve"/>
      <point x="452" y="239" type="line"/>
      <point x="452" y="209"/>
      <point x="446" y="157"/>
      <point x="430" y="110"/>
      <point x="399" y="67"/>
      <point x="374" y="47" type="qcurve" smooth="yes"/>
      <point x="331" y="12"/>
      <point x="223" y="-6"/>
      <point x="171" y="14" type="qcurve" smooth="yes"/>
      <point x="119" y="34"/>
      <point x="49" y="118"/>
      <point x="39" y="172" type="qcurve" smooth="yes"/>
      <point x="34" y="199"/>
      <point x="35" y="253"/>
      <point x="35" y="280" type="qcurve" smooth="yes"/>
      <point x="35" y="387" type="line" smooth="yes"/>
      <point x="35" y="417"/>
      <point x="65" y="417" type="qcurve" smooth="yes"/>
      <point x="95" y="417"/>
    </contour>
    <contour>
      <point x="174" y="-81" type="line"/>
      <point x="174" y="92" type="line"/>
      <point x="322" y="92" type="line"/>
      <point x="322" y="-81" type="line"/>
    </contour>
    <contour>
      <point x="174" y="766" type="line"/>
      <point x="322" y="766" type="line"/>
      <point x="322" y="627" type="line"/>
      <point x="174" y="627" type="line"/>
    </contour>
  </outline>
</glyph>
<glyph name="sterling" format="2">
  <advance width="487"/>
  <unicode hex="00A3"/>
  <outline>
    <contour>
      <point x="186" y="148" type="line"/>
      <point x="335" y="148" type="line"/>
      <point x="335" y="0" type="line"/>
      <point x="38" y="0" type="line"/>
      <point x="38" y="146" type="line" smooth="yes"/>
      <point x="38" y="176"/>
      <point x="67" y="176" type="qcurve" smooth="yes"/>
      <point x="97" y="176"/>
      <point x="97" y="206" type="qcurve" smooth="yes"/>
      <point x="97" y="265" type="line" smooth="yes"/>
      <point x="97" y="295"/>
      <point x="67" y="295" type="qcurve" smooth="yes"/>
      <point x="38" y="295"/>
      <point x="38" y="325" type="qcurve" smooth="yes"/>
      <point x="38" y="444" type="line"/>
      <point x="39" y="444" type="line"/>
      <point x="39" y="446" type="line"/>
      <point x="39" y="479"/>
      <point x="46" y="537"/>
      <point x="66" y="588"/>
      <point x="104" y="632"/>
      <point x="134" y="651" type="qcurve" smooth="yes"/>
      <point x="186" y="684"/>
      <point x="308" y="684"/>
      <point x="359" y="651" type="qcurve" smooth="yes"/>
      <point x="390" y="632"/>
      <point x="427" y="588"/>
      <point x="448" y="537"/>
      <point x="455" y="479"/>
      <point x="455" y="446" type="qcurve"/>
      <point x="306" y="446" type="line"/>
      <point x="306" y="459"/>
      <point x="307" y="484"/>
      <point x="301" y="505"/>
      <point x="286" y="523"/>
      <point x="270" y="530" type="qcurve" smooth="yes"/>
      <point x="246" y="541"/>
      <point x="198" y="520"/>
      <point x="190" y="495" type="qcurve" smooth="yes"/>
      <point x="182" y="469"/>
      <point x="184" y="445" type="qcurve"/>
      <point x="184" y="444" type="line"/>
      <point x="186" y="444" type="line"/>
      <point x="186" y="429" type="line"/>
    </contour>
    <contour>
      <point x="378" y="342" type="line"/>
      <point x="378" y="194" type="line"/>
      <point x="148" y="194" type="line"/>
      <point x="148" y="342" type="line"/>
    </contour>
  </outline>
</glyph>
<glyph name="currency" format="2">
  <advance width="460"/>
  <unicode hex="00A4"/>
  <outline>
    <contour>
      <point x="15" y="574" type="line"/>
      <point x="93" y="615" type="line"/>
      <point x="152" y="538" type="line"/>
      <point x="187" y="554"/>
      <point x="229" y="554" type="qcurve" smooth="yes"/>
      <point x="268" y="554"/>
      <point x="306" y="538" type="qcurve"/>
      <point x="366" y="615" type="line"/>
      <point x="444" y="574" type="line"/>
      <point x="404" y="447" type="line"/>
      <point x="426" y="407"/>
      <point x="426" y="357" type="qcurve" smooth="yes"/>
      <point x="426" y="305"/>
      <point x="402" y="263" type="qcurve"/>
      <point x="444" y="130" type="line"/>
      <point x="366" y="89" type="line"/>
      <point x="300" y="173" type="line"/>
      <point x="268" y="160"/>
      <point x="229" y="160" type="qcurve" smooth="yes"/>
      <point x="190" y="160"/>
      <point x="158" y="173" type="qcurve"/>
      <point x="93" y="89" type="line"/>
      <point x="15" y="130" type="line"/>
      <point x="56" y="262" type="line"/>
      <point x="33" y="306"/>
      <point x="33" y="357" type="qcurve" smooth="yes"/>
      <point x="33" y="406"/>
      <point x="54" y="447" type="qcurve"/>
    </contour>
    <contour>
      <point x="229" y="460" type="qcurve" smooth="yes"/>
      <point x="208" y="460"/>
      <point x="171" y="444"/>
      <point x="142" y="416"/>
      <point x="126" y="378"/>
      <point x="126" y="357" type="qcurve" smooth="yes"/>
      <point x="126" y="336"/>
      <point x="142" y="298"/>
      <point x="171" y="270"/>
      <point x="208" y="254"/>
      <point x="229" y="254" type="qcurve" smooth="yes"/>
      <point x="250" y="254"/>
      <point x="288" y="270"/>
      <point x="316" y="298"/>
      <point x="332" y="336"/>
      <point x="332" y="357" type="qcurve" smooth="yes"/>
      <point x="332" y="378"/>
      <point x="316" y="416"/>
      <point x="288" y="444"/>
      <point x="250" y="460"/>
    </contour>
  </outline>
</glyph>
<glyph name="yen" format="2">
  <advance width="469"/>
  <unicode hex="00A5"/>
  <outline>
    <contour>
      <point x="436" y="474" type="line"/>
      <point x="436" y="326" type="line"/>
      <point x="34" y="326" type="line"/>
      <point x="34" y="474" type="line"/>
    </contour>
    <contour>
      <point x="436" y="270" type="line"/>
      <point x="436" y="122" type="line"/>
      <point x="34" y="122" type="line"/>
      <point x="34" y="270" type="line"/>
    </contour>
    <contour>
      <point x="444" y="962" type="line"/>
      <point x="444" y="900"/>
      <point x="446" y="779"/>
      <point x="444" y="717" type="qcurve" smooth="yes"/>
      <point x="443" y="685"/>
      <point x="423" y="627"/>
      <point x="388" y="578"/>
      <point x="340" y="540"/>
      <point x="310" y="529" type="qcurve"/>
      <point x="310" y="-87" type="line"/>
      <point x="162" y="-87" type="line"/>
      <point x="162" y="529" type="line"/>
      <point x="135" y="540"/>
      <point x="92" y="568"/>
      <point x="74" y="591" type="qcurve" smooth="yes"/>
      <point x="56" y="613"/>
      <point x="46" y="638" type="qcurve"/>
      <point x="44" y="641"/>
      <point x="38" y="655"/>
      <point x="34" y="670"/>
      <point x="35" y="684"/>
      <point x="40" y="688" type="qcurve" smooth="yes"/>
      <point x="47" y="694"/>
      <point x="58" y="694" type="qcurve" smooth="yes"/>
      <point x="87" y="694"/>
      <point x="87" y="724" type="qcurve" smooth="yes"/>
      <point x="87" y="783" type="line" smooth="yes"/>
      <point x="87" y="813"/>
      <point x="58" y="813" type="qcurve" smooth="yes"/>
      <point x="28" y="813"/>
      <point x="28" y="843" type="qcurve" smooth="yes"/>
      <point x="28" y="962" type="line"/>
      <point x="177" y="962" type="line"/>
      <point x="177" y="796" type="line" smooth="yes"/>
      <point x="177" y="777"/>
      <point x="173" y="731"/>
      <point x="181" y="691"/>
      <point x="206" y="664"/>
      <point x="236" y="664" type="qcurve" smooth="yes"/>
      <point x="266" y="664"/>
      <point x="291" y="691"/>
      <point x="299" y="731"/>
      <point x="295" y="777"/>
      <point x="295" y="796" type="qcurve" smooth="yes"/>
      <point x="295" y="962" type="line"/>
    </contour>
  </outline>
</glyph>
<glyph name="brokenbar" format="2">
  <advance width="430"/>
  <unicode hex="00A6"/>
  <outline>
    <contour>
      <point x="147" y="-81" type="line"/>
      <point x="147" y="193" type="line"/>
      <point x="295" y="193" type="line"/>
      <point x="295" y="-81" type="line"/>
    </contour>
    <contour>
      <point x="147" y="766" type="line"/>
      <point x="295" y="766" type="line"/>
      <point x="295" y="514" type="line"/>
      <point x="147" y="514" type="line"/>
    </contour>
  </outline>
</glyph>
<glyph name="section" format="2">
  <advance width="477"/>
  <unicode hex="00A7"/>
  <outline>
    <contour>
      <point x="400" y="490" type="qcurve"/>
      <point x="420" y="462"/>
      <point x="439" y="396"/>
      <point x="437" y="328"/>
      <point x="413" y="262"/>
      <point x="391" y="234" type="qcurve"/>
      <point x="414" y="207"/>
      <point x="440" y="138"/>
      <point x="440" y="100" type="qcurve" smooth="yes"/>
      <point x="440" y="57"/>
      <point x="407" y="-19"/>
      <point x="350" y="-76"/>
      <point x="274" y="-109"/>
      <point x="231" y="-109" type="qcurve" smooth="yes"/>
      <point x="188" y="-109"/>
      <point x="112" y="-76"/>
      <point x="56" y="-19"/>
      <point x="23" y="57"/>
      <point x="23" y="100" type="qcurve" smooth="yes"/>
      <point x="23" y="129" type="line"/>
      <point x="172" y="129" type="line"/>
      <point x="172" y="100" type="line" smooth="yes"/>
      <point x="172" y="75"/>
      <point x="207" y="40"/>
      <point x="231" y="40" type="qcurve" smooth="yes"/>
      <point x="256" y="40"/>
      <point x="291" y="75"/>
      <point x="291" y="100" type="qcurve" smooth="yes"/>
      <point x="291" y="124"/>
      <point x="256" y="159"/>
      <point x="231" y="159" type="qcurve" smooth="yes"/>
      <point x="228" y="159"/>
      <point x="226" y="160" type="qcurve"/>
      <point x="225" y="160" type="line"/>
      <point x="163" y="162"/>
      <point x="63" y="229"/>
      <point x="40" y="286" type="qcurve" smooth="yes"/>
      <point x="24" y="325"/>
      <point x="25" y="377" type="qcurve" smooth="yes"/>
      <point x="26" y="429"/>
      <point x="40" y="449" type="qcurve"/>
      <point x="52" y="479"/>
      <point x="72" y="502" type="qcurve"/>
      <point x="51" y="528"/>
      <point x="40" y="554" type="qcurve" smooth="yes"/>
      <point x="34" y="567"/>
      <point x="47" y="573" type="qcurve" smooth="yes"/>
      <point x="53" y="576"/>
      <point x="60" y="576" type="qcurve" smooth="yes"/>
      <point x="89" y="576"/>
      <point x="89" y="605" type="qcurve" smooth="yes"/>
      <point x="89" y="665" type="line" smooth="yes"/>
      <point x="89" y="695"/>
      <point x="60" y="695" type="qcurve" smooth="yes"/>
      <point x="53" y="695"/>
      <point x="47" y="697" type="qcurve"/>
      <point x="36" y="704"/>
      <point x="40" y="717" type="qcurve"/>
      <point x="55" y="753"/>
      <point x="108" y="807"/>
      <point x="174" y="839"/>
      <point x="249" y="846"/>
      <point x="287" y="836" type="qcurve" smooth="yes"/>
      <point x="329" y="824"/>
      <point x="388" y="779"/>
      <point x="424" y="718"/>
      <point x="440" y="645"/>
      <point x="440" y="605" type="qcurve"/>
      <point x="291" y="605" type="line"/>
      <point x="291" y="635" type="line"/>
      <point x="291" y="636" type="line"/>
      <point x="291" y="643"/>
      <point x="290" y="645" type="qcurve"/>
      <point x="288" y="660"/>
      <point x="273" y="684"/>
      <point x="253" y="690" type="qcurve"/>
      <point x="252" y="691" type="line"/>
      <point x="246" y="693" type="line"/>
      <point x="232" y="696"/>
      <point x="220" y="693" type="qcurve"/>
      <point x="213" y="693"/>
      <point x="209" y="690" type="qcurve"/>
      <point x="197" y="686"/>
      <point x="190" y="677" type="qcurve"/>
      <point x="189" y="677" type="line"/>
      <point x="187" y="675" type="line" smooth="yes"/>
      <point x="182" y="670"/>
      <point x="179" y="664" type="qcurve" smooth="yes"/>
      <point x="177" y="658"/>
      <point x="177" y="659" type="qcurve"/>
      <point x="175" y="654"/>
      <point x="173" y="646"/>
      <point x="172" y="642" type="qcurve"/>
      <point x="170" y="617"/>
      <point x="202" y="576"/>
      <point x="231" y="576" type="qcurve" smooth="yes"/>
      <point x="278" y="576"/>
      <point x="317" y="558" type="qcurve"/>
      <point x="371" y="535"/>
    </contour>
    <contour>
      <point x="231" y="308" type="qcurve"/>
      <point x="256" y="308"/>
      <point x="291" y="343"/>
      <point x="291" y="368" type="qcurve" smooth="yes"/>
      <point x="291" y="374"/>
      <point x="290" y="376" type="qcurve"/>
      <point x="290" y="377" type="line"/>
      <point x="290" y="379"/>
      <point x="289" y="382"/>
      <point x="289" y="384" type="qcurve"/>
      <point x="281" y="408"/>
      <point x="260" y="420" type="qcurve" smooth="yes"/>
      <point x="256" y="422"/>
      <point x="253" y="422" type="qcurve"/>
      <point x="252" y="423" type="line"/>
      <point x="246" y="425" type="line"/>
      <point x="232" y="428"/>
      <point x="220" y="425" type="qcurve"/>
      <point x="213" y="425"/>
      <point x="209" y="422" type="qcurve"/>
      <point x="197" y="418"/>
      <point x="190" y="409" type="qcurve"/>
      <point x="189" y="409" type="line"/>
      <point x="187" y="407" type="line" smooth="yes"/>
      <point x="182" y="402"/>
      <point x="179" y="396" type="qcurve" smooth="yes"/>
      <point x="177" y="390"/>
      <point x="177" y="391" type="qcurve"/>
      <point x="175" y="386"/>
      <point x="173" y="378"/>
      <point x="172" y="374" type="qcurve"/>
      <point x="172" y="368" type="line" smooth="yes"/>
      <point x="172" y="344"/>
      <point x="205" y="310"/>
      <point x="228" y="309" type="qcurve"/>
      <point x="229" y="308"/>
    </contour>
  </outline>
</glyph>
<glyph name="dieresis" format="2">
  <advance width="579"/>
  <unicode hex="00A8"/>
  <outline>
    <contour>
      <point x="122" y="801" type="qcurve" smooth="yes"/>
      <point x="122" y="827"/>
      <point x="160" y="865"/>
      <point x="186" y="865" type="qcurve" smooth="yes"/>
      <point x="212" y="865"/>
      <point x="250" y="827"/>
      <point x="250" y="801" type="qcurve" smooth="yes"/>
      <point x="250" y="775"/>
      <point x="212" y="737"/>
      <point x="186" y="737" type="qcurve" smooth="yes"/>
      <point x="160" y="737"/>
      <point x="122" y="775"/>
    </contour>
    <contour>
      <point x="329" y="800" type="qcurve" smooth="yes"/>
      <point x="329" y="826"/>
      <point x="367" y="864"/>
      <point x="393" y="864" type="qcurve" smooth="yes"/>
      <point x="419" y="864"/>
      <point x="457" y="826"/>
      <point x="457" y="800" type="qcurve" smooth="yes"/>
      <point x="457" y="774"/>
      <point x="419" y="736"/>
      <point x="393" y="736" type="qcurve" smooth="yes"/>
      <point x="367" y="736"/>
      <point x="329" y="774"/>
    </contour>
  </outline>
</glyph>
<glyph name="copyright" format="2">
  <advance width="426"/>
  <unicode hex="00A9"/>
  <outline>
    <contour>
      <point x="208" y="299" type="qcurve" smooth="yes"/>
      <point x="170" y="299"/>
      <point x="103" y="328"/>
      <point x="53" y="378"/>
      <point x="25" y="446"/>
      <point x="25" y="484" type="qcurve" smooth="yes"/>
      <point x="25" y="522"/>
      <point x="53" y="589"/>
      <point x="103" y="638"/>
      <point x="170" y="667"/>
      <point x="208" y="667" type="qcurve" smooth="yes"/>
      <point x="246" y="667"/>
      <point x="314" y="638"/>
      <point x="364" y="589"/>
      <point x="393" y="522"/>
      <point x="393" y="484" type="qcurve" smooth="yes"/>
      <point x="393" y="446"/>
      <point x="364" y="378"/>
      <point x="314" y="328"/>
      <point x="246" y="299"/>
    </contour>
    <contour>
      <point x="208" y="623" type="qcurve" smooth="yes"/>
      <point x="179" y="623"/>
      <point x="129" y="601"/>
      <point x="91" y="563"/>
      <point x="69" y="512"/>
      <point x="69" y="484" type="qcurve" smooth="yes"/>
      <point x="69" y="455"/>
      <point x="91" y="403"/>
      <point x="129" y="365"/>
      <point x="179" y="343"/>
      <point x="208" y="343" type="qcurve" smooth="yes"/>
      <point x="237" y="343"/>
      <point x="289" y="365"/>
      <point x="327" y="403"/>
      <point x="349" y="455"/>
      <point x="349" y="484" type="qcurve" smooth="yes"/>
      <point x="349" y="512"/>
      <point x="327" y="563"/>
      <point x="289" y="601"/>
      <point x="237" y="623"/>
    </contour>
    <contour>
      <point x="258" y="449" type="line"/>
      <point x="240" y="425"/>
      <point x="210" y="425" type="qcurve" smooth="yes"/>
      <point x="186" y="425"/>
      <point x="151" y="459"/>
      <point x="151" y="484" type="qcurve" smooth="yes"/>
      <point x="151" y="507"/>
      <point x="186" y="541"/>
      <point x="210" y="541" type="qcurve" smooth="yes"/>
      <point x="239" y="541"/>
      <point x="256" y="521" type="qcurve"/>
      <point x="290" y="551" type="line"/>
      <point x="276" y="568"/>
      <point x="233" y="586"/>
      <point x="210" y="586" type="qcurve" smooth="yes"/>
      <point x="189" y="586"/>
      <point x="151" y="570"/>
      <point x="123" y="542"/>
      <point x="106" y="505"/>
      <point x="106" y="484" type="qcurve" smooth="yes"/>
      <point x="106" y="463"/>
      <point x="123" y="425"/>
      <point x="151" y="396"/>
      <point x="189" y="380"/>
      <point x="210" y="380" type="qcurve" smooth="yes"/>
      <point x="236" y="380"/>
      <point x="281" y="404"/>
      <point x="295" y="425" type="qcurve"/>
    </contour>
  </outline>
</glyph>
<glyph name="ordfeminine" format="2">
  <advance width="268"/>
  <unicode hex="00AA"/>
  <outline>
    <contour>
      <point x="241" y="618" type="qcurve"/>
      <point x="246" y="602"/>
      <point x="250" y="565"/>
      <point x="251" y="545" type="qcurve"/>
      <point x="251" y="351" type="line"/>
      <point x="112" y="351" type="line"/>
      <point x="80" y="360"/>
      <point x="43" y="401"/>
      <point x="37" y="430" type="qcurve" smooth="yes"/>
      <point x="35" y="440"/>
      <point x="33" y="494" type="qcurve"/>
      <point x="33" y="517" type="line"/>
      <point x="33" y="517"/>
      <point x="36" y="531"/>
      <point x="48" y="546"/>
      <point x="72" y="559"/>
      <point x="94" y="559" type="qcurve"/>
      <point x="172" y="560" type="line"/>
      <point x="170" y="579" type="line"/>
      <point x="168" y="592"/>
      <point x="165" y="596" type="qcurve" smooth="yes"/>
      <point x="157" y="605"/>
      <point x="145" y="607" type="qcurve"/>
      <point x="144" y="607"/>
      <point x="87" y="607"/>
      <point x="30" y="608" type="qcurve"/>
      <point x="29" y="684" type="line"/>
      <point x="151" y="684" type="line"/>
      <point x="181" y="681"/>
      <point x="229" y="647"/>
    </contour>
    <contour>
      <point x="172" y="495" type="line"/>
      <point x="110" y="494" type="line"/>
      <point x="110" y="451"/>
      <point x="111" y="448" type="qcurve"/>
      <point x="112" y="438"/>
      <point x="124" y="429" type="qcurve" smooth="yes"/>
      <point x="134" y="421"/>
      <point x="172" y="426" type="qcurve"/>
    </contour>
  </outline>
</glyph>
<glyph name="guillemotleft" format="2">
  <advance width="744"/>
  <unicode hex="00AB"/>
  <outline>
    <contour>
      <point x="336" y="273" type="line"/>
      <point x="338" y="290"/>
      <point x="356" y="332"/>
      <point x="371" y="342" type="qcurve" smooth="yes"/>
      <point x="666" y="528" type="line"/>
      <point x="700" y="444" type="line"/>
      <point x="427" y="264" type="line"/>
      <point x="700" y="84" type="line"/>
      <point x="666" y="0" type="line"/>
      <point x="371" y="186" type="line" smooth="yes"/>
      <point x="356" y="195"/>
      <point x="337" y="238"/>
      <point x="335" y="255" type="qcurve"/>
    </contour>
    <contour>
      <point x="37" y="273" type="line"/>
      <point x="39" y="290"/>
      <point x="57" y="332"/>
      <point x="72" y="342" type="qcurve" smooth="yes"/>
      <point x="367" y="528" type="line"/>
      <point x="401" y="444" type="line"/>
      <point x="128" y="264" type="line"/>
      <point x="401" y="84" type="line"/>
      <point x="367" y="0" type="line"/>
      <point x="72" y="186" type="line" smooth="yes"/>
      <point x="57" y="195"/>
      <point x="38" y="238"/>
      <point x="36" y="255" type="qcurve"/>
    </contour>
  </outline>
</glyph>
<glyph name="uni00AD" format="2">
  <advance width="411"/>
  <unicode hex="00AD"/>
  <outline>
    <contour>
      <point x="386" y="432" type="line"/>
      <point x="386" y="284" type="line"/>
      <point x="34" y="284" type="line"/>
      <point x="34" y="432" type="line"/>
    </contour>
  </outline>
</glyph>
<glyph name="registered" format="2">
  <advance width="493"/>
  <unicode hex="00AE"/>
  <outline>
    <contour>
      <point x="243" y="234" type="qcurve" smooth="yes"/>
      <point x="196" y="234"/>
      <point x="114" y="270"/>
      <point x="53" y="331"/>
      <point x="17" y="413"/>
      <point x="17" y="460" type="qcurve" smooth="yes"/>
      <point x="17" y="507"/>
      <point x="53" y="589"/>
      <point x="114" y="649"/>
      <point x="196" y="684"/>
      <point x="243" y="684" type="qcurve" smooth="yes"/>
      <point x="290" y="684"/>
      <point x="371" y="649"/>
      <point x="431" y="589"/>
      <point x="466" y="507"/>
      <point x="466" y="460" type="qcurve" smooth="yes"/>
      <point x="466" y="413"/>
      <point x="431" y="331"/>
      <point x="371" y="270"/>
      <point x="290" y="234"/>
    </contour>
    <contour>
      <point x="243" y="600" type="qcurve" smooth="yes"/>
      <point x="213" y="600"/>
      <point x="162" y="578"/>
      <point x="123" y="541"/>
      <point x="101" y="490"/>
      <point x="101" y="460" type="qcurve" smooth="yes"/>
      <point x="101" y="431"/>
      <point x="123" y="380"/>
      <point x="162" y="341"/>
      <point x="213" y="318"/>
      <point x="243" y="318" type="qcurve" smooth="yes"/>
      <point x="273" y="318"/>
      <point x="323" y="341"/>
      <point x="361" y="380"/>
      <point x="382" y="431"/>
      <point x="382" y="460" type="qcurve" smooth="yes"/>
      <point x="382" y="490"/>
      <point x="361" y="541"/>
      <point x="323" y="578"/>
      <point x="273" y="600"/>
    </contour>
    <contour>
      <point x="224" y="417" type="line"/>
      <point x="224" y="397" type="line"/>
      <point x="224" y="346" type="line"/>
      <point x="174" y="346" type="line"/>
      <point x="174" y="417" type="line"/>
      <point x="174" y="478" type="line" smooth="yes"/>
      <point x="174" y="488"/>
      <point x="184" y="488" type="qcurve" smooth="yes"/>
      <point x="194" y="488"/>
      <point x="194" y="498" type="qcurve" smooth="yes"/>
      <point x="194" y="518" type="line" smooth="yes"/>
      <point x="194" y="528"/>
      <point x="184" y="528" type="qcurve" smooth="yes"/>
      <point x="174" y="528"/>
      <point x="174" y="538" type="qcurve" smooth="yes"/>
      <point x="174" y="579" type="line"/>
      <point x="245" y="579" type="line" smooth="yes"/>
      <point x="259" y="579"/>
      <point x="285" y="568"/>
      <point x="304" y="549"/>
      <point x="315" y="523"/>
      <point x="315" y="508" type="qcurve" smooth="yes"/>
      <point x="315" y="495"/>
      <point x="307" y="473"/>
      <point x="299" y="463" type="qcurve"/>
      <point x="307" y="452"/>
      <point x="315" y="431"/>
      <point x="315" y="417" type="qcurve" smooth="yes"/>
      <point x="315" y="346" type="line"/>
      <point x="305" y="346" type="line"/>
      <point x="265" y="346" type="line"/>
      <point x="265" y="417" type="line" smooth="yes"/>
      <point x="265" y="426"/>
      <point x="253" y="437"/>
      <point x="245" y="437" type="qcurve" smooth="yes"/>
      <point x="224" y="437" type="line"/>
    </contour>
    <contour>
      <point x="245" y="488" type="line" smooth="yes"/>
      <point x="253" y="488"/>
      <point x="265" y="500"/>
      <point x="265" y="508" type="qcurve" smooth="yes"/>
      <point x="265" y="517"/>
      <point x="253" y="528"/>
      <point x="245" y="528" type="qcurve" smooth="yes"/>
      <point x="224" y="528" type="line"/>
      <point x="224" y="508" type="line"/>
      <point x="224" y="488" type="line"/>
    </contour>
  </outline>
</glyph>
<glyph name="macron" format="2">
  <advance width="572"/>
  <unicode hex="00AF"/>
  <outline>
    <contour>
      <point x="424" y="853" type="line"/>
      <point x="424" y="732" type="line"/>
      <point x="130" y="732" type="line"/>
      <point x="130" y="853" type="line"/>
    </contour>
  </outline>
</glyph>
<glyph name="degree" format="2">
  <advance width="366"/>
  <unicode hex="00B0"/>
  <outline>
    <contour>
      <point x="182" y="337" type="qcurve" smooth="yes"/>
      <point x="149" y="337"/>
      <point x="90" y="363"/>
      <point x="46" y="407"/>
      <point x="20" y="466"/>
      <point x="20" y="499" type="qcurve" smooth="yes"/>
      <point x="20" y="533"/>
      <point x="46" y="592"/>
      <point x="90" y="636"/>
      <point x="149" y="661"/>
      <point x="182" y="661" type="qcurve" smooth="yes"/>
      <point x="215" y="661"/>
      <point x="274" y="636"/>
      <point x="318" y="592"/>
      <point x="343" y="533"/>
      <point x="343" y="499" type="qcurve" smooth="yes"/>
      <point x="343" y="466"/>
      <point x="318" y="407"/>
      <point x="274" y="363"/>
      <point x="215" y="337"/>
    </contour>
    <contour>
      <point x="182" y="592" type="qcurve" smooth="yes"/>
      <point x="163" y="592"/>
      <point x="129" y="578"/>
      <point x="103" y="552"/>
      <point x="88" y="518"/>
      <point x="88" y="499" type="qcurve" smooth="yes"/>
      <point x="88" y="479"/>
      <point x="103" y="445"/>
      <point x="129" y="420"/>
      <point x="163" y="405"/>
      <point x="182" y="405" type="qcurve" smooth="yes"/>
      <point x="221" y="405"/>
      <point x="275" y="460"/>
      <point x="275" y="499" type="qcurve" smooth="yes"/>
      <point x="275" y="538"/>
      <point x="221" y="592"/>
    </contour>
  </outline>
</glyph>
<glyph name="plusminus" format="2">
  <advance width="419"/>
  <unicode hex="00B1"/>
  <outline>
    <contour>
      <point x="388" y="375" type="line"/>
      <point x="388" y="263" type="line"/>
      <point x="35" y="263" type="line"/>
      <point x="35" y="375" type="line"/>
    </contour>
    <contour>
      <point x="153" y="496" type="line"/>
      <point x="265" y="496" type="line"/>
      <point x="265" y="143" type="line"/>
      <point x="153" y="143" type="line"/>
    </contour>
    <contour>
      <point x="388" y="112" type="line"/>
      <point x="388" y="0" type="line"/>
      <point x="35" y="0" type="line"/>
      <point x="35" y="112" type="line"/>
    </contour>
  </outline>
</glyph>
<glyph name="acute" format="2">
  <advance width="453"/>
  <unicode hex="00B4"/>
  <outline>
    <contour>
      <point x="317" y="856" type="line"/>
      <point x="248" y="726" type="line"/>
      <point x="147" y="726" type="line"/>
      <point x="206" y="856" type="line"/>
    </contour>
  </outline>
</glyph>
<glyph name="paragraph" format="2">
  <advance width="833"/>
  <unicode hex="00B6"/>
  <outline>
    <contour>
      <point x="781" y="684" type="line"/>
      <point x="781" y="536" type="line"/>
      <point x="711" y="536" type="line"/>
      <point x="711" y="416" type="line"/>
      <point x="711" y="267" type="line"/>
      <point x="711" y="-165" type="line"/>
      <point x="563" y="-165" type="line"/>
      <point x="563" y="296" type="line" smooth="yes"/>
      <point x="563" y="325"/>
      <point x="592" y="325" type="qcurve" smooth="yes"/>
      <point x="622" y="325"/>
      <point x="622" y="355" type="qcurve" smooth="yes"/>
      <point x="622" y="414" type="line" smooth="yes"/>
      <point x="622" y="444"/>
      <point x="592" y="444" type="qcurve" smooth="yes"/>
      <point x="563" y="444"/>
      <point x="563" y="474" type="qcurve" smooth="yes"/>
      <point x="563" y="536" type="line"/>
      <point x="448" y="536" type="line"/>
      <point x="448" y="208" type="line"/>
      <point x="448" y="-165" type="line"/>
      <point x="299" y="-165" type="line"/>
      <point x="299" y="149" type="line"/>
      <point x="299" y="208" type="line"/>
      <point x="299" y="268" type="line"/>
      <point x="240" y="268" type="line" smooth="yes"/>
      <point x="197" y="268"/>
      <point x="121" y="301"/>
      <point x="65" y="357"/>
      <point x="32" y="433"/>
      <point x="32" y="476" type="qcurve" smooth="yes"/>
      <point x="32" y="519"/>
      <point x="65" y="595"/>
      <point x="121" y="651"/>
      <point x="197" y="684"/>
      <point x="240" y="684" type="qcurve" smooth="yes"/>
      <point x="407" y="684" type="line"/>
      <point x="415" y="684" type="line"/>
      <point x="563" y="684" type="line"/>
      <point x="711" y="684" type="line"/>
    </contour>
  </outline>
</glyph>
<glyph name="periodcentered" format="2">
  <advance width="218"/>
  <unicode hex="00B7"/>
  <outline>
    <contour>
      <point x="40" y="366" type="qcurve" smooth="yes"/>
      <point x="40" y="395"/>
      <point x="83" y="438"/>
      <point x="112" y="438" type="qcurve" smooth="yes"/>
      <point x="141" y="438"/>
      <point x="184" y="395"/>
      <point x="184" y="366" type="qcurve" smooth="yes"/>
      <point x="184" y="337"/>
      <point x="141" y="294"/>
      <point x="112" y="294" type="qcurve" smooth="yes"/>
      <point x="83" y="294"/>
      <point x="40" y="337"/>
    </contour>
  </outline>
</glyph>
<glyph name="ordmasculine" format="2">
  <advance width="268"/>
  <unicode hex="00BA"/>
  <outline>
    <contour>
      <point x="245" y="485" type="line"/>
      <point x="244" y="444"/>
      <point x="235" y="412" type="qcurve"/>
      <point x="227" y="393"/>
      <point x="200" y="365"/>
      <point x="165" y="348"/>
      <point x="126" y="344"/>
      <point x="106" y="350" type="qcurve" smooth="yes"/>
      <point x="85" y="356"/>
      <point x="54" y="379"/>
      <point x="35" y="410"/>
      <point x="27" y="448"/>
      <point x="27" y="560" type="qcurve" smooth="yes"/>
      <point x="27" y="581"/>
      <point x="35" y="619"/>
      <point x="54" y="650"/>
      <point x="85" y="673"/>
      <point x="106" y="679" type="qcurve" smooth="yes"/>
      <point x="126" y="685"/>
      <point x="165" y="681"/>
      <point x="200" y="664"/>
      <point x="227" y="636"/>
      <point x="235" y="617" type="qcurve"/>
      <point x="244" y="585"/>
      <point x="245" y="544" type="qcurve"/>
    </contour>
    <contour>
      <point x="166" y="550" type="line" smooth="yes"/>
      <point x="166" y="565"/>
      <point x="163" y="591"/>
      <point x="159" y="595" type="qcurve" smooth="yes"/>
      <point x="151" y="604"/>
      <point x="128" y="608"/>
      <point x="118" y="601" type="qcurve" smooth="yes"/>
      <point x="106" y="592"/>
      <point x="104" y="572"/>
      <point x="104" y="560" type="qcurve" smooth="yes"/>
      <point x="104" y="457"/>
      <point x="106" y="437"/>
      <point x="118" y="428" type="qcurve" smooth="yes"/>
      <point x="128" y="421"/>
      <point x="151" y="425"/>
      <point x="159" y="434" type="qcurve" smooth="yes"/>
      <point x="163" y="438"/>
      <point x="166" y="464"/>
      <point x="166" y="479" type="qcurve" smooth="yes"/>
    </contour>
  </outline>
</glyph>
<glyph name="questiondown" format="2">
  <advance width="456"/>
  <unicode hex="00BF"/>
  <outline>
    <contour>
      <point x="178" y="542" type="line"/>
      <point x="178" y="690" type="line"/>
      <point x="327" y="690" type="line"/>
      <point x="327" y="542" type="line"/>
    </contour>
    <contour>
      <point x="386" y="185" type="line" smooth="yes"/>
      <point x="386" y="155"/>
      <point x="416" y="155" type="qcurve" smooth="yes"/>
      <point x="423" y="155"/>
      <point x="430" y="152" type="qcurve" smooth="yes"/>
      <point x="436" y="149"/>
      <point x="433" y="143" type="qcurve"/>
      <point x="413" y="89"/>
      <point x="330" y="21"/>
      <point x="229" y="0"/>
      <point x="126" y="30"/>
      <point x="86" y="72" type="qcurve" smooth="yes"/>
      <point x="46" y="114"/>
      <point x="23" y="219"/>
      <point x="50" y="318"/>
      <point x="123" y="398"/>
      <point x="178" y="414" type="qcurve"/>
      <point x="178" y="482" type="line"/>
      <point x="327" y="482" type="line"/>
      <point x="327" y="363" type="line" smooth="yes"/>
      <point x="327" y="326"/>
      <point x="275" y="274"/>
      <point x="238" y="274" type="qcurve" smooth="yes"/>
      <point x="211" y="274"/>
      <point x="178" y="238"/>
      <point x="178" y="215" type="qcurve" smooth="yes"/>
      <point x="178" y="210"/>
      <point x="180" y="202" type="qcurve"/>
      <point x="180" y="199"/>
      <point x="181" y="197" type="qcurve"/>
      <point x="181" y="195"/>
      <point x="182" y="194"/>
      <point x="182" y="192" type="qcurve"/>
      <point x="183" y="191"/>
      <point x="185" y="187" type="qcurve" smooth="yes"/>
      <point x="186" y="185"/>
      <point x="187" y="184"/>
      <point x="188" y="182" type="qcurve" smooth="yes"/>
      <point x="192" y="175"/>
      <point x="196" y="173" type="qcurve"/>
      <point x="207" y="162"/>
      <point x="215" y="160" type="qcurve"/>
      <point x="218" y="158"/>
      <point x="226" y="156" type="qcurve" smooth="yes"/>
      <point x="238" y="153"/>
      <point x="252" y="157" type="qcurve"/>
      <point x="254" y="157"/>
      <point x="258" y="159" type="qcurve"/>
      <point x="260" y="159" type="line"/>
      <point x="280" y="166"/>
      <point x="295" y="190"/>
      <point x="297" y="205" type="qcurve"/>
      <point x="297" y="214" type="line"/>
      <point x="297" y="215" type="line"/>
      <point x="298" y="222"/>
      <point x="297" y="236"/>
      <point x="297" y="244" type="qcurve"/>
      <point x="386" y="244" type="line"/>
    </contour>
  </outline>
</glyph>
<glyph name="AE" format="2">
  <advance width="724"/>
  <unicode hex="00C6"/>
  <outline>
    <contour>
      <point x="691" y="149" type="line"/>
      <point x="691" y="0" type="line"/>
      <point x="298" y="0" type="line"/>
      <point x="298" y="149" type="line"/>
      <point x="180" y="149" type="line"/>
      <point x="180" y="0" type="line"/>
      <point x="31" y="0" type="line"/>
      <point x="31" y="387" type="line" smooth="yes"/>
      <point x="31" y="416"/>
      <point x="61" y="416" type="qcurve" smooth="yes"/>
      <point x="91" y="416"/>
      <point x="91" y="446" type="qcurve" smooth="yes"/>
      <point x="91" y="506" type="line" smooth="yes"/>
      <point x="91" y="536"/>
      <point x="61" y="536" type="qcurve" smooth="yes"/>
      <point x="38" y="536"/>
      <point x="47" y="556" type="qcurve" smooth="yes"/>
      <point x="69" y="609"/>
      <point x="154" y="673"/>
      <point x="254" y="690"/>
      <point x="305" y="674" type="qcurve" smooth="yes"/>
      <point x="342" y="662"/>
      <point x="372" y="636" type="qcurve"/>
      <point x="381" y="643"/>
      <point x="390" y="649" type="qcurve" smooth="yes"/>
      <point x="443" y="684"/>
      <point x="506" y="684" type="qcurve" smooth="yes"/>
      <point x="691" y="684" type="line"/>
      <point x="691" y="536" type="line"/>
      <point x="506" y="536" type="line" smooth="yes"/>
      <point x="482" y="536"/>
      <point x="456" y="516"/>
      <point x="449" y="493" type="qcurve"/>
      <point x="446" y="482" type="line"/>
      <point x="446" y="476"/>
      <point x="446" y="471" type="qcurve"/>
      <point x="447" y="450"/>
      <point x="447" y="428" type="qcurve" smooth="yes"/>
      <point x="447" y="417" type="line"/>
      <point x="655" y="417" type="line"/>
      <point x="655" y="268" type="line"/>
      <point x="447" y="268" type="line"/>
      <point x="447" y="153" type="line"/>
    </contour>
    <contour>
      <point x="298" y="433" type="line" smooth="yes"/>
      <point x="298" y="450"/>
      <point x="301" y="484"/>
      <point x="293" y="501" type="qcurve" smooth="yes"/>
      <point x="284" y="520"/>
      <point x="260" y="536"/>
      <point x="239" y="536" type="qcurve" smooth="yes"/>
      <point x="218" y="536"/>
      <point x="194" y="520"/>
      <point x="185" y="501" type="qcurve" smooth="yes"/>
      <point x="177" y="484"/>
      <point x="180" y="450"/>
      <point x="180" y="433" type="qcurve" smooth="yes"/>
      <point x="180" y="297" type="line"/>
      <point x="298" y="297" type="line"/>
    </contour>
  </outline>
</glyph>
<glyph name="multiply" format="2">
  <advance width="484"/>
  <unicode hex="00D7"/>
  <outline>
    <contour>
      <point x="459" y="197" type="line"/>
      <point x="354" y="93" type="line"/>
      <point x="24" y="423" type="line"/>
      <point x="128" y="528" type="line"/>
    </contour>
    <contour>
      <point x="353" y="530" type="line"/>
      <point x="458" y="426" type="line"/>
      <point x="128" y="96" type="line"/>
      <point x="23" y="200" type="line"/>
    </contour>
  </outline>
</glyph>
<glyph name="Thorn" format="2">
  <advance width="474"/>
  <unicode hex="00DE"/>
  <outline>
    <contour>
      <point x="245" y="561" type="line" smooth="yes"/>
      <point x="288" y="561"/>
      <point x="364" y="528"/>
      <point x="420" y="472"/>
      <point x="453" y="396"/>
      <point x="453" y="353" type="qcurve" smooth="yes"/>
      <point x="453" y="310"/>
      <point x="420" y="234"/>
      <point x="364" y="178"/>
      <point x="288" y="145"/>
      <point x="245" y="145" type="qcurve" smooth="yes"/>
      <point x="186" y="145" type="line"/>
      <point x="186" y="119" type="line"/>
      <point x="185" y="119" type="line"/>
      <point x="185" y="0" type="line"/>
      <point x="37" y="0" type="line"/>
      <point x="37" y="387" type="line" smooth="yes"/>
      <point x="37" y="416"/>
      <point x="66" y="416" type="qcurve" smooth="yes"/>
      <point x="96" y="416"/>
      <point x="96" y="446" type="qcurve" smooth="yes"/>
      <point x="96" y="505" type="line" smooth="yes"/>
      <point x="96" y="535"/>
      <point x="66" y="535" type="qcurve" smooth="yes"/>
      <point x="37" y="535"/>
      <point x="37" y="565" type="qcurve" smooth="yes"/>
      <point x="37" y="684" type="line"/>
      <point x="185" y="684" type="line"/>
      <point x="185" y="561" type="line"/>
    </contour>
    <contour>
      <point x="305" y="353" type="qcurve" smooth="yes"/>
      <point x="305" y="378"/>
      <point x="270" y="412"/>
      <point x="245" y="412" type="qcurve" smooth="yes"/>
      <point x="186" y="412" type="line"/>
      <point x="186" y="294" type="line"/>
      <point x="245" y="294" type="line" smooth="yes"/>
      <point x="270" y="294"/>
      <point x="305" y="328"/>
    </contour>
  </outline>
</glyph>
<glyph name="germandbls" format="2">
  <advance width="467"/>
  <unicode hex="00DF"/>
  <outline>
    <contour>
      <point x="291" y="208" type="qcurve" smooth="yes"/>
      <point x="291" y="233"/>
      <point x="273" y="250" type="qcurve" smooth="yes"/>
      <point x="256" y="267"/>
      <point x="232" y="268" type="qcurve"/>
      <point x="185" y="268" type="line"/>
      <point x="185" y="0" type="line"/>
      <point x="37" y="0" type="line"/>
      <point x="36" y="344"/>
      <point x="37" y="396" type="qcurve"/>
      <point x="33" y="416"/>
      <point x="53" y="416" type="qcurve" smooth="yes"/>
      <point x="83" y="416"/>
      <point x="83" y="446" type="qcurve" smooth="yes"/>
      <point x="83" y="506" type="line" smooth="yes"/>
      <point x="83" y="535"/>
      <point x="53" y="535" type="qcurve" smooth="yes"/>
      <point x="31" y="535"/>
      <point x="39" y="556" type="qcurve"/>
      <point x="61" y="608"/>
      <point x="138" y="669"/>
      <point x="227" y="689"/>
      <point x="318" y="671"/>
      <point x="393" y="618"/>
      <point x="440" y="533"/>
      <point x="440" y="476" type="qcurve" smooth="yes"/>
      <point x="440" y="436"/>
      <point x="417" y="373"/>
      <point x="391" y="342" type="qcurve"/>
      <point x="417" y="311"/>
      <point x="440" y="248"/>
      <point x="440" y="208" type="qcurve" smooth="yes"/>
      <point x="440" y="165"/>
      <point x="407" y="89"/>
      <point x="350" y="33"/>
      <point x="274" y="0"/>
      <point x="232" y="0" type="qcurve"/>
      <point x="232" y="149" type="line"/>
      <point x="256" y="149"/>
      <point x="291" y="183"/>
    </contour>
    <contour>
      <point x="291" y="476" type="qcurve" smooth="yes"/>
      <point x="291" y="501"/>
      <point x="256" y="535"/>
      <point x="231" y="535" type="qcurve" smooth="yes"/>
      <point x="207" y="535"/>
      <point x="172" y="501"/>
      <point x="172" y="476" type="qcurve" smooth="yes"/>
      <point x="172" y="451"/>
      <point x="207" y="416"/>
      <point x="231" y="416" type="qcurve" smooth="yes"/>
      <point x="256" y="416"/>
      <point x="291" y="451"/>
    </contour>
  </outline>
</glyph>
<glyph name="eth" format="2">
  <advance width="522"/>
  <unicode hex="00F0"/>
  <outline>
    <contour>
      <point x="276" y="149" type="line" smooth="yes"/>
      <point x="307" y="149"/>
      <point x="325" y="174" type="qcurve" smooth="yes"/>
      <point x="335" y="187"/>
      <point x="336" y="214"/>
      <point x="336" y="228" type="qcurve" smooth="yes"/>
      <point x="336" y="342" type="line"/>
      <point x="336" y="455" type="line" smooth="yes"/>
      <point x="336" y="470"/>
      <point x="335" y="496"/>
      <point x="325" y="510" type="qcurve" smooth="yes"/>
      <point x="307" y="535"/>
      <point x="276" y="535" type="qcurve" smooth="yes"/>
      <point x="217" y="535" type="line"/>
      <point x="217" y="476" type="line"/>
      <point x="217" y="446" type="line"/>
      <point x="217" y="238" type="line"/>
      <point x="217" y="208" type="line"/>
      <point x="217" y="149" type="line"/>
    </contour>
    <contour>
      <point x="276" y="684" type="line" smooth="yes"/>
      <point x="336" y="684"/>
      <point x="436" y="622"/>
      <point x="463" y="569" type="qcurve" smooth="yes"/>
      <point x="477" y="540"/>
      <point x="490" y="484"/>
      <point x="494" y="427"/>
      <point x="493" y="371"/>
      <point x="493" y="342" type="qcurve" smooth="yes"/>
      <point x="493" y="313"/>
      <point x="494" y="257"/>
      <point x="490" y="200"/>
      <point x="477" y="144"/>
      <point x="463" y="115" type="qcurve" smooth="yes"/>
      <point x="436" y="61"/>
      <point x="336" y="0"/>
      <point x="276" y="0" type="qcurve" smooth="yes"/>
      <point x="217" y="0" type="line"/>
      <point x="68" y="0" type="line"/>
      <point x="68" y="208" type="line"/>
      <point x="68" y="238" type="line"/>
      <point x="68" y="449" type="line" smooth="yes"/>
      <point x="68" y="478"/>
      <point x="98" y="478" type="qcurve" smooth="yes"/>
      <point x="128" y="478"/>
      <point x="128" y="508" type="qcurve" smooth="yes"/>
      <point x="128" y="567" type="line" smooth="yes"/>
      <point x="128" y="597"/>
      <point x="98" y="597" type="qcurve" smooth="yes"/>
      <point x="68" y="597"/>
      <point x="68" y="627" type="qcurve" smooth="yes"/>
      <point x="68" y="684" type="line"/>
      <point x="217" y="684" type="line"/>
    </contour>
    <contour>
      <point x="259" y="432" type="line"/>
      <point x="259" y="284" type="line"/>
      <point x="26" y="284" type="line"/>
      <point x="26" y="432" type="line"/>
    </contour>
  </outline>
</glyph>
<glyph name="hbar" format="2">
  <advance width="550"/>
  <unicode hex="0127"/>
  <outline>
    <contour>
      <point x="125" y="238" type="line" smooth="yes"/>
      <point x="125" y="268"/>
      <point x="96" y="268" type="qcurve" smooth="yes"/>
      <point x="66" y="268"/>
      <point x="66" y="297" type="qcurve" smooth="yes"/>
      <point x="66" y="684" type="line"/>
      <point x="214" y="684" type="line"/>
      <point x="214" y="326" type="line"/>
      <point x="333" y="326" type="line"/>
      <point x="333" y="684" type="line"/>
      <point x="482" y="684" type="line"/>
      <point x="482" y="0" type="line"/>
      <point x="333" y="0" type="line"/>
      <point x="333" y="177" type="line"/>
      <point x="214" y="177" type="line"/>
      <point x="214" y="0" type="line"/>
      <point x="66" y="0" type="line"/>
      <point x="66" y="119" type="line" smooth="yes"/>
      <point x="66" y="149"/>
      <point x="96" y="149" type="qcurve" smooth="yes"/>
      <point x="112" y="149"/>
      <point x="125" y="162"/>
      <point x="125" y="179" type="qcurve" smooth="yes"/>
    </contour>
    <contour>
      <point x="534" y="625" type="line"/>
      <point x="534" y="486" type="line"/>
      <point x="13" y="486" type="line"/>
      <point x="13" y="625" type="line"/>
    </contour>
  </outline>
</glyph>
<glyph name="iogonek" format="2">
  <advance width="224"/>
  <unicode hex="012F"/>
  <outline>
    <contour>
      <point x="96" y="446" type="qcurve" smooth="yes"/>
      <point x="96" y="505" type="line" smooth="yes"/>
      <point x="96" y="535"/>
      <point x="66" y="535" type="qcurve" smooth="yes"/>
      <point x="37" y="535"/>
      <point x="37" y="565" type="qcurve" smooth="yes"/>
      <point x="37" y="684" type="line"/>
      <point x="185" y="684" type="line"/>
      <point x="185" y="416" type="line"/>
      <point x="185" y="267" type="line"/>
      <point x="185" y="0" type="line"/>
      <point x="37" y="0" type="line"/>
      <point x="37" y="387" type="line" smooth="yes"/>
      <point x="37" y="416"/>
      <point x="66" y="416" type="qcurve" smooth="yes"/>
      <point x="96" y="416"/>
    </contour>
    <contour>
      <point x="185" y="-140" type="line" smooth="yes"/>
      <point x="185" y="-159"/>
      <point x="170" y="-194"/>
      <point x="146" y="-219"/>
      <point x="114" y="-234"/>
      <point x="96" y="-234" type="qcurve" smooth="yes"/>
      <point x="78" y="-234"/>
      <point x="45" y="-219"/>
      <point x="21" y="-194"/>
      <point x="6" y="-159"/>
      <point x="6" y="-140" type="qcurve" smooth="yes"/>
      <point x="6" y="-113" type="line" smooth="yes"/>
      <point x="6" y="-92"/>
      <point x="21" y="-59"/>
      <point x="45" y="-33"/>
      <point x="78" y="-18"/>
      <point x="96" y="-18" type="qcurve" smooth="yes"/>
      <point x="122" y="-18" type="line"/>
      <point x="122" y="33" type="line"/>
      <point x="185" y="33" type="line"/>
      <point x="185" y="-86" type="line"/>
      <point x="96" y="-86" type="line" smooth="yes"/>
      <point x="86" y="-86"/>
      <point x="69" y="-102"/>
      <point x="69" y="-113" type="qcurve" smooth="yes"/>
      <point x="69" y="-140" type="line" smooth="yes"/>
      <point x="69" y="-151"/>
      <point x="86" y="-166"/>
      <point x="96" y="-166" type="qcurve" smooth="yes"/>
      <point x="106" y="-166"/>
      <point x="122" y="-151"/>
      <point x="122" y="-140" type="qcurve" smooth="yes"/>
      <point x="122" y="-126" type="line"/>
      <point x="185" y="-126" type="line"/>
    </contour>
  </outline>
</glyph>
<glyph name="Idotaccent" format="2">
  <advance width="224"/>
  <unicode hex="0130"/>
  <outline>
    <contour>
      <point x="96" y="446" type="qcurve" smooth="yes"/>
      <point x="96" y="505" type="line" smooth="yes"/>
      <point x="96" y="535"/>
      <point x="66" y="535" type="qcurve" smooth="yes"/>
      <point x="37" y="535"/>
      <point x="37" y="565" type="qcurve" smooth="yes"/>
      <point x="37" y="684" type="line"/>
      <point x="185" y="684" type="line"/>
      <point x="185" y="416" type="line"/>
      <point x="185" y="267" type="line"/>
      <point x="185" y="0" type="line"/>
      <point x="37" y="0" type="line"/>
      <point x="37" y="387" type="line" smooth="yes"/>
      <point x="37" y="416"/>
      <point x="66" y="416" type="qcurve" smooth="yes"/>
      <point x="96" y="416"/>
    </contour>
    <contour>
      <point x="40" y="804" type="qcurve" smooth="yes"/>
      <point x="40" y="833"/>
      <point x="83" y="876"/>
      <point x="112" y="876" type="qcurve" smooth="yes"/>
      <point x="141" y="876"/>
      <point x="184" y="833"/>
      <point x="184" y="804" type="qcurve" smooth="yes"/>
      <point x="184" y="775"/>
      <point x="141" y="732"/>
      <point x="112" y="732" type="qcurve" smooth="yes"/>
      <point x="83" y="732"/>
      <point x="40" y="775"/>
    </contour>
  </outline>
</glyph>
<glyph name="Lcaron" format="2">
  <advance width="355"/>
  <unicode hex="013D"/>
  <outline>
    <contour>
      <point x="97" y="446" type="qcurve" smooth="yes"/>
      <point x="97" y="505" type="line" smooth="yes"/>
      <point x="97" y="535"/>
      <point x="67" y="535" type="qcurve" smooth="yes"/>
      <point x="38" y="535"/>
      <point x="38" y="565" type="qcurve" smooth="yes"/>
      <point x="38" y="684" type="line"/>
      <point x="186" y="684" type="line"/>
      <point x="186" y="416" type="line"/>
      <point x="186" y="267" type="line"/>
      <point x="186" y="148" type="line"/>
      <point x="335" y="148" type="line"/>
      <point x="335" y="0" type="line"/>
      <point x="186" y="0" type="line"/>
      <point x="38" y="0" type="line"/>
      <point x="38" y="386" type="line" smooth="yes"/>
      <point x="38" y="416"/>
      <point x="67" y="416" type="qcurve" smooth="yes"/>
      <point x="97" y="416"/>
    </contour>
    <contour>
      <point x="144" y="854" type="line"/>
      <point x="196" y="776" type="line"/>
      <point x="249" y="854" type="line"/>
      <point x="367" y="854" type="line"/>
      <point x="282" y="724" type="line"/>
      <point x="111" y="724" type="line"/>
      <point x="26" y="854" type="line"/>
    </contour>
  </outline>
</glyph>
<glyph name="lcaron" format="2">
  <advance width="379"/>
  <unicode hex="013E"/>
  <outline>
    <contour>
      <point x="368" y="684" type="line"/>
      <point x="335" y="465" type="line"/>
      <point x="253" y="465" type="line"/>
      <point x="255" y="548" type="line"/>
      <point x="219" y="558" type="line"/>
      <point x="219" y="684" type="line"/>
    </contour>
    <contour>
      <point x="97" y="446" type="qcurve" smooth="yes"/>
      <point x="97" y="505" type="line" smooth="yes"/>
      <point x="97" y="535"/>
      <point x="67" y="535" type="qcurve" smooth="yes"/>
      <point x="38" y="535"/>
      <point x="38" y="565" type="qcurve" smooth="yes"/>
      <point x="38" y="684" type="line"/>
      <point x="186" y="684" type="line"/>
      <point x="186" y="416" type="line"/>
      <point x="186" y="267" type="line"/>
      <point x="186" y="148" type="line"/>
      <point x="335" y="148" type="line"/>
      <point x="335" y="0" type="line"/>
      <point x="186" y="0" type="line"/>
      <point x="38" y="0" type="line"/>
      <point x="38" y="386" type="line" smooth="yes"/>
      <point x="38" y="416"/>
      <point x="67" y="416" type="qcurve" smooth="yes"/>
      <point x="97" y="416"/>
    </contour>
  </outline>
</glyph>
<glyph name="Ldot" format="2">
  <advance width="379"/>
  <unicode hex="013F"/>
  <outline>
    <contour>
      <point x="211" y="364" type="qcurve" smooth="yes"/>
      <point x="211" y="335"/>
      <point x="254" y="292"/>
      <point x="283" y="292" type="qcurve" smooth="yes"/>
      <point x="312" y="292"/>
      <point x="355" y="335"/>
      <point x="355" y="364" type="qcurve" smooth="yes"/>
      <point x="355" y="393"/>
      <point x="312" y="436"/>
      <point x="283" y="436" type="qcurve" smooth="yes"/>
      <point x="254" y="436"/>
      <point x="211" y="393"/>
    </contour>
    <contour>
      <point x="97" y="446" type="qcurve" smooth="yes"/>
      <point x="97" y="505" type="line" smooth="yes"/>
      <point x="97" y="535"/>
      <point x="67" y="535" type="qcurve" smooth="yes"/>
      <point x="38" y="535"/>
      <point x="38" y="565" type="qcurve" smooth="yes"/>
      <point x="38" y="684" type="line"/>
      <point x="186" y="684" type="line"/>
      <point x="186" y="416" type="line"/>
      <point x="186" y="267" type="line"/>
      <point x="186" y="148" type="line"/>
      <point x="335" y="148" type="line"/>
      <point x="335" y="0" type="line"/>
      <point x="186" y="0" type="line"/>
      <point x="38" y="0" type="line"/>
      <point x="38" y="386" type="line" smooth="yes"/>
      <point x="38" y="416"/>
      <point x="67" y="416" type="qcurve" smooth="yes"/>
      <point x="97" y="416"/>
    </contour>
  </outline>
</glyph>
<glyph name="lslash" format="2">
  <advance width="384"/>
  <unicode hex="0142"/>
  <outline>
    <contour>
      <point x="330" y="399" type="line"/>
      <point x="330" y="251" type="line"/>
      <point x="13" y="158" type="line"/>
      <point x="13" y="306" type="line"/>
    </contour>
    <contour>
      <point x="123" y="446" type="qcurve" smooth="yes"/>
      <point x="123" y="505" type="line" smooth="yes"/>
      <point x="123" y="535"/>
      <point x="93" y="535" type="qcurve" smooth="yes"/>
      <point x="64" y="535"/>
      <point x="64" y="565" type="qcurve" smooth="yes"/>
      <point x="64" y="684" type="line"/>
      <point x="212" y="684" type="line"/>
      <point x="212" y="416" type="line"/>
      <point x="212" y="267" type="line"/>
      <point x="212" y="148" type="line"/>
      <point x="361" y="148" type="line"/>
      <point x="361" y="0" type="line"/>
      <point x="212" y="0" type="line"/>
      <point x="64" y="0" type="line"/>
      <point x="64" y="386" type="line" smooth="yes"/>
      <point x="64" y="416"/>
      <point x="93" y="416" type="qcurve" smooth="yes"/>
      <point x="123" y="416"/>
    </contour>
  </outline>
</glyph>
<glyph name="OE" format="2">
  <advance width="707"/>
  <unicode hex="0152"/>
  <outline>
    <contour>
      <point x="686" y="149" type="line"/>
      <point x="686" y="0" type="line"/>
      <point x="501" y="0" type="line" smooth="yes"/>
      <point x="435" y="0"/>
      <point x="382" y="37" type="qcurve"/>
      <point x="375" y="41"/>
      <point x="369" y="46" type="qcurve"/>
      <point x="368" y="45"/>
      <point x="366" y="44" type="qcurve" smooth="yes"/>
      <point x="334" y="18"/>
      <point x="281" y="6" type="qcurve" smooth="yes"/>
      <point x="232" y="-5"/>
      <point x="141" y="18"/>
      <point x="70" y="74"/>
      <point x="27" y="159"/>
      <point x="27" y="209" type="qcurve" smooth="yes"/>
      <point x="27" y="387" type="line" smooth="yes"/>
      <point x="27" y="417"/>
      <point x="57" y="417" type="qcurve" smooth="yes"/>
      <point x="87" y="417"/>
      <point x="87" y="447" type="qcurve" smooth="yes"/>
      <point x="87" y="506" type="line" smooth="yes"/>
      <point x="87" y="536"/>
      <point x="57" y="536" type="qcurve" smooth="yes"/>
      <point x="35" y="536"/>
      <point x="43" y="556" type="qcurve" smooth="yes"/>
      <point x="62" y="602"/>
      <point x="135" y="664"/>
      <point x="222" y="689"/>
      <point x="315" y="675"/>
      <point x="356" y="646" type="qcurve" smooth="yes"/>
      <point x="362" y="641"/>
      <point x="368" y="636" type="qcurve"/>
      <point x="376" y="643"/>
      <point x="385" y="649" type="qcurve" smooth="yes"/>
      <point x="438" y="684"/>
      <point x="501" y="684" type="qcurve" smooth="yes"/>
      <point x="686" y="684" type="line"/>
      <point x="686" y="536" type="line"/>
      <point x="501" y="536" type="line" smooth="yes"/>
      <point x="477" y="536"/>
      <point x="451" y="516"/>
      <point x="444" y="495" type="qcurve"/>
      <point x="445" y="489"/>
      <point x="446" y="483" type="qcurve" smooth="yes"/>
      <point x="450" y="450"/>
      <point x="450" y="417" type="qcurve"/>
      <point x="650" y="417" type="line"/>
      <point x="650" y="268" type="line"/>
      <point x="447" y="268" type="line"/>
      <point x="446" y="238"/>
      <point x="446" y="209" type="qcurve" smooth="yes"/>
      <point x="446" y="199"/>
      <point x="444" y="190" type="qcurve"/>
      <point x="451" y="168"/>
      <point x="464" y="159" type="qcurve" smooth="yes"/>
      <point x="477" y="149"/>
      <point x="501" y="149" type="qcurve" smooth="yes"/>
    </contour>
    <contour>
      <point x="255" y="153" type="qcurve" smooth="yes"/>
      <point x="274" y="160"/>
      <point x="291" y="180"/>
      <point x="294" y="192" type="qcurve" smooth="yes"/>
      <point x="295" y="196"/>
      <point x="295" y="199" type="qcurve"/>
      <point x="294" y="224"/>
      <point x="293" y="252" type="qcurve"/>
      <point x="293" y="387" type="line" smooth="yes"/>
      <point x="293" y="395"/>
      <point x="295" y="401" type="qcurve"/>
      <point x="295" y="476" type="line" smooth="yes"/>
      <point x="295" y="491"/>
      <point x="281" y="517"/>
      <point x="258" y="533"/>
      <point x="230" y="538"/>
      <point x="216" y="533" type="qcurve" smooth="yes"/>
      <point x="197" y="526"/>
      <point x="180" y="505"/>
      <point x="174" y="480"/>
      <point x="176" y="451"/>
      <point x="176" y="436" type="qcurve" smooth="yes"/>
      <point x="176" y="209" type="line" smooth="yes"/>
      <point x="176" y="194"/>
      <point x="190" y="168"/>
      <point x="212" y="152"/>
      <point x="240" y="148"/>
    </contour>
  </outline>
</glyph>
<glyph name="Tcaron" format="2">
  <advance width="415"/>
  <unicode hex="0164"/>
  <outline>
    <contour>
      <point x="190" y="446" type="qcurve" smooth="yes"/>
      <point x="190" y="505" type="line" smooth="yes"/>
      <point x="190" y="535"/>
      <point x="160" y="535" type="qcurve" smooth="yes"/>
      <point x="12" y="535" type="line"/>
      <point x="12" y="684" type="line"/>
      <point x="131" y="684" type="line"/>
      <point x="160" y="684" type="line"/>
      <point x="250" y="684" type="line"/>
      <point x="279" y="684" type="line"/>
      <point x="398" y="684" type="line"/>
      <point x="398" y="535" type="line"/>
      <point x="279" y="535" type="line"/>
      <point x="279" y="416" type="line"/>
      <point x="279" y="267" type="line"/>
      <point x="279" y="0" type="line"/>
      <point x="131" y="0" type="line"/>
      <point x="131" y="386" type="line" smooth="yes"/>
      <point x="131" y="416"/>
      <point x="160" y="416" type="qcurve" smooth="yes"/>
      <point x="190" y="416"/>
    </contour>
    <contour>
      <point x="169" y="854" type="line"/>
      <point x="221" y="776" type="line"/>
      <point x="274" y="854" type="line"/>
      <point x="392" y="854" type="line"/>
      <point x="307" y="724" type="line"/>
      <point x="136" y="724" type="line"/>
      <point x="51" y="854" type="line"/>
    </contour>
  </outline>
</glyph>
<glyph name="Tbar" format="2">
  <advance width="415"/>
  <unicode hex="0166"/>
  <outline>
    <contour>
      <point x="363" y="479" type="line"/>
      <point x="363" y="358" type="line"/>
      <point x="69" y="358" type="line"/>
      <point x="69" y="479" type="line"/>
    </contour>
    <contour>
      <point x="190" y="446" type="qcurve" smooth="yes"/>
      <point x="190" y="505" type="line" smooth="yes"/>
      <point x="190" y="535"/>
      <point x="160" y="535" type="qcurve" smooth="yes"/>
      <point x="12" y="535" type="line"/>
      <point x="12" y="684" type="line"/>
      <point x="131" y="684" type="line"/>
      <point x="160" y="684" type="line"/>
      <point x="250" y="684" type="line"/>
      <point x="279" y="684" type="line"/>
      <point x="398" y="684" type="line"/>
      <point x="398" y="535" type="line"/>
      <point x="279" y="535" type="line"/>
      <point x="279" y="416" type="line"/>
      <point x="279" y="267" type="line"/>
      <point x="279" y="0" type="line"/>
      <point x="131" y="0" type="line"/>
      <point x="131" y="386" type="line" smooth="yes"/>
      <point x="131" y="416"/>
      <point x="160" y="416" type="qcurve" smooth="yes"/>
      <point x="190" y="416"/>
    </contour>
  </outline>
</glyph>
<glyph name="uogonek" format="2">
  <advance width="475"/>
  <unicode hex="0173"/>
  <outline>
    <contour>
      <point x="88" y="447" type="qcurve" smooth="yes"/>
      <point x="88" y="506" type="line" smooth="yes"/>
      <point x="88" y="536"/>
      <point x="59" y="536" type="qcurve" smooth="yes"/>
      <point x="29" y="536"/>
      <point x="29" y="566" type="qcurve" smooth="yes"/>
      <point x="29" y="685" type="line"/>
      <point x="178" y="685" type="line"/>
      <point x="178" y="400" type="line"/>
      <point x="178" y="258" type="line" smooth="yes"/>
      <point x="178" y="240"/>
      <point x="174" y="206"/>
      <point x="181" y="188" type="qcurve" smooth="yes"/>
      <point x="189" y="167"/>
      <point x="214" y="149"/>
      <point x="237" y="149" type="qcurve" smooth="yes"/>
      <point x="260" y="149"/>
      <point x="285" y="167"/>
      <point x="293" y="188" type="qcurve" smooth="yes"/>
      <point x="300" y="206"/>
      <point x="296" y="240"/>
      <point x="296" y="258" type="qcurve" smooth="yes"/>
      <point x="296" y="400" type="line"/>
      <point x="296" y="685" type="line"/>
      <point x="445" y="685" type="line"/>
      <point x="445" y="358" type="line" smooth="yes"/>
      <point x="445" y="320"/>
      <point x="449" y="239"/>
      <point x="440" y="158"/>
      <point x="409" y="83"/>
      <point x="373" y="52" type="qcurve" smooth="yes"/>
      <point x="341" y="23"/>
      <point x="262" y="-2"/>
      <point x="183" y="4"/>
      <point x="108" y="40"/>
      <point x="80" y="73" type="qcurve" smooth="yes"/>
      <point x="54" y="103"/>
      <point x="32" y="185"/>
      <point x="26" y="272"/>
      <point x="29" y="355"/>
      <point x="29" y="387" type="qcurve" smooth="yes"/>
      <point x="29" y="417"/>
      <point x="59" y="417" type="qcurve" smooth="yes"/>
      <point x="88" y="417"/>
    </contour>
    <contour>
      <point x="295" y="-140" type="line" smooth="yes"/>
      <point x="295" y="-159"/>
      <point x="280" y="-194"/>
      <point x="256" y="-219"/>
      <point x="224" y="-234"/>
      <point x="206" y="-234" type="qcurve" smooth="yes"/>
      <point x="188" y="-234"/>
      <point x="155" y="-219"/>
      <point x="131" y="-194"/>
      <point x="116" y="-159"/>
      <point x="116" y="-140" type="qcurve" smooth="yes"/>
      <point x="116" y="-113" type="line" smooth="yes"/>
      <point x="116" y="-92"/>
      <point x="131" y="-59"/>
      <point x="155" y="-33"/>
      <point x="188" y="-18"/>
      <point x="206" y="-18" type="qcurve" smooth="yes"/>
      <point x="232" y="-18" type="line"/>
      <point x="232" y="33" type="line"/>
      <point x="295" y="33" type="line"/>
      <point x="295" y="-86" type="line"/>
      <point x="206" y="-86" type="line" smooth="yes"/>
      <point x="196" y="-86"/>
      <point x="179" y="-102"/>
      <point x="179" y="-113" type="qcurve" smooth="yes"/>
      <point x="179" y="-140" type="line" smooth="yes"/>
      <point x="179" y="-151"/>
      <point x="196" y="-166"/>
      <point x="206" y="-166" type="qcurve" smooth="yes"/>
      <point x="216" y="-166"/>
      <point x="232" y="-151"/>
      <point x="232" y="-140" type="qcurve" smooth="yes"/>
      <point x="232" y="-126" type="line"/>
      <point x="295" y="-126" type="line"/>
    </contour>
  </outline>
</glyph>
<glyph name="uni021A" format="2">
  <advance width="415"/>
  <unicode hex="021A"/>
  <outline>
    <contour>
      <point x="190" y="446" type="qcurve" smooth="yes"/>
      <point x="190" y="505" type="line" smooth="yes"/>
      <point x="190" y="535"/>
      <point x="160" y="535" type="qcurve" smooth="yes"/>
      <point x="12" y="535" type="line"/>
      <point x="12" y="684" type="line"/>
      <point x="131" y="684" type="line"/>
      <point x="160" y="684" type="line"/>
      <point x="250" y="684" type="line"/>
      <point x="279" y="684" type="line"/>
      <point x="398" y="684" type="line"/>
      <point x="398" y="535" type="line"/>
      <point x="279" y="535" type="line"/>
      <point x="279" y="416" type="line"/>
      <point x="279" y="267" type="line"/>
      <point x="279" y="0" type="line"/>
      <point x="131" y="0" type="line"/>
      <point x="131" y="386" type="line" smooth="yes"/>
      <point x="131" y="416"/>
      <point x="160" y="416" type="qcurve" smooth="yes"/>
      <point x="190" y="416"/>
    </contour>
    <contour>
      <point x="278" y="-40" type="line"/>
      <point x="245" y="-259" type="line"/>
      <point x="163" y="-259" type="line"/>
      <point x="165" y="-176" type="line"/>
      <point x="129" y="-166" type="line"/>
      <point x="129" y="-40" type="line"/>
    </contour>
  </outline>
</glyph>
<glyph name="uni0237" format="2">
  <advance width="214"/>
  <unicode hex="0237"/>
  <outline>
    <contour>
      <point x="181" y="-24" type="line"/>
      <point x="148" y="-243" type="line"/>
      <point x="66" y="-243" type="line"/>
      <point x="68" y="-160" type="line"/>
      <point x="32" y="-150" type="line"/>
      <point x="32" y="-24" type="line"/>
    </contour>
  </outline>
</glyph>
<glyph name="circumflex" format="2">
  <advance width="683"/>
  <unicode hex="02C6"/>
  <outline>
    <contour>
      <point x="268" y="851" type="line"/>
      <point x="209" y="716" type="line"/>
      <point x="95" y="716" type="line"/>
      <point x="154" y="851" type="line"/>
    </contour>
    <contour>
      <point x="414" y="851" type="line"/>
      <point x="472" y="716" type="line"/>
      <point x="358" y="716" type="line"/>
      <point x="299" y="851" type="line"/>
    </contour>
  </outline>
</glyph>
<glyph name="caron" format="2">
  <advance width="564"/>
  <unicode hex="02C7"/>
  <outline>
    <contour>
      <point x="236" y="854" type="line"/>
      <point x="288" y="776" type="line"/>
      <point x="341" y="854" type="line"/>
      <point x="459" y="854" type="line"/>
      <point x="374" y="724" type="line"/>
      <point x="203" y="724" type="line"/>
      <point x="118" y="854" type="line"/>
    </contour>
  </outline>
</glyph>
<glyph name="breve" format="2">
  <advance width="482"/>
  <unicode hex="02D8"/>
  <outline>
    <contour>
      <point x="261" y="817" type="qcurve" smooth="yes"/>
      <point x="274" y="821"/>
      <point x="285" y="834"/>
      <point x="289" y="850"/>
      <point x="289" y="859" type="qcurve"/>
      <point x="288" y="863" type="line"/>
      <point x="389" y="863" type="line"/>
      <point x="388" y="853" type="line"/>
      <point x="388" y="824"/>
      <point x="373" y="794" type="qcurve" smooth="yes"/>
      <point x="357" y="763"/>
      <point x="314" y="730"/>
      <point x="279" y="722" type="qcurve" smooth="yes"/>
      <point x="246" y="715"/>
      <point x="186" y="730"/>
      <point x="139" y="766"/>
      <point x="110" y="820"/>
      <point x="110" y="853" type="qcurve" smooth="yes"/>
      <point x="110" y="863" type="line"/>
      <point x="209" y="863" type="line"/>
      <point x="209" y="853" type="line" smooth="yes"/>
      <point x="209" y="843"/>
      <point x="218" y="826"/>
      <point x="233" y="816"/>
      <point x="251" y="813"/>
    </contour>
  </outline>
</glyph>
<glyph name="dotaccent" format="2">
  <advance width="216"/>
  <unicode hex="02D9"/>
  <outline>
    <contour>
      <point x="40" y="804" type="qcurve" smooth="yes"/>
      <point x="40" y="833"/>
      <point x="83" y="876"/>
      <point x="112" y="876" type="qcurve" smooth="yes"/>
      <point x="141" y="876"/>
      <point x="184" y="833"/>
      <point x="184" y="804" type="qcurve" smooth="yes"/>
      <point x="184" y="775"/>
      <point x="141" y="732"/>
      <point x="112" y="732" type="qcurve" smooth="yes"/>
      <point x="83" y="732"/>
      <point x="40" y="775"/>
    </contour>
  </outline>
</glyph>
<glyph name="ogonek" format="2">
  <advance width="257"/>
  <unicode hex="02DB"/>
  <outline>
    <contour>
      <point x="257" y="-140" type="line" smooth="yes"/>
      <point x="257" y="-159"/>
      <point x="242" y="-194"/>
      <point x="218" y="-219"/>
      <point x="186" y="-234"/>
      <point x="168" y="-234" type="qcurve" smooth="yes"/>
      <point x="150" y="-234"/>
      <point x="117" y="-219"/>
      <point x="93" y="-194"/>
      <point x="78" y="-159"/>
      <point x="78" y="-140" type="qcurve" smooth="yes"/>
      <point x="78" y="-113" type="line" smooth="yes"/>
      <point x="78" y="-92"/>
      <point x="93" y="-59"/>
      <point x="117" y="-33"/>
      <point x="150" y="-18"/>
      <point x="168" y="-18" type="qcurve" smooth="yes"/>
      <point x="194" y="-18" type="line"/>
      <point x="194" y="33" type="line"/>
      <point x="257" y="33" type="line"/>
      <point x="257" y="-86" type="line"/>
      <point x="168" y="-86" type="line" smooth="yes"/>
      <point x="158" y="-86"/>
      <point x="141" y="-102"/>
      <point x="141" y="-113" type="qcurve" smooth="yes"/>
      <point x="141" y="-140" type="line" smooth="yes"/>
      <point x="141" y="-151"/>
      <point x="158" y="-166"/>
      <point x="168" y="-166" type="qcurve" smooth="yes"/>
      <point x="178" y="-166"/>
      <point x="194" y="-151"/>
      <point x="194" y="-140" type="qcurve" smooth="yes"/>
      <point x="194" y="-126" type="line"/>
      <point x="257" y="-126" type="line"/>
    </contour>
  </outline>
</glyph>
<glyph name="tilde" format="2">
  <advance width="419"/>
  <unicode hex="02DC"/>
  <outline>
    <contour>
      <point x="387" y="835" type="line"/>
      <point x="377" y="815"/>
      <point x="354" y="776"/>
      <point x="324" y="744"/>
      <point x="286" y="724"/>
      <point x="262" y="724" type="qcurve" smooth="yes"/>
      <point x="240" y="724"/>
      <point x="196" y="747"/>
      <point x="179" y="758" type="qcurve" smooth="yes"/>
      <point x="168" y="765"/>
      <point x="152" y="776"/>
      <point x="139" y="776"/>
      <point x="127" y="764"/>
      <point x="120" y="749" type="qcurve" smooth="yes"/>
      <point x="118" y="744"/>
      <point x="109" y="725"/>
      <point x="107" y="721" type="qcurve"/>
      <point x="21" y="757" type="line"/>
      <point x="30" y="777"/>
      <point x="53" y="817"/>
      <point x="84" y="848"/>
      <point x="122" y="868"/>
      <point x="145" y="868" type="qcurve" smooth="yes"/>
      <point x="167" y="868"/>
      <point x="210" y="846"/>
      <point x="227" y="834" type="qcurve" smooth="yes"/>
      <point x="245" y="822"/>
      <point x="265" y="817"/>
      <point x="280" y="827"/>
      <point x="293" y="851"/>
      <point x="303" y="868" type="qcurve"/>
    </contour>
  </outline>
</glyph>
<glyph name="hungarumlaut" format="2">
  <advance width="527"/>
  <unicode hex="02DD"/>
  <outline>
    <contour>
      <point x="257" y="864" type="line"/>
      <point x="175" y="734" type="line"/>
      <point x="74" y="734" type="line"/>
      <point x="133" y="864" type="line"/>
    </contour>
    <contour>
      <point x="475" y="864" type="line"/>
      <point x="390" y="734" type="line"/>
      <point x="289" y="734" type="line"/>
      <point x="348" y="864" type="line"/>
    </contour>
  </outline>
</glyph>
<glyph name="acutecomb" format="2">
  <advance width="453"/>
  <unicode hex="0301"/>
  <outline>
    <contour>
      <point x="147" y="726" type="line"/>
      <point x="206" y="856" type="line"/>
      <point x="317" y="856" type="line"/>
      <point x="248" y="726" type="line"/>
    </contour>
  </outline>
</glyph>
<glyph name="uni0302" format="2">
  <advance width="683"/>
  <unicode hex="0302"/>
  <outline>
    <contour>
      <point x="95" y="716" type="line"/>
      <point x="154" y="851" type="line"/>
      <point x="268" y="851" type="line"/>
      <point x="209" y="716" type="line"/>
    </contour>
    <contour>
      <point x="358" y="716" type="line"/>
      <point x="299" y="851" type="line"/>
      <point x="414" y="851" type="line"/>
      <point x="472" y="716" type="line"/>
    </contour>
  </outline>
</glyph>
<glyph name="uni0304" format="2">
  <advance width="572"/>
  <unicode hex="0304"/>
  <outline>
    <contour>
      <point x="130" y="732" type="line"/>
      <point x="130" y="853" type="line"/>
      <point x="424" y="853" type="line"/>
      <point x="424" y="732" type="line"/>
    </contour>
  </outline>
</glyph>
<glyph name="uni0306" format="2">
  <advance width="482"/>
  <unicode hex="0306"/>
  <outline>
    <contour>
      <point x="110" y="863" type="line"/>
      <point x="209" y="863" type="line"/>
      <point x="209" y="853" type="line" smooth="yes"/>
      <point x="209" y="841"/>
      <point x="219" y="826"/>
      <point x="232" y="817"/>
      <point x="244" y="814"/>
      <point x="247" y="814" type="qcurve" smooth="yes"/>
      <point x="253" y="814"/>
      <point x="261" y="817" type="qcurve" smooth="yes"/>
      <point x="280" y="823"/>
      <point x="289" y="845"/>
      <point x="289" y="859" type="qcurve"/>
      <point x="288" y="863" type="line"/>
      <point x="389" y="863" type="line"/>
      <point x="388" y="853" type="line"/>
      <point x="388" y="824"/>
      <point x="373" y="794" type="qcurve" smooth="yes"/>
      <point x="357" y="763"/>
      <point x="314" y="730"/>
      <point x="279" y="722" type="qcurve"/>
      <point x="262" y="719"/>
      <point x="248" y="719" type="qcurve" smooth="yes"/>
      <point x="232" y="719"/>
      <point x="186" y="730"/>
      <point x="163" y="748" type="qcurve" smooth="yes"/>
      <point x="139" y="766"/>
      <point x="110" y="820"/>
      <point x="110" y="853" type="qcurve" smooth="yes"/>
    </contour>
  </outline>
</glyph>
<glyph name="uni0307" format="2">
  <advance width="216"/>
  <unicode hex="0307"/>
  <outline>
    <contour>
      <point x="112" y="732" type="qcurve" smooth="yes"/>
      <point x="83" y="732"/>
      <point x="40" y="775"/>
      <point x="40" y="804" type="qcurve" smooth="yes"/>
      <point x="40" y="833"/>
      <point x="83" y="876"/>
      <point x="112" y="876" type="qcurve" smooth="yes"/>
      <point x="141" y="876"/>
      <point x="184" y="833"/>
      <point x="184" y="804" type="qcurve" smooth="yes"/>
      <point x="184" y="775"/>
      <point x="141" y="732"/>
    </contour>
  </outline>
</glyph>
<glyph name="uni030A" format="2">
  <advance width="313"/>
  <unicode hex="030A"/>
  <outline>
    <contour>
      <point x="40" y="839" type="qcurve" smooth="yes"/>
      <point x="40" y="863"/>
      <point x="58" y="906"/>
      <point x="90" y="937"/>
      <point x="133" y="956"/>
      <point x="158" y="956" type="qcurve" smooth="yes"/>
      <point x="183" y="956"/>
      <point x="226" y="937"/>
      <point x="258" y="906"/>
      <point x="277" y="863"/>
      <point x="277" y="839" type="qcurve" smooth="yes"/>
      <point x="277" y="815"/>
      <point x="258" y="772"/>
      <point x="226" y="741"/>
      <point x="183" y="722"/>
      <point x="158" y="722" type="qcurve" smooth="yes"/>
      <point x="133" y="722"/>
      <point x="90" y="741"/>
      <point x="58" y="772"/>
      <point x="40" y="815"/>
    </contour>
    <contour>
      <point x="122" y="839" type="qcurve" smooth="yes"/>
      <point x="122" y="824"/>
      <point x="144" y="803"/>
      <point x="158" y="803" type="qcurve" smooth="yes"/>
      <point x="174" y="803"/>
      <point x="195" y="824"/>
      <point x="195" y="839" type="qcurve" smooth="yes"/>
      <point x="195" y="854"/>
      <point x="174" y="875"/>
      <point x="158" y="875" type="qcurve" smooth="yes"/>
      <point x="144" y="875"/>
      <point x="122" y="854"/>
    </contour>
  </outline>
</glyph>
<glyph name="uni030B" format="2">
  <advance width="527"/>
  <unicode hex="030B"/>
  <outline>
    <contour>
      <point x="74" y="734" type="line"/>
      <point x="133" y="864" type="line"/>
      <point x="257" y="864" type="line"/>
      <point x="175" y="734" type="line"/>
    </contour>
    <contour>
      <point x="289" y="734" type="line"/>
      <point x="348" y="864" type="line"/>
      <point x="475" y="864" type="line"/>
      <point x="390" y="734" type="line"/>
    </contour>
  </outline>
</glyph>
<glyph name="uni030C" format="2">
  <advance width="564"/>
  <unicode hex="030C"/>
  <outline>
    <contour>
      <point x="203" y="724" type="line"/>
      <point x="118" y="854" type="line"/>
      <point x="236" y="854" type="line"/>
      <point x="288" y="776" type="line"/>
      <point x="341" y="854" type="line"/>
      <point x="459" y="854" type="line"/>
      <point x="374" y="724" type="line"/>
    </contour>
  </outline>
</glyph>
<glyph name="uni0326" format="2">
  <advance width="387"/>
  <unicode hex="0326"/>
  <outline>
    <contour>
      <point x="153" y="-243" type="line"/>
      <point x="155" y="-160" type="line"/>
      <point x="119" y="-150" type="line"/>
      <point x="119" y="-24" type="line"/>
      <point x="268" y="-24" type="line"/>
      <point x="235" y="-243" type="line"/>
    </contour>
  </outline>
</glyph>
<glyph name="uni0327" format="2">
  <advance width="380"/>
  <unicode hex="0327"/>
  <outline>
    <contour>
      <point x="181" y="-140" type="line" smooth="yes"/>
      <point x="181" y="-151"/>
      <point x="197" y="-166"/>
      <point x="207" y="-166" type="qcurve" smooth="yes"/>
      <point x="217" y="-166"/>
      <point x="234" y="-151"/>
      <point x="234" y="-140" type="qcurve" smooth="yes"/>
      <point x="234" y="-113" type="line" smooth="yes"/>
      <point x="234" y="-102"/>
      <point x="217" y="-86"/>
      <point x="207" y="-86" type="qcurve" smooth="yes"/>
      <point x="118" y="-86" type="line"/>
      <point x="118" y="33" type="line"/>
      <point x="181" y="33" type="line"/>
      <point x="181" y="-18" type="line"/>
      <point x="207" y="-18" type="line" smooth="yes"/>
      <point x="225" y="-18"/>
      <point x="258" y="-33"/>
      <point x="282" y="-58"/>
      <point x="297" y="-93"/>
      <point x="297" y="-113" type="qcurve" smooth="yes"/>
      <point x="297" y="-140" type="line" smooth="yes"/>
      <point x="297" y="-160"/>
      <point x="282" y="-194"/>
      <point x="258" y="-219"/>
      <point x="225" y="-234"/>
      <point x="207" y="-234" type="qcurve" smooth="yes"/>
      <point x="189" y="-234"/>
      <point x="157" y="-219"/>
      <point x="133" y="-194"/>
      <point x="118" y="-160"/>
      <point x="118" y="-140" type="qcurve" smooth="yes"/>
      <point x="118" y="-126" type="line"/>
      <point x="181" y="-126" type="line"/>
    </contour>
  </outline>
</glyph>
<glyph name="Germandbls" format="2">
  <advance width="467"/>
  <unicode hex="1E9E"/>
  <outline>
    <contour>
      <point x="37" y="0" type="line"/>
      <point x="37" y="271" type="line"/>
      <point x="37" y="396" type="line"/>
      <point x="36" y="398"/>
      <point x="36" y="402" type="qcurve" smooth="yes"/>
      <point x="36" y="416"/>
      <point x="53" y="416" type="qcurve" smooth="yes"/>
      <point x="83" y="416"/>
      <point x="83" y="446" type="qcurve" smooth="yes"/>
      <point x="83" y="506" type="line" smooth="yes"/>
      <point x="83" y="535"/>
      <point x="53" y="535" type="qcurve" smooth="yes"/>
      <point x="37" y="535"/>
      <point x="37" y="546" type="qcurve"/>
      <point x="37" y="548"/>
      <point x="39" y="556" type="qcurve"/>
      <point x="61" y="608"/>
      <point x="138" y="669"/>
      <point x="172" y="677" type="qcurve" smooth="yes"/>
      <point x="204" y="684"/>
      <point x="230" y="684" type="qcurve" smooth="yes"/>
      <point x="251" y="684"/>
      <point x="318" y="671"/>
      <point x="356" y="645" type="qcurve" smooth="yes"/>
      <point x="394" y="618"/>
      <point x="440" y="533"/>
      <point x="440" y="476" type="qcurve" smooth="yes"/>
      <point x="440" y="436"/>
      <point x="417" y="373"/>
      <point x="391" y="342" type="qcurve"/>
      <point x="417" y="311"/>
      <point x="440" y="248"/>
      <point x="440" y="208" type="qcurve" smooth="yes"/>
      <point x="440" y="165"/>
      <point x="407" y="89"/>
      <point x="350" y="33"/>
      <point x="274" y="0"/>
      <point x="232" y="0" type="qcurve"/>
      <point x="232" y="149" type="line"/>
      <point x="256" y="149"/>
      <point x="291" y="183"/>
      <point x="291" y="208" type="qcurve" smooth="yes"/>
      <point x="291" y="233"/>
      <point x="273" y="250" type="qcurve" smooth="yes"/>
      <point x="257" y="266"/>
      <point x="232" y="268" type="qcurve"/>
      <point x="185" y="268" type="line"/>
      <point x="185" y="0" type="line"/>
    </contour>
    <contour>
      <point x="231" y="416" type="qcurve" smooth="yes"/>
      <point x="256" y="416"/>
      <point x="291" y="451"/>
      <point x="291" y="476" type="qcurve" smooth="yes"/>
      <point x="291" y="501"/>
      <point x="256" y="535"/>
      <point x="231" y="535" type="qcurve" smooth="yes"/>
      <point x="207" y="535"/>
      <point x="172" y="501"/>
      <point x="172" y="476" type="qcurve" smooth="yes"/>
      <point x="172" y="451"/>
      <point x="207" y="416"/>
    </contour>
  </outline>
</glyph>
<glyph name="endash" format="2">
  <advance width="419"/>
  <unicode hex="2013"/>
  <outline>
    <contour>
      <point x="386" y="432" type="line"/>
      <point x="386" y="284" type="line"/>
      <point x="34" y="284" type="line"/>
      <point x="34" y="432" type="line"/>
    </contour>
  </outline>
</glyph>
<glyph name="emdash" format="2">
  <advance width="505"/>
  <unicode hex="2014"/>
  <outline>
    <contour>
      <point x="477" y="432" type="line"/>
      <point x="477" y="284" type="line"/>
      <point x="34" y="284" type="line"/>
      <point x="34" y="432" type="line"/>
    </contour>
  </outline>
</glyph>
<glyph name="quoteleft" format="2">
  <advance width="222"/>
  <unicode hex="2018"/>
  <outline>
    <contour>
      <point x="188" y="684" type="line"/>
      <point x="188" y="465" type="line"/>
      <point x="39" y="465" type="line"/>
      <point x="39" y="684" type="line"/>
    </contour>
  </outline>
</glyph>
<glyph name="quoteright" format="2">
  <advance width="222"/>
  <unicode hex="2019"/>
  <outline>
    <contour>
      <point x="188" y="684" type="line"/>
      <point x="188" y="465" type="line"/>
      <point x="39" y="465" type="line"/>
      <point x="39" y="684" type="line"/>
    </contour>
  </outline>
</glyph>
<glyph name="quotesinglbase" format="2">
  <advance width="422"/>
  <unicode hex="201A"/>
  <outline>
    <contour>
      <point x="183" y="243" type="line"/>
      <point x="183" y="24" type="line"/>
      <point x="34" y="24" type="line"/>
      <point x="34" y="243" type="line"/>
    </contour>
  </outline>
</glyph>
<glyph name="quotedblright" format="2">
  <advance width="422"/>
  <unicode hex="201D"/>
  <outline>
    <contour>
      <point x="188" y="684" type="line"/>
      <point x="188" y="465" type="line"/>
      <point x="39" y="465" type="line"/>
      <point x="39" y="684" type="line"/>
    </contour>
    <contour>
      <point x="387" y="684" type="line"/>
      <point x="387" y="465" type="line"/>
      <point x="238" y="465" type="line"/>
      <point x="238" y="684" type="line"/>
    </contour>
  </outline>
</glyph>
<glyph name="quotedblbase" format="2">
  <advance width="422"/>
  <unicode hex="201E"/>
  <outline>
    <contour>
      <point x="186" y="148" type="line"/>
      <point x="186" y="-71" type="line"/>
      <point x="37" y="-71" type="line"/>
      <point x="37" y="148" type="line"/>
    </contour>
    <contour>
      <point x="385" y="148" type="line"/>
      <point x="385" y="-71" type="line"/>
      <point x="236" y="-71" type="line"/>
      <point x="236" y="148" type="line"/>
    </contour>
  </outline>
</glyph>
<glyph name="dagger" format="2">
  <advance width="428"/>
  <unicode hex="2020"/>
  <outline>
    <contour>
      <point x="134" y="766" type="line"/>
      <point x="282" y="766" type="line"/>
      <point x="282" y="-81" type="line"/>
      <point x="134" y="-81" type="line"/>
    </contour>
    <contour>
      <point x="404" y="598" type="line"/>
      <point x="404" y="450" type="line"/>
      <point x="20" y="450" type="line"/>
      <point x="20" y="598" type="line"/>
    </contour>
  </outline>
</glyph>
<glyph name="daggerdbl" format="2">
  <advance width="387"/>
  <unicode hex="2021"/>
  <outline>
    <contour>
      <point x="120" y="766" type="line"/>
      <point x="268" y="766" type="line"/>
      <point x="268" y="-81" type="line"/>
      <point x="120" y="-81" type="line"/>
    </contour>
    <contour>
      <point x="395" y="542" type="line"/>
      <point x="395" y="394" type="line"/>
      <point x="-7" y="394" type="line"/>
      <point x="-7" y="542" type="line"/>
    </contour>
    <contour>
      <point x="395" y="338" type="line"/>
      <point x="395" y="190" type="line"/>
      <point x="-7" y="190" type="line"/>
      <point x="-7" y="338" type="line"/>
    </contour>
  </outline>
</glyph>
<glyph name="bullet" format="2">
  <advance width="334"/>
  <unicode hex="2022"/>
  <outline>
    <contour>
      <point x="48" y="378" type="qcurve" smooth="yes"/>
      <point x="48" y="403"/>
      <point x="67" y="448"/>
      <point x="100" y="481"/>
      <point x="145" y="500"/>
      <point x="170" y="500" type="qcurve" smooth="yes"/>
      <point x="195" y="500"/>
      <point x="240" y="481"/>
      <point x="273" y="448"/>
      <point x="292" y="403"/>
      <point x="292" y="378" type="qcurve" smooth="yes"/>
      <point x="292" y="353"/>
      <point x="273" y="308"/>
      <point x="240" y="275"/>
      <point x="195" y="256"/>
      <point x="170" y="256" type="qcurve" smooth="yes"/>
      <point x="145" y="256"/>
      <point x="100" y="275"/>
      <point x="67" y="308"/>
      <point x="48" y="353"/>
    </contour>
  </outline>
</glyph>
<glyph name="ellipsis" format="2">
  <advance width="657"/>
  <unicode hex="2026"/>
  <outline>
    <contour>
      <point x="186" y="148" type="line"/>
      <point x="186" y="0" type="line"/>
      <point x="37" y="0" type="line"/>
      <point x="37" y="148" type="line"/>
    </contour>
    <contour>
      <point x="405" y="148" type="line"/>
      <point x="405" y="0" type="line"/>
      <point x="256" y="0" type="line"/>
      <point x="256" y="148" type="line"/>
    </contour>
    <contour>
      <point x="624" y="148" type="line"/>
      <point x="624" y="0" type="line"/>
      <point x="475" y="0" type="line"/>
      <point x="475" y="148" type="line"/>
    </contour>
  </outline>
</glyph>
<glyph name="perthousand" format="2">
  <advance width="1124"/>
  <unicode hex="2030"/>
  <outline>
    <contour>
      <point x="722" y="425" type="line"/>
      <point x="763" y="394"/>
      <point x="786" y="312"/>
      <point x="786" y="270" type="qcurve" smooth="yes"/>
      <point x="786" y="151" type="line"/>
      <point x="785" y="118"/>
      <point x="766" y="63"/>
      <point x="729" y="23"/>
      <point x="674" y="0"/>
      <point x="638" y="0" type="qcurve" smooth="yes"/>
      <point x="609" y="0"/>
      <point x="556" y="21"/>
      <point x="517" y="59"/>
      <point x="494" y="112"/>
      <point x="494" y="143" type="qcurve" smooth="yes"/>
      <point x="494" y="253" type="line" smooth="yes"/>
      <point x="494" y="288"/>
      <point x="529" y="288" type="qcurve"/>
      <point x="530" y="288"/>
      <point x="530" y="289" type="qcurve"/>
      <point x="530" y="326" type="line"/>
      <point x="529" y="327" type="line"/>
      <point x="490" y="327"/>
      <point x="505" y="364" type="qcurve"/>
      <point x="505" y="363" type="line"/>
      <point x="522" y="406"/>
      <point x="596" y="452"/>
      <point x="639" y="452" type="qcurve" smooth="yes"/>
      <point x="684" y="452"/>
      <point x="722" y="426" type="qcurve"/>
    </contour>
    <contour>
      <point x="646" y="126" type="line"/>
      <point x="656" y="129"/>
      <point x="659" y="146"/>
      <point x="658" y="157" type="qcurve"/>
      <point x="658" y="307" type="line" smooth="yes"/>
      <point x="658" y="318"/>
      <point x="641" y="329"/>
      <point x="632" y="326" type="qcurve" smooth="yes"/>
      <point x="621" y="322"/>
      <point x="617" y="305"/>
      <point x="618" y="294" type="qcurve"/>
      <point x="618" y="143" type="line" smooth="yes"/>
      <point x="618" y="133"/>
      <point x="635" y="121"/>
      <point x="644" y="126" type="qcurve"/>
    </contour>
    <contour>
      <point x="246" y="658" type="qcurve" smooth="yes"/>
      <point x="287" y="627"/>
      <point x="310" y="545"/>
      <point x="310" y="503" type="qcurve" smooth="yes"/>
      <point x="310" y="384" type="line" smooth="yes"/>
      <point x="310" y="351"/>
      <point x="290" y="296"/>
      <point x="253" y="255"/>
      <point x="198" y="232"/>
      <point x="162" y="232" type="qcurve" smooth="yes"/>
      <point x="133" y="232"/>
      <point x="80" y="254"/>
      <point x="41" y="292"/>
      <point x="18" y="345"/>
      <point x="18" y="376" type="qcurve" smooth="yes"/>
      <point x="18" y="485" type="line" smooth="yes"/>
      <point x="18" y="521"/>
      <point x="53" y="521" type="qcurve"/>
      <point x="55" y="521"/>
      <point x="55" y="522" type="qcurve"/>
      <point x="55" y="558" type="line"/>
      <point x="55" y="560"/>
      <point x="53" y="560" type="qcurve"/>
      <point x="13" y="560"/>
      <point x="30" y="596" type="qcurve"/>
      <point x="29" y="595" type="line"/>
      <point x="46" y="638"/>
      <point x="120" y="684"/>
      <point x="163" y="684" type="qcurve" smooth="yes"/>
      <point x="210" y="684"/>
    </contour>
    <contour>
      <point x="170" y="358" type="line"/>
      <point x="180" y="362"/>
      <point x="183" y="379"/>
      <point x="182" y="389" type="qcurve"/>
      <point x="182" y="539" type="line" smooth="yes"/>
      <point x="182" y="551"/>
      <point x="165" y="562"/>
      <point x="156" y="559" type="qcurve"/>
      <point x="157" y="559" type="line"/>
      <point x="146" y="555"/>
      <point x="142" y="537"/>
      <point x="143" y="526" type="qcurve"/>
      <point x="143" y="376" type="line" smooth="yes"/>
      <point x="143" y="366"/>
      <point x="159" y="354"/>
      <point x="168" y="358" type="qcurve"/>
    </contour>
    <contour>
      <point x="440" y="684" type="line"/>
      <point x="572" y="684" type="line"/>
      <point x="375" y="0" type="line"/>
      <point x="244" y="0" type="line"/>
    </contour>
    <contour>
      <point x="1034" y="425" type="line"/>
      <point x="1075" y="394"/>
      <point x="1098" y="312"/>
      <point x="1098" y="270" type="qcurve" smooth="yes"/>
      <point x="1098" y="151" type="line"/>
      <point x="1097" y="118"/>
      <point x="1078" y="63"/>
      <point x="1041" y="23"/>
      <point x="986" y="0"/>
      <point x="950" y="0" type="qcurve" smooth="yes"/>
      <point x="921" y="0"/>
      <point x="868" y="21"/>
      <point x="829" y="59"/>
      <point x="806" y="112"/>
      <point x="806" y="143" type="qcurve" smooth="yes"/>
      <point x="806" y="253" type="line" smooth="yes"/>
      <point x="806" y="288"/>
      <point x="841" y="288" type="qcurve"/>
      <point x="842" y="288"/>
      <point x="842" y="289" type="qcurve"/>
      <point x="842" y="326" type="line"/>
      <point x="841" y="327" type="line"/>
      <point x="802" y="327"/>
      <point x="817" y="364" type="qcurve"/>
      <point x="817" y="363" type="line"/>
      <point x="834" y="406"/>
      <point x="908" y="452"/>
      <point x="951" y="452" type="qcurve" smooth="yes"/>
      <point x="996" y="452"/>
      <point x="1034" y="426" type="qcurve"/>
    </contour>
    <contour>
      <point x="958" y="126" type="line"/>
      <point x="968" y="129"/>
      <point x="971" y="146"/>
      <point x="970" y="157" type="qcurve"/>
      <point x="970" y="307" type="line" smooth="yes"/>
      <point x="970" y="318"/>
      <point x="953" y="329"/>
      <point x="944" y="326" type="qcurve" smooth="yes"/>
      <point x="933" y="322"/>
      <point x="929" y="305"/>
      <point x="930" y="294" type="qcurve"/>
      <point x="930" y="143" type="line" smooth="yes"/>
      <point x="930" y="133"/>
      <point x="947" y="121"/>
      <point x="956" y="126" type="qcurve"/>
    </contour>
  </outline>
</glyph>
<glyph name="guilsinglleft" format="2">
  <advance width="435"/>
  <unicode hex="2039"/>
  <outline>
    <contour>
      <point x="37" y="273" type="line"/>
      <point x="39" y="290"/>
      <point x="57" y="332"/>
      <point x="72" y="342" type="qcurve" smooth="yes"/>
      <point x="367" y="528" type="line"/>
      <point x="401" y="444" type="line"/>
      <point x="128" y="264" type="line"/>
      <point x="401" y="84" type="line"/>
      <point x="367" y="0" type="line"/>
      <point x="72" y="186" type="line" smooth="yes"/>
      <point x="57" y="195"/>
      <point x="38" y="238"/>
      <point x="36" y="255" type="qcurve"/>
    </contour>
  </outline>
</glyph>
<glyph name="guilsinglright" format="2">
  <advance width="435"/>
  <unicode hex="203A"/>
  <outline>
    <contour>
      <point x="400" y="255" type="line"/>
      <point x="398" y="238"/>
      <point x="380" y="196"/>
      <point x="365" y="186" type="qcurve" smooth="yes"/>
      <point x="70" y="0" type="line"/>
      <point x="36" y="84" type="line"/>
      <point x="309" y="264" type="line"/>
      <point x="36" y="444" type="line"/>
      <point x="70" y="528" type="line"/>
      <point x="365" y="342" type="line" smooth="yes"/>
      <point x="380" y="333"/>
      <point x="399" y="290"/>
      <point x="401" y="273" type="qcurve"/>
    </contour>
  </outline>
</glyph>
